<svg viewBox="0 0 43 43" fill="none" xmlns="http://www.w3.org/2000/svg"><path d="M12.337 17.276h24.736a2.378 2.378 0 0 1 2.379 2.378v19.968A2.378 2.378 0 0 1 37.073 42H12.1a2.378 2.378 0 0 1-2.378-2.378l.214-19.956a2.378 2.378 0 0 1 2.402-2.39Z" stroke="#112F59" stroke-width="1.784" stroke-miterlimit="10"/><path d="m24.622 27.325 2.379 2.378a.476.476 0 0 0 .832-.333V17.478h-6.434V29.37a.476.476 0 0 0 .833.333l2.378-2.461" stroke="#112F59" stroke-width="1.784" stroke-linecap="round" stroke-linejoin="round"/><path d="M27.956 3.203 2.64 14.983a1.808 1.808 0 0 0-.876 2.4l1.374 2.955a1.808 1.808 0 0 0 2.401.876L30.856 9.436a1.808 1.808 0 0 0 .876-2.402L30.358 4.08a1.808 1.808 0 0 0-2.402-.877Z" fill="#fff" stroke="#112F59" stroke-width="1.784" stroke-miterlimit="10"/><path d="M15.453 8.571s-2.188-6.41 2.474-7.48a3.104 3.104 0 0 1 3.639 1.89c.404 1.19 0 2.724-2.926 4.115l-3.187 1.475ZM14.335 9.142S10.84 3.339 7.022 6.216a3.092 3.092 0 0 0-.904 3.996c.642 1.082 2.033 1.808 5.03.416l3.187-1.486ZM29.843 14.125a.238.238 0 1 0 0-.476.238.238 0 0 0 0 .476ZM36.098 4.337a.238.238 0 1 0 0-.476.238.238 0 0 0 0 .476Z" stroke="#112F59" stroke-width="1.784" stroke-miterlimit="10"/><path d="M38.084 8.023v6.09M41.129 11.068h-6.09" stroke="#112F59" stroke-width="1.784" stroke-linecap="round" stroke-linejoin="round"/></svg>