<svg viewBox="0 0 40 40" fill="none" xmlns="http://www.w3.org/2000/svg"><path d="M38.285 14.335c-4.76 3.028-15.162 3.019-19.903 0v.517a.838.838 0 0 1-.819.94.807.807 0 0 1-.837-.94V5.286a3.047 3.047 0 0 1 1.138-2.521 8.335 8.335 0 0 1 3.34-1.722 24.88 24.88 0 0 1 14.974.226 7.525 7.525 0 0 1 2.728 1.552 3.216 3.216 0 0 1 1.091 2.55v26.111a3.01 3.01 0 0 1-1.034 2.23 8.73 8.73 0 0 1-3.594 1.88 25.19 25.19 0 0 1-9.142.885 3.416 3.416 0 0 1-.433-.066.837.837 0 0 1-.753-.94.883.883 0 0 1 .988-.734c1.402 0 2.822.122 4.223.056a16.132 16.132 0 0 0 5.86-1.26c.62-.311 1.206-.683 1.75-1.11a1.29 1.29 0 0 0 .48-1.12v-3.546c-1.195.452-2.361.94-3.584 1.326a24.568 24.568 0 0 1-8.767.697c-.63-.057-.94-.405-.94-.941 0-.536.47-.81 1.09-.762 2.621.27 5.268.088 7.827-.536a20.613 20.613 0 0 0 3.236-1.27 1.966 1.966 0 0 0 1.157-2.06c-.066-1.072 0-2.135 0-3.217h-.16a15.738 15.738 0 0 1-6.396 1.985 25.243 25.243 0 0 1-5.776.113c-.696-.066-1.091-.518-.94-1.073.15-.555.432-.602.94-.592 1.533 0 3.076.075 4.61 0a15.821 15.821 0 0 0 5.643-1.289c.263-.122.517-.273.771-.404a2.23 2.23 0 0 0 1.298-2.296c-.17-.968-.066-2.003-.066-3.103Zm-10.092-6.02c2.407.05 4.806-.297 7.101-1.026a6.415 6.415 0 0 0 2.559-1.448 1.025 1.025 0 0 0 0-1.684 8.463 8.463 0 0 0-1.966-1.223 15.896 15.896 0 0 0-4.9-1.129 24.108 24.108 0 0 0-9.097.725 7.224 7.224 0 0 0-3.01 1.533 1.072 1.072 0 0 0 0 1.881c.521.434 1.1.792 1.722 1.063a19.546 19.546 0 0 0 7.543 1.307h.047Zm-9.887-.63v3.762a1.214 1.214 0 0 0 .518 1.138 11.38 11.38 0 0 0 2.408 1.326 23.516 23.516 0 0 0 12.651.442 9.717 9.717 0 0 0 3.433-1.41 1.882 1.882 0 0 0 .941-1.797V7.722a23.083 23.083 0 0 1-19.932 0l-.018-.038Z" fill="#112F59"/><path d="M23.283 28.246v6.321a3.218 3.218 0 0 1-1.26 2.662 10.348 10.348 0 0 1-4.356 1.938 25.64 25.64 0 0 1-12.934-.254 9.64 9.64 0 0 1-3.198-1.486 3.499 3.499 0 0 1-1.533-3.02V21.756a3.133 3.133 0 0 1 1.195-2.446 8.599 8.599 0 0 1 3.358-1.693 24.777 24.777 0 0 1 14.74.207 10.77 10.77 0 0 1 2.605 1.364 3.076 3.076 0 0 1 1.373 2.822c-.038 2.05.01 4.148.01 6.236Zm-12.426-3.339a22.38 22.38 0 0 0 7.073-.809 12.42 12.42 0 0 0 2.888-1.345c1.1-.705 1.072-1.543 0-2.314a7.762 7.762 0 0 0-1.561-.884 15.902 15.902 0 0 0-4.76-1.12 23.965 23.965 0 0 0-9.406.725A7.045 7.045 0 0 0 2.1 20.72a1.053 1.053 0 0 0 0 1.731c.513.442 1.086.81 1.702 1.091a18.107 18.107 0 0 0 7.055 1.364Zm-9.152 6.048v4.007a1.165 1.165 0 0 0 .442.781c.535.436 1.119.808 1.74 1.11a18.09 18.09 0 0 0 6.584 1.317c2.577.157 5.162-.12 7.648-.819a8.289 8.289 0 0 0 2.821-1.354 1.722 1.722 0 0 0 .715-1.505c-.047-1.035 0-2.079 0-3.113v-.414a19.227 19.227 0 0 1-9.923 2.238 19.347 19.347 0 0 1-10.027-2.248Zm0-6.65v3.762a1.486 1.486 0 0 0 .733 1.299c.647.429 1.338.788 2.06 1.072a23.515 23.515 0 0 0 13.075.414 8.674 8.674 0 0 0 3.189-1.373 1.768 1.768 0 0 0 .884-1.712 12.528 12.528 0 0 1 0-1.458v-1.995a23.168 23.168 0 0 1-19.932 0l-.01-.009Z" fill="#112F59"/></svg>