<svg viewBox="0 0 42 42" fill="none" xmlns="http://www.w3.org/2000/svg"><path d="M41.035 24.408a17.029 17.029 0 0 1-.555 2.06 7.4 7.4 0 0 1-4.581 4.333l-.188.068-.128.069a7.897 7.897 0 0 1-.539 3.196 7.691 7.691 0 0 1-7.025 4.803h-2.342a.41.41 0 0 0-.418.257 3.129 3.129 0 0 1-2.932 1.786c-1.08.044-2.162.016-3.239-.086a3.111 3.111 0 0 1-2.624-3.316 3.17 3.17 0 0 1 3.068-3.008h2.966a3.025 3.025 0 0 1 2.718 1.71.547.547 0 0 0 .598.35 24.775 24.775 0 0 0 3.299-.18 5.128 5.128 0 0 0 4.094-5.222l-.479-.094a3.419 3.419 0 0 1-2.692-3.29v-8.281a3.42 3.42 0 0 1 2.931-3.316l.274-.043c.06-4.547-1.624-8.256-5.427-10.76a11.657 11.657 0 0 0-13.187-.24 11.896 11.896 0 0 0-5.76 10.983c.289.064.574.144.854.24a3.47 3.47 0 0 1 2.274 3.247v8.085a3.486 3.486 0 0 1-3.496 3.47 7.529 7.529 0 0 1-7.452-8.367 7.35 7.35 0 0 1 5.128-6.273.41.41 0 0 0 .307-.488 14.016 14.016 0 0 1 2.009-7.905 14.332 14.332 0 0 1 11.22-7.128l.3-.068h2.034c.098.03.198.053.3.068A14.529 14.529 0 0 1 35.582 16.05a.478.478 0 0 0 .367.564 7.368 7.368 0 0 1 4.88 5.359c.085.325.137.658.205.983v1.452Zm-31.348-.735v-3.862a1.17 1.17 0 0 0-1.325-1.282 5.15 5.15 0 0 0-.222 10.298 1.24 1.24 0 0 0 1.547-1.368v-3.786Zm22.69-.05v3.905a1.205 1.205 0 0 0 1.42 1.307l.35-.042a5.131 5.131 0 1 0-.402-10.256 1.162 1.162 0 0 0-1.367 1.3c-.009 1.264 0 2.529 0 3.785Z" stroke="#112F59" stroke-width="1.282" stroke-miterlimit="10"/><path d="M21.037 20.332c.44-.43.995-.727 1.598-.855a3.008 3.008 0 0 1 2.889 4.923c-.154.17-.325.333-.488.504l-3.367 3.308a.854.854 0 0 1-1.265 0c-1.239-1.24-2.487-2.47-3.709-3.71a2.889 2.889 0 0 1-.752-3.076 2.855 2.855 0 0 1 2.41-2.051 2.95 2.95 0 0 1 2.3.615c.133.107.262.221.384.342Z" stroke="#112F59" stroke-width="1.282" stroke-miterlimit="10"/></svg>