<svg viewBox="0 0 36 40" fill="none" xmlns="http://www.w3.org/2000/svg">
<path d="M30.532 33.5852L24.1006 28.3964L23.5017 29.1138C23.1907 29.528 22.7967 29.875 22.344 30.1335C21.8912 30.3919 21.3895 30.5561 20.8697 30.6162C20.3499 30.6762 19.8231 30.6308 19.3219 30.4825C18.8207 30.3343 18.3557 30.0865 17.9556 29.7544C15.1976 27.4993 12.6608 24.9942 10.3786 22.2723C10.0464 21.8851 9.79784 21.4354 9.64817 20.9505C9.4985 20.4656 9.45085 19.9558 9.50812 19.4522C9.56538 18.9486 9.72636 18.4618 9.98123 18.0215C10.2361 17.5811 10.5795 17.1966 10.9905 16.8913L11.7586 16.2635L6.45989 9.85757C5.229 10.7542 4.06713 11.7391 2.9838 12.8043C2.24236 13.6682 1.77548 14.7276 1.64122 15.8507C1.50696 16.9738 1.71126 18.1109 2.22872 19.1205C2.73809 20.3421 3.47552 21.4589 4.40287 22.4132C4.50503 22.5094 4.60071 22.6121 4.68929 22.7206C4.77303 22.7951 4.83998 22.8861 4.8858 22.9876C4.93161 23.0891 4.95529 23.1989 4.95529 23.31C4.95529 23.4211 4.93161 23.5309 4.8858 23.6324C4.83998 23.7339 4.77303 23.8249 4.68929 23.8994C4.6093 23.9791 4.51285 24.0409 4.40644 24.0807C4.30004 24.1205 4.18618 24.1374 4.07259 24.1301C3.959 24.1228 3.84835 24.0916 3.7481 24.0385C3.64785 23.9854 3.56036 23.9118 3.49156 23.8225C2.4053 22.7811 1.52272 21.5521 0.887763 20.1967C-0.0174137 18.402 -0.239132 16.3475 0.262837 14.4058C0.648974 12.9536 1.50886 11.6663 2.71041 10.7416C4.12948 9.61414 5.57459 8.5123 7.0197 7.43611C7.66413 6.9353 8.483 6.7043 9.29917 6.79301C10.1154 6.88172 10.8632 7.28301 11.3811 7.91014C12.5267 9.19132 13.6594 10.575 14.779 11.9331C15.0643 12.2417 15.2802 12.6063 15.4123 13.0027C15.5444 13.3992 15.5898 13.8188 15.5455 14.2337C15.5012 14.6487 15.3683 15.0497 15.1555 15.4106C14.9426 15.7715 14.6546 16.0839 14.3103 16.3275C13.5943 16.9297 12.8652 17.5062 12.1362 18.0956C11.8586 18.2772 11.6265 18.5184 11.4576 18.8012C11.2886 19.0839 11.1871 19.4008 11.1608 19.7278C11.1344 20.0548 11.1839 20.3834 11.3055 20.6888C11.4272 20.9942 11.6177 21.2684 11.8628 21.4908C13.2775 23.0026 14.7313 24.4973 16.2241 25.9749C17.0183 26.7821 17.8906 27.5123 18.7498 28.2682C18.981 28.5207 19.2685 28.7171 19.5897 28.8421C19.9108 28.9671 20.257 29.0173 20.6012 28.9888C20.9454 28.9603 21.2782 28.8538 21.5736 28.6777C21.869 28.5015 22.1189 28.2606 22.304 27.9736C22.9029 27.2561 23.4887 26.5258 24.0876 25.8212C24.3295 25.5114 24.6317 25.2523 24.9767 25.0591C25.3216 24.8658 25.7023 24.7423 26.0964 24.6958C26.4905 24.6492 26.8901 24.6806 27.2717 24.788C27.6533 24.8955 28.0093 25.0769 28.3188 25.3215C29.816 26.4618 31.2741 27.6661 32.6932 28.8832C33.2826 29.3931 33.6525 30.1049 33.7275 30.8737C33.8024 31.6425 33.5769 32.4105 33.0967 33.0214C31.9901 34.4692 30.8705 35.9169 29.7118 37.3134C28.6838 38.5249 27.2929 39.3856 25.7379 39.7721C24.1829 40.1587 22.5435 40.0515 21.0542 39.4658C19.3917 38.8896 17.8799 37.9575 16.6277 36.7368C13.2428 33.4442 9.8839 30.1259 6.51198 26.8205C6.06933 26.372 6.03024 25.9236 6.39477 25.5393C6.7593 25.1549 7.24101 25.219 7.69667 25.6803L17.3177 35.2507C18.6516 36.6886 20.3855 37.7088 22.304 38.1846C23.4483 38.5108 24.6673 38.4802 25.7932 38.0971C26.9192 37.714 27.897 36.9971 28.5922 36.045L30.532 33.5852ZM7.8399 8.92233L13.0475 15.2129C13.2534 15.1172 13.4331 14.9745 13.5717 14.7968C13.7103 14.619 13.8039 14.4113 13.8446 14.1909C13.8853 13.9704 13.8721 13.7436 13.8059 13.5292C13.7397 13.3148 13.6226 13.1189 13.4641 12.958C12.3705 11.6768 11.2639 10.3188 10.1442 9.02484C10.0161 8.84561 9.84791 8.69759 9.65262 8.59225C9.45733 8.48692 9.24012 8.42707 9.01764 8.41717C8.79517 8.40728 8.57335 8.4476 8.36919 8.53517C8.16504 8.62274 7.98397 8.7552 7.8399 8.92233ZM31.5475 32.2527C31.7045 32.1318 31.8331 31.9789 31.9243 31.8044C32.0156 31.6299 32.0673 31.4381 32.0759 31.2421C32.0846 31.046 32.05 30.8504 31.9745 30.6688C31.899 30.4872 31.7844 30.3238 31.6386 30.19C30.2065 28.9515 28.7354 27.7557 27.2252 26.6027C27.0646 26.4765 26.8759 26.3896 26.6747 26.3489C26.4734 26.3083 26.2651 26.3151 26.067 26.3689C25.869 26.4226 25.6866 26.5217 25.5349 26.6581C25.3832 26.7945 25.2664 26.9643 25.1942 27.1536L31.5475 32.2527Z" fill="#112F59"/>
<path d="M20.3772 12.1894C19.9105 12.0641 19.4536 11.9056 19.0102 11.7153C18.4256 11.4425 17.9331 11.01 17.5915 10.4693C17.2498 9.92867 17.0735 9.30271 17.0834 8.6661C17.0834 6.94931 17.0834 5.24534 17.0834 3.54136C17.0817 3.08276 17.1726 2.62843 17.3509 2.20473C17.5292 1.78103 17.7914 1.39638 18.1221 1.07329C18.4528 0.750206 18.8455 0.495113 19.2774 0.322753C19.7092 0.150393 20.1716 0.0642162 20.6376 0.069315C22.8768 0.069315 25.1161 0.069315 27.3554 0.069315C28.0063 0.069315 28.3578 0.338424 28.3709 0.850898C28.3839 1.36337 28.0194 1.69646 27.3684 1.70927H20.5334C20.06 1.72874 19.612 1.9251 19.2806 2.25837C18.9492 2.59164 18.7594 3.03669 18.7498 3.50289C18.7498 5.21113 18.7498 6.91938 18.7498 8.62763C18.7559 9.08715 18.9397 9.52721 19.2638 9.85807C19.5879 10.1889 20.028 10.3857 20.4944 10.4085C20.8329 10.4085 21.1844 10.4085 21.5359 10.4085C21.6774 10.3982 21.8192 10.4235 21.9479 10.4822C22.0767 10.5409 22.188 10.631 22.2715 10.744C22.3549 10.8569 22.4077 10.9888 22.4248 11.1274C22.4419 11.266 22.4227 11.4067 22.3691 11.5359C22.1478 12.2662 21.8744 12.9837 21.614 13.7524C21.7522 13.7111 21.8871 13.6597 22.0176 13.5986C23.335 12.995 24.4867 12.0901 25.3765 10.9594C25.5119 10.7739 25.6926 10.625 25.9019 10.5265C26.1113 10.428 26.3425 10.383 26.5742 10.3957H32.1984C32.4948 10.4334 32.7959 10.4037 33.0788 10.3089C33.3616 10.214 33.6185 10.0566 33.8298 9.84868C34.0411 9.64077 34.2011 9.38796 34.2974 9.10964C34.3938 8.83132 34.4239 8.5349 34.3856 8.24329V3.73357C34.4182 3.4504 34.3859 3.16364 34.2912 2.89435C34.1964 2.62507 34.0416 2.38009 33.8381 2.17736C33.6346 1.97463 33.3876 1.81931 33.1151 1.7228C32.8426 1.62629 32.5517 1.591 32.2636 1.61958C32.0207 1.63249 31.7773 1.63249 31.5345 1.61958C31.4251 1.61807 31.3171 1.5947 31.2171 1.55084C31.1172 1.50699 31.0273 1.44359 30.953 1.3645C30.8788 1.28541 30.8216 1.19224 30.785 1.09073C30.7484 0.989222 30.7332 0.881503 30.7403 0.77403C30.7399 0.667457 30.7621 0.561912 30.8054 0.464212C30.8486 0.366512 30.912 0.27876 30.9916 0.206473C31.0712 0.134187 31.1652 0.0790044 31.2676 0.0443701C31.37 0.00973572 31.4786 -0.0036104 31.5865 0.00527137C32.1921 -0.0150893 32.7983 0.0235687 33.3962 0.120613C34.1374 0.307427 34.7949 0.730547 35.266 1.32391C35.737 1.91728 35.9952 2.64748 36 3.40045C36 5.15567 36 6.89804 36 8.64046C35.9938 9.52363 35.6407 10.3702 35.0146 11.003C34.3886 11.6358 33.538 12.0059 32.6411 12.0356C30.7794 12.0356 28.9177 12.0356 27.056 12.0356C26.9181 12.0409 26.7826 12.073 26.6575 12.1302C26.5323 12.1874 26.4199 12.2685 26.3269 12.3688C24.6073 14.3309 22.2181 15.6067 19.6091 15.9561H19.3487C19.1533 15.994 18.9506 15.9619 18.7772 15.8654C18.6038 15.769 18.4713 15.6147 18.4036 15.4303C18.3359 15.246 18.3375 15.0439 18.4082 14.8607C18.4789 14.6774 18.614 14.5251 18.7889 14.4314C19.5656 13.8871 20.1269 13.0949 20.3772 12.1894Z" fill="#112F59"/>
<path d="M22.4471 6.94907C22.3277 6.9614 22.207 6.94977 22.0923 6.91474C21.9777 6.87972 21.8714 6.82207 21.7801 6.74537C21.6888 6.66867 21.6142 6.57448 21.561 6.46855C21.5078 6.36261 21.4771 6.24716 21.4707 6.12917C21.4707 5.62951 21.8743 5.30919 22.4602 5.30919C22.5803 5.2929 22.7025 5.3018 22.8188 5.33531C22.9352 5.36882 23.043 5.42615 23.1353 5.50359C23.2275 5.58104 23.302 5.67682 23.3539 5.78463C23.4059 5.89244 23.434 6.00989 23.4366 6.12917C23.4366 6.61602 23.046 6.94907 22.4471 6.94907Z" fill="#112F59"/>
<path d="M30.662 5.30968C30.7838 5.28842 30.9087 5.29369 31.0282 5.32509C31.1477 5.35648 31.2587 5.41325 31.3535 5.49141C31.4482 5.56958 31.5244 5.66719 31.5767 5.77746C31.629 5.88772 31.6561 6.00798 31.6561 6.12966C31.6561 6.25134 31.629 6.37151 31.5767 6.48178C31.5244 6.59205 31.4482 6.68974 31.3535 6.76791C31.2587 6.84607 31.1477 6.90284 31.0282 6.93423C30.9087 6.96563 30.7838 6.97082 30.662 6.94956C30.5443 6.96375 30.4249 6.95422 30.3111 6.92149C30.1973 6.88875 30.0915 6.83349 30.0001 6.75915C29.9087 6.68481 29.8337 6.59297 29.7796 6.48913C29.7255 6.3853 29.6936 6.27164 29.6856 6.15523C29.6844 6.03378 29.7099 5.91354 29.7602 5.80264C29.8105 5.69173 29.8845 5.59276 29.9772 5.51252C30.0698 5.43229 30.1789 5.37269 30.2971 5.33767C30.4153 5.30266 30.5397 5.29311 30.662 5.30968Z" fill="#112F59"/>
<path d="M26.5744 5.30957C27.1732 5.30957 27.5378 5.62983 27.5248 6.15512C27.5223 6.27106 27.4948 6.38516 27.4442 6.48988C27.3936 6.59461 27.3209 6.68756 27.2311 6.76263C27.1413 6.83771 27.0363 6.89324 26.9231 6.92544C26.8099 6.95764 26.691 6.96578 26.5744 6.94945C25.9755 6.94945 25.585 6.62921 25.585 6.12955C25.585 5.62989 25.9755 5.30957 26.5744 5.30957Z" fill="#112F59"/>
</svg>
