<svg viewBox="0 0 41 41" fill="none" xmlns="http://www.w3.org/2000/svg"><path d="M23.534 41a2.145 2.145 0 0 1-1.63-1.678 2.616 2.616 0 0 1-.047-.555V19.312a2.079 2.079 0 0 1 2.246-2.248h14.65a2.065 2.065 0 0 1 2.124 1.358c.103.285.142.589.114.89v19.182c0 1.46-.343 1.967-1.684 2.506H23.534Zm-.312-11.968v9.61c0 .781.203.992.998.992h14.408c.78 0 .998-.195.998-.984V19.46c0-.78-.203-.99-.99-.999H24.228c-.78 0-1.006.203-1.006.992v9.579ZM0 26.823c.133-.828.203-1.679.413-2.483.297-1.085.68-2.155 1.061-3.216.188-.516.562-.688.96-.523.398.163.515.57.28 1.092a15.766 15.766 0 0 0-.967 9.97 9.105 9.105 0 0 0 6.927 7.252c3.573.95 7.325 1 10.92.14.531-.116.874.048.984.47.109.421-.133.78-.671.85-1.17.203-2.34.375-3.51.555l-.344.07h-3.12l-.312-.063c-1.4-.153-2.79-.383-4.165-.687-4.532-1.225-7.263-4.168-8.105-8.814-.125-.702-.203-1.42-.304-2.13L0 26.822ZM5.928 14.683c-1.022-.851-1.365-1.78-1.03-2.803.336-1.023 1.147-1.561 2.614-1.663a7.56 7.56 0 0 0-.258-.406A27.206 27.206 0 0 1 4.353 4.66a5.297 5.297 0 0 1-.523-2.834A1.453 1.453 0 0 1 5.92.615c.42.174.825.382 1.21.624a5.457 5.457 0 0 0 2.13.781 2.541 2.541 0 0 0 2.152-.734 3.962 3.962 0 0 1 5.843 0 2.667 2.667 0 0 0 2.816.617c.513-.18 1.013-.393 1.497-.64.359-.172.694-.398 1.061-.554a1.559 1.559 0 0 1 2.27 1.483 6.305 6.305 0 0 1-.585 2.56 28.11 28.11 0 0 1-2.878 5.106c-.086.117-.156.242-.25.383.328.039.616.047.897.11a2.34 2.34 0 0 1 2.266 2.415 2.344 2.344 0 0 1-2.414 2.268 4.93 4.93 0 0 1-.78.055H7.965a.826.826 0 0 0-.695.289c-.78.937-1.6 1.858-2.395 2.795a.71.71 0 0 1-.881.265.608.608 0 0 1-.382-.718 1.32 1.32 0 0 1 .257-.484l2.06-2.553Zm11.841-4.45c.302-.02.604-.02.905 0a1.162 1.162 0 0 0 1.264-.64 31.3 31.3 0 0 0 3.237-5.691c.2-.503.338-1.027.413-1.562.07-.43-.1-.53-.507-.359-.25.102-.468.25-.71.36-.574.299-1.168.56-1.778.78a4.03 4.03 0 0 1-4.29-.898 2.613 2.613 0 0 0-3.9 0 3.9 3.9 0 0 1-1.826 1.03 5.496 5.496 0 0 1-4.01-.78 10.41 10.41 0 0 0-.92-.492c-.397-.18-.546-.101-.483.32.065.534.193 1.058.382 1.562a29.031 29.031 0 0 0 3.596 6.167.397.397 0 0 0 .273.18h1.56V6.938c0-.53.242-.78.671-.78.429 0 .686.296.694.843V10.217h4.08V6.83a.656.656 0 0 1 .647-.671.686.686 0 0 1 .71.624v.36l-.008 3.091Zm-3.447 1.366H7.169a1.037 1.037 0 0 0-1.007.992 1.007 1.007 0 0 0 .936 1.054c.133.007.266.007.398 0H21.21c.2.006.4-.015.593-.063a.936.936 0 0 0 .71-.734 1.032 1.032 0 0 0-1.108-1.264l-7.082.015Z" fill="#112F59"/><path d="M13.65 34.083v-6.035c-.428-.101-.857-.18-1.27-.312A4.757 4.757 0 0 1 9.055 24.7a3.906 3.906 0 0 1 1.623-4.38 5.73 5.73 0 0 1 2.644-1.061c.265-.04.382-.125.351-.398a2.262 2.262 0 0 1 0-.398.656.656 0 0 1 .624-.656.663.663 0 0 1 .718.6c.016.26.016.522 0 .782.405.085.78.14 1.123.25a4.812 4.812 0 0 1 3.487 3.122c.093.32.148.65.164.984a.671.671 0 0 1-.904.737.686.686 0 0 1-.446-.62 3.49 3.49 0 0 0-3.315-3.014h-.07v6.074c.359.078.725.14 1.084.242a5.257 5.257 0 0 1 2.855 1.874 3.905 3.905 0 0 1-1.037 5.636c-.863.598-1.86.97-2.902 1.086-.094.554.171 1.39-.741 1.374-.913-.016-.593-.781-.663-1.265a18.883 18.883 0 0 1-2.239-.78 4.237 4.237 0 0 1-2.496-3.217 2.814 2.814 0 0 1 0-.515.664.664 0 0 1 .624-.664.625.625 0 0 1 .718.593c-.094 1.648 1.786 2.889 3.393 2.998Zm0-13.545a4.11 4.11 0 0 0-3.041 1.772 2.257 2.257 0 0 0-.211 2.07 3.769 3.769 0 0 0 3.253 2.17v-6.012Zm1.413 7.573v5.98a4.273 4.273 0 0 0 2.613-1.218 2.42 2.42 0 0 0 .647-2.506 3.684 3.684 0 0 0-3.26-2.256ZM31.405 25.956h-4.563a1.372 1.372 0 0 1-1.56-1.561V21.95a1.343 1.343 0 0 1 1.458-1.444h9.36a1.348 1.348 0 0 1 1.46 1.444v2.6a1.337 1.337 0 0 1-1.444 1.413l-4.711-.008Zm-4.727-4.09v2.693h9.493v-2.694h-9.493ZM26.966 32.108h-.96a.678.678 0 1 1 0-1.358h1.998a.655.655 0 0 1 .702.663.673.673 0 0 1-.718.695h-1.022ZM31.795 29.383h-1.007a.68.68 0 0 1-.717-.687.671.671 0 0 1 .733-.671h1.919a.678.678 0 0 1 .78.663.688.688 0 0 1-.78.695h-.928ZM36.53 34.84h-1a.67.67 0 0 1-.645-.906.678.678 0 0 1 .623-.444h2.082a.687.687 0 0 1 .671.71.671.671 0 0 1-.686.64c-.351.008-.695 0-1.046 0ZM36.522 37.573h-.999a.67.67 0 0 1-.694-.648.672.672 0 0 1 .648-.695h2.16a.679.679 0 0 1-.07 1.35l-1.045-.007ZM36.584 28.048h.999a.678.678 0 0 1 0 1.359H35.5a.678.678 0 0 1-.48-1.16.678.678 0 0 1 .48-.199h1.084ZM26.966 29.375h-.96a.678.678 0 1 1 0-1.358h1.927a.665.665 0 0 1 .734.671.67.67 0 0 1-.718.687c-.32.016-.655 0-.983 0ZM31.78 30.75h.998a.678.678 0 1 1 0 1.358h-2.036a.646.646 0 0 1-.671-.648.665.665 0 0 1 .663-.703c.39-.023.694-.008 1.045-.008ZM36.538 32.108h-.999a.679.679 0 0 1 0-1.359h2.028a.686.686 0 0 1 .702.672.704.704 0 0 1-.725.687h-1.006ZM31.764 34.84h-.999a.678.678 0 1 1 0-1.358h2.044a.678.678 0 0 1 0 1.358h-1.045ZM31.732 37.573h-.998a.67.67 0 0 1-.475-1.146.67.67 0 0 1 .475-.197h2.122a.656.656 0 0 1 .647.68.664.664 0 0 1-.702.67l-1.069-.007ZM26.974 34.84h-.998a.679.679 0 1 1-.04-1.358h2.084a.68.68 0 0 1-.016 1.358h-1.03ZM26.958 37.573h-.998a.67.67 0 0 1-.515-1.13.671.671 0 0 1 .468-.213h2.122a.647.647 0 0 1 .647.71.657.657 0 0 1-.686.64l-1.038-.007Z" fill="#112F59"/></svg>