<svg viewBox="0 0 41 40" fill="none" xmlns="http://www.w3.org/2000/svg"><path d="M34.196 7.052c0 .45 0 .886.063 1.336a.649.649 0 0 0 .524.686l1.972.5c.358.092.708.208 1.05.35a2.024 2.024 0 0 1 1.247 2.646 20.796 20.796 0 0 1-.923 2.184c-.5 1.111-.487 1.174.449 1.948.579.448 1.133.927 1.66 1.435a2.109 2.109 0 0 1 0 3.246 22.157 22.157 0 0 1-1.835 1.573c-.724.612-.761.75-.374 1.61.387.862.674 1.374.923 2.098a2.147 2.147 0 0 1-1.485 3.083c-.7.237-1.448.375-2.172.55-.961.249-1.011.299-1.061 1.31v2.16a2.183 2.183 0 0 1-2.672 2.247c-.324 0-.649-.1-.973-.163l-1.648-.35a.762.762 0 0 0-.924.438c-.262.512-.5 1.036-.774 1.535a8.903 8.903 0 0 1-.799 1.249 1.96 1.96 0 0 1-2.584.549 16.476 16.476 0 0 1-1.635-1.124l-.887-.674a.849.849 0 0 0-1.148 0c-.437.35-.874.7-1.324 1.024-.392.301-.81.569-1.248.799a1.935 1.935 0 0 1-2.496-.562 9.168 9.168 0 0 1-.9-1.46c-.236-.412-.411-.862-.636-1.249-.225-.387-.462-.624-1.086-.512-.624.113-1.348.3-2.022.425a5.191 5.191 0 0 1-1.161.075 1.922 1.922 0 0 1-1.91-1.723 14.817 14.817 0 0 1-.138-2.234c0-1.51 0-1.536-1.51-1.873a17.336 17.336 0 0 1-1.91-.524 2.073 2.073 0 0 1-1.373-2.822c.262-.786.661-1.535.998-2.297.337-.761.337-.986-.362-1.573-.699-.586-1.248-.998-1.835-1.572a2.123 2.123 0 0 1 0-3.284c.55-.561 1.249-1.048 1.823-1.572.574-.525.749-.737.374-1.573-.287-.637-.611-1.249-.849-1.885a3.745 3.745 0 0 1-.274-1.386 1.972 1.972 0 0 1 1.498-1.848c.736-.262 1.51-.412 2.284-.624l.412-.1a.824.824 0 0 0 .7-.899c0-.823 0-1.66.062-2.496a2.147 2.147 0 0 1 2.172-2.26c.348-.004.695.03 1.036.1.674.125 1.348.275 2.022.425a.799.799 0 0 0 1.024-.475c.212-.437.425-.874.65-1.248.234-.46.497-.907.786-1.336a2.022 2.022 0 0 1 2.82-.6c.489.304.96.633 1.412.987l.96.737a.849.849 0 0 0 1.174 0c.4-.312.787-.625 1.249-.912.394-.31.811-.59 1.248-.836a1.973 1.973 0 0 1 2.659.55c.32.457.609.936.861 1.435.225.424.412.861.637 1.248.225.387.462.612 1.049.5.586-.113 1.348-.3 2.034-.425.412-.08.831-.104 1.249-.075a1.947 1.947 0 0 1 1.885 1.698 17.8 17.8 0 0 1 .187 1.848l-.225-.038Zm-1.86.087c0-.474 0-.948-.075-1.423-.075-.474-.187-.437-.487-.387l-1.947.375c-2.097.45-2.971 0-3.907-1.898a43.236 43.236 0 0 0-.862-1.697.412.412 0 0 0-.699-.15l-1.573 1.248a2.882 2.882 0 0 1-4.257 0c-.2-.15-.399-.325-.611-.474a10.19 10.19 0 0 0-.824-.624c-.512-.363-.624-.337-.924.212-.3.55-.674 1.36-1.036 2.022a2.572 2.572 0 0 1-3.146 1.51c-.686-.124-1.373-.311-2.06-.436-.686-.125-.898 0-.923.736-.025.737 0 1.348 0 2.035a2.61 2.61 0 0 1-2.272 2.821c-.575.163-1.174.275-1.748.425-1.049.262-1.074.337-.637 1.336.337.761.7 1.522.986 2.296a2.222 2.222 0 0 1-.561 2.385c-.242.25-.496.487-.762.711-.437.362-.899.712-1.323 1.099-.425.387-.55.637 0 1.11.55.475 1.186.962 1.748 1.474a2.497 2.497 0 0 1 .736 3.208c-.25.637-.562 1.249-.836 1.848-.425.936-.375 1.036.611 1.248.774.2 1.56.362 2.322.612a2.31 2.31 0 0 1 1.673 2.097c0 .474 0 .949.063 1.423.062.475 0 .924 0 1.373 0 .45.124.612.636.537a30.795 30.795 0 0 0 1.823-.35c2.134-.449 2.958 0 3.92 1.936.262.561.561 1.11.849 1.648a.399.399 0 0 0 .699.15c.511-.388 1.036-.775 1.535-1.174a2.91 2.91 0 0 1 4.332 0c.462.374.924.736 1.398 1.086.474.35.624.337.924-.212.3-.55.686-1.398 1.06-2.073a2.497 2.497 0 0 1 3.122-1.46c.686.125 1.373.3 2.06.437.686.137.898 0 .923-.737.025-.736 0-1.36 0-2.035a2.61 2.61 0 0 1 2.272-2.82c.55-.163 1.111-.276 1.673-.413 1.149-.3 1.174-.35.674-1.435-.324-.737-.674-1.461-.949-2.223a2.222 2.222 0 0 1 .562-2.384c.242-.246.496-.48.762-.699.462-.387.948-.749 1.398-1.16.45-.413.45-.563 0-1-.225-.224-.474-.412-.712-.624-.237-.212-.849-.686-1.248-1.048a2.41 2.41 0 0 1-.65-2.86c.276-.686.6-1.335.9-2.009.45-.986.412-1.061-.637-1.336-.787-.212-1.585-.374-2.36-.636a2.248 2.248 0 0 1-1.585-2.06c-.062-.524-.075-1.099-.112-1.56h.062Z" fill="#112F59"/><path d="M14.223 27.263c-.3-.237-.65-.387-.75-.637a1.723 1.723 0 0 1 0-.936c0-.137.213-.262.338-.375L26.207 12.92c.587-.586 1.148-.674 1.56-.237.412.437.312.961-.262 1.536A3513.922 3513.922 0 0 0 15.084 26.7c-.272.21-.56.398-.861.562ZM15.995 18.387a3.234 3.234 0 1 1 3.27-3.158 3.258 3.258 0 0 1-3.27 3.158Zm0-4.594a1.337 1.337 0 0 0-1.36 1.36 1.373 1.373 0 0 0 1.348 1.387 1.373 1.373 0 0 0 0-2.747h.012ZM25.246 21.146a3.234 3.234 0 1 1-3.221 3.208 3.245 3.245 0 0 1 3.22-3.208Zm0 4.594a1.347 1.347 0 0 0 1.348-1.373 1.386 1.386 0 0 0-1.36-1.386 1.436 1.436 0 0 0-1.399 1.41 1.387 1.387 0 0 0 1.436 1.349h-.025Z" fill="#112F59"/></svg>