<svg width="54" height="43" viewBox="0 0 54 43" fill="none" xmlns="http://www.w3.org/2000/svg">
<g clip-path="url(#clip0_601_5238)">
<path d="M3.23831 23.8953H50.7283C50.9265 23.8951 51.1227 23.935 51.3051 24.0126C51.4874 24.0902 51.6522 24.2039 51.7896 24.3468C51.9269 24.4897 52.0339 24.6589 52.1041 24.8443C52.1744 25.0296 52.2064 25.2272 52.1983 25.4253V25.4253C52.1983 25.8151 52.0434 26.189 51.7678 26.4647C51.4921 26.7404 51.1182 26.8953 50.7283 26.8953H32.2183C31.9565 26.8953 31.6995 26.9647 31.4733 27.0964C31.2471 27.2282 31.0599 27.4176 30.9308 27.6453C30.8017 27.873 30.7353 28.1309 30.7384 28.3927C30.7415 28.6544 30.8139 28.9106 30.9483 29.1353L37.1183 39.4153C37.2535 39.6391 37.3266 39.8949 37.3299 40.1564C37.3333 40.4179 37.2668 40.6755 37.1374 40.9028C37.008 41.13 36.8203 41.3186 36.5937 41.4491C36.3671 41.5796 36.1098 41.6474 35.8483 41.6453H18.1483C17.8868 41.6474 17.6295 41.5796 17.4029 41.4491C17.1763 41.3186 16.9886 41.13 16.8592 40.9028C16.7298 40.6755 16.6633 40.4179 16.6667 40.1564C16.6701 39.8949 16.7431 39.6391 16.8783 39.4153L23.0483 29.1353C23.1835 28.9114 23.2566 28.6556 23.2599 28.3941C23.2633 28.1326 23.1968 27.875 23.0674 27.6477C22.938 27.4205 22.7503 27.2319 22.5237 27.1014C22.2971 26.9709 22.0398 26.9032 21.7783 26.9053H3.23831C3.04442 26.9053 2.85245 26.8669 2.67345 26.7924C2.49444 26.7179 2.33195 26.6087 2.19531 26.4712C2.05868 26.3336 1.95061 26.1704 1.87733 25.9909C1.80404 25.8114 1.767 25.6191 1.76831 25.4253V25.4253C1.76023 25.2272 1.79226 25.0296 1.86251 24.8443C1.93275 24.6589 2.03975 24.4897 2.17706 24.3468C2.31438 24.2039 2.47918 24.0902 2.66156 24.0126C2.84393 23.935 3.04011 23.8951 3.23831 23.8953V23.8953Z" stroke="white" stroke-width="2" stroke-miterlimit="10"/>
<path d="M49.8787 10.2453C49.8787 12.596 48.9456 14.8506 47.2843 16.5138C45.623 18.1769 43.3695 19.1126 41.0187 19.1153C39.8505 19.1166 38.6936 18.8871 37.6143 18.4401C36.535 17.993 35.5547 17.3372 34.7296 16.5102C33.9045 15.6833 33.2508 14.7015 32.8062 13.6212C32.3616 12.5409 32.1348 11.3834 32.1387 10.2153C32.1598 7.87321 33.1064 5.63458 34.7719 3.98782C36.4374 2.34107 38.6866 1.41988 41.0287 1.42526C43.3691 1.4305 45.6125 2.36048 47.2702 4.01256C48.9279 5.66464 49.8655 7.90492 49.8787 10.2453Z" stroke="white" stroke-width="2" stroke-miterlimit="10"/>
<path d="M35.3784 10.2253C35.3797 9.4864 35.5267 8.75503 35.811 8.07303C36.0953 7.39103 36.5112 6.77177 37.0351 6.25071C37.5589 5.72964 38.1804 5.31699 38.8639 5.03636C39.5474 4.75573 40.2795 4.61264 41.0184 4.61527" stroke="white" stroke-width="2" stroke-linecap="round" stroke-linejoin="round"/>
<path d="M17.8885 10.9053C17.8832 12.3976 17.2867 13.827 16.2296 14.8804C15.1724 15.9338 13.7409 16.5253 12.2485 16.5253" stroke="white" stroke-width="2" stroke-linecap="round" stroke-linejoin="round"/>
<path d="M21.3186 10.2452C21.3186 11.4109 21.0889 12.5651 20.6425 13.642C20.1961 14.7188 19.5419 15.697 18.7171 16.5208C17.8924 17.3446 16.9134 17.9978 15.8361 18.4429C14.7588 18.8881 13.6043 19.1166 12.4386 19.1152C11.2705 19.1166 10.1135 18.8871 9.03423 18.4401C7.95495 17.993 6.97462 17.3372 6.14951 16.5102C5.3244 15.6833 4.67077 14.7014 4.22616 13.6212C3.78154 12.5409 3.55469 11.3834 3.55864 10.2152C3.57975 7.87493 4.52495 5.6378 6.18828 3.99133C7.8516 2.34486 10.0982 1.4225 12.4386 1.42524C14.7834 1.42518 17.033 2.35251 18.6966 4.00488C20.3602 5.65725 21.3028 7.90053 21.3186 10.2452V10.2452Z" stroke="white" stroke-width="2" stroke-miterlimit="10"/>
</g>
<defs>
<clipPath id="clip0_601_5238">
<rect width="52.44" height="42.22" fill="white" transform="translate(0.768555 0.375244)"/>
</clipPath>
</defs>
</svg>
