<svg viewBox="0 0 43 43" fill="none" xmlns="http://www.w3.org/2000/svg">
<path d="M42.1428 26.5234C42.0074 26.9303 41.7327 27.2763 41.3672 27.5006C41.0017 27.7248 40.5687 27.8129 40.1446 27.7492C38.4652 27.7067 36.7788 27.7492 35.0994 27.7492C34.8586 27.7781 34.6143 27.7517 34.3852 27.672C34.1561 27.5923 33.9483 27.4613 33.7774 27.2891C33.6066 27.1169 33.4773 26.908 33.3994 26.6783C33.3215 26.4486 33.2971 26.2041 33.3279 25.9636V20.7554C33.3279 20.6774 33.3279 20.5995 33.3279 20.5144C33.325 20.4344 33.338 20.3546 33.366 20.2796C33.3941 20.2045 33.4366 20.1358 33.4912 20.0772C33.5459 20.0186 33.6115 19.9714 33.6844 19.9382C33.7573 19.905 33.836 19.8865 33.916 19.8838C33.9998 19.8824 34.0829 19.8987 34.1599 19.9317C34.237 19.9646 34.3062 20.0135 34.363 20.075C34.4199 20.1365 34.4631 20.2094 34.4899 20.2888C34.5166 20.3682 34.5263 20.4523 34.5183 20.5357C34.5183 21.5773 34.5183 22.619 34.5183 23.6606V24.107H40.8957C40.8957 23.9795 40.8957 23.8519 40.8957 23.7244V16.5534C40.8957 16.0219 40.8249 15.944 40.3005 15.944H35.0569C34.5821 15.944 34.4971 16.0361 34.49 16.5038C34.4829 16.9715 34.49 17.2478 34.49 17.6234C34.4958 17.7069 34.4844 17.7907 34.4564 17.8696C34.4284 17.9486 34.3844 18.0209 34.3273 18.082C34.2701 18.1432 34.2009 18.1919 34.1241 18.2252C34.0472 18.2584 33.9643 18.2755 33.8806 18.2753C33.797 18.2738 33.7147 18.2549 33.6388 18.2199C33.5629 18.1848 33.4952 18.1344 33.4399 18.0717C33.3846 18.0091 33.3429 17.9356 33.3175 17.856C33.2921 17.7763 33.2836 17.6923 33.2925 17.6092C33.2925 17.1699 33.2925 16.7305 33.2925 16.2912C33.2915 16.0902 33.3302 15.891 33.4063 15.7049C33.4823 15.5189 33.5943 15.3496 33.7357 15.2068C33.8772 15.0641 34.0454 14.9505 34.2308 14.8728C34.4161 14.795 34.6149 14.7545 34.8159 14.7535C36.7362 14.7535 38.6565 14.7535 40.5839 14.7535C40.9329 14.7673 41.2683 14.8924 41.5411 15.1104C41.8139 15.3284 42.0099 15.6279 42.1003 15.9652L42.1428 26.5234ZM40.917 25.3471H34.5396V25.8502C34.5396 26.4879 34.5892 26.5588 35.2482 26.5588H39.8895C41.002 26.5234 41.002 26.5233 40.917 25.3542V25.3471Z" fill="white" stroke="white" stroke-width="0.531448" stroke-miterlimit="10"/>
<path d="M21.2251 41.7511C19.8717 41.1772 18.9788 40.0717 18.0293 39.0301C17.1605 38.1431 16.5504 37.0356 16.2649 35.8272C16.1206 35.1768 16.1871 34.4973 16.4546 33.8871C16.7221 33.2769 17.1768 32.7677 17.753 32.4331C18.3188 32.0973 18.9763 31.9487 19.6315 32.0085C20.2868 32.0683 20.9065 32.3335 21.4022 32.7661C21.4467 32.7991 21.4893 32.8346 21.5298 32.8724C22.1074 32.5449 22.7178 32.2789 23.3509 32.0788C23.8828 31.9712 24.4335 32.0033 24.9493 32.172C25.4651 32.3408 25.9283 32.6403 26.2938 33.0415C26.6592 33.4426 26.9145 33.9317 27.0345 34.4609C27.1546 34.9902 27.1355 35.5415 26.9789 36.0611C26.5911 37.2814 25.907 38.3867 24.9877 39.2781C24.3571 39.9442 23.6768 40.5749 22.9895 41.1772C22.6914 41.3933 22.3706 41.5762 22.0329 41.7228L21.2251 41.7511ZM17.3703 35.3241C17.4635 36.0168 17.7345 36.6735 18.1569 37.2303C18.9797 38.3988 19.9651 39.4439 21.0834 40.3339C21.1543 40.4106 21.2404 40.4717 21.3361 40.5135C21.4318 40.5553 21.5352 40.5769 21.6396 40.5769C21.7441 40.5769 21.8474 40.5553 21.9431 40.5135C22.0388 40.4717 22.1249 40.4106 22.1959 40.3339C22.8407 39.7529 23.4784 39.1647 24.0737 38.5341C24.7625 37.8775 25.2973 37.0765 25.6397 36.1886C25.8025 35.7351 25.863 35.2511 25.8168 34.7714C25.7538 34.3788 25.5649 34.0172 25.2787 33.7412C24.9924 33.4652 24.6242 33.2896 24.2295 33.2409C23.8456 33.1778 23.4515 33.2319 23.0989 33.3963C22.7462 33.5606 22.4512 33.8275 22.2526 34.162C22.0896 34.4171 21.9124 34.7147 21.5865 34.6155C21.3461 34.5255 21.1402 34.3618 20.9983 34.1479C20.7697 33.784 20.4294 33.5038 20.0284 33.3493C19.6273 33.1947 19.1871 33.1741 18.7733 33.2905C18.3487 33.4276 17.9814 33.7015 17.7288 34.0694C17.4763 34.4373 17.3527 34.8786 17.3774 35.3241H17.3703Z" fill="white" stroke="white" stroke-width="0.531448" stroke-miterlimit="10"/>
<path d="M24.7685 20.897C25.1228 20.897 25.385 20.897 25.6472 20.897C26.4508 20.9261 27.2124 21.263 27.7743 21.8382C28.3362 22.4133 28.6554 23.1825 28.6658 23.9865C28.6658 24.936 28.6658 25.8785 28.6658 26.8209C28.6716 27.0459 28.6319 27.2697 28.549 27.4789C28.4662 27.6882 28.3421 27.8785 28.1839 28.0387C28.0258 28.1988 27.837 28.3253 27.6288 28.4107C27.4206 28.4961 27.1973 28.5386 26.9723 28.5357C25.6826 28.5357 24.3859 28.5357 23.0892 28.5357C22.6711 28.5357 22.3806 28.309 22.3806 27.9618C22.3806 27.6145 22.6286 27.3453 23.0892 27.3382C23.6702 27.3382 24.2584 27.3382 24.889 27.3382C24.889 26.9981 24.889 26.6934 24.889 26.3887C24.8822 26.3054 24.8925 26.2216 24.9191 26.1424C24.9457 26.0632 24.9881 25.9903 25.0438 25.928C25.0995 25.8657 25.1672 25.8154 25.2429 25.7801C25.3186 25.7447 25.4007 25.7252 25.4842 25.7226C25.5677 25.7243 25.6499 25.743 25.726 25.7774C25.802 25.8119 25.8703 25.8614 25.9266 25.923C25.9829 25.9846 26.0261 26.0571 26.0536 26.1359C26.0811 26.2147 26.0923 26.2983 26.0865 26.3816C26.0865 26.6792 26.0865 26.9697 26.0865 27.2602C26.0865 27.2602 26.0865 27.2602 26.1361 27.324C26.3983 27.324 26.6889 27.324 26.9794 27.324C27.0443 27.3244 27.1085 27.311 27.1679 27.2849C27.2273 27.2587 27.2804 27.2202 27.3239 27.1721C27.3674 27.1239 27.4002 27.0671 27.4202 27.0053C27.4402 26.9436 27.4469 26.8783 27.44 26.8138C27.44 25.8147 27.44 24.8085 27.44 23.8094C27.3974 23.3803 27.2112 22.9782 26.9116 22.6683C26.6119 22.3583 26.2163 22.1586 25.7889 22.1016C25.6025 22.0909 25.4156 22.0909 25.2291 22.1016H18.0156C17.7111 22.0598 17.4011 22.0888 17.1096 22.1863C16.8181 22.2838 16.5531 22.4472 16.3351 22.6639C16.1171 22.8805 15.952 23.1445 15.8526 23.4354C15.7533 23.7262 15.7224 24.0361 15.7623 24.3408V26.665C15.7623 27.2035 15.9182 27.3736 16.4709 27.3736H17.1795C17.1795 27.0477 17.1795 26.743 17.1795 26.4454C17.1795 26.0202 17.4416 25.7368 17.803 25.7368C17.8887 25.7417 17.9725 25.7645 18.0488 25.8036C18.1252 25.8428 18.1926 25.8975 18.2466 25.9642C18.3007 26.0309 18.3402 26.1082 18.3626 26.191C18.3851 26.2739 18.39 26.3605 18.377 26.4454C18.377 26.7217 18.377 27.0051 18.377 27.2815C18.377 27.2815 18.377 27.2815 18.4337 27.3736C18.9014 27.3736 19.3974 27.3736 19.9005 27.3736C20.0582 27.3559 20.2175 27.3559 20.3752 27.3736C20.5176 27.3964 20.6456 27.4732 20.7327 27.588C20.8199 27.7029 20.8593 27.8469 20.8429 27.9901C20.8449 28.0613 20.8323 28.1322 20.8059 28.1985C20.7795 28.2647 20.7399 28.3248 20.6895 28.3752C20.6391 28.4256 20.579 28.4652 20.5128 28.4916C20.4465 28.518 20.3756 28.5306 20.3044 28.5286C18.8872 28.5286 17.47 28.5286 16.0174 28.5286C15.6402 28.4899 15.2896 28.3168 15.0294 28.0411C14.7692 27.7653 14.6169 27.4052 14.6002 27.0264C14.6002 25.921 14.5506 24.8085 14.6002 23.7031C14.6753 22.9933 14.9912 22.3306 15.4952 21.8252C15.9993 21.3199 16.6612 21.0023 17.3708 20.9254C17.7109 20.9254 18.0794 20.9254 18.4762 20.8758C17.9454 20.3793 17.5372 19.7662 17.2839 19.0849C17.0306 18.4037 16.939 17.6728 17.0165 16.9501C17.0735 16.3563 17.2483 15.7798 17.5305 15.2542C17.8128 14.7286 18.1969 14.2645 18.6604 13.889C19.5394 13.1522 20.66 12.7669 21.8063 12.8075C22.9525 12.848 24.0431 13.3116 24.8678 14.1087C25.3152 14.5564 25.6683 15.0893 25.9062 15.6759C26.144 16.2625 26.2618 16.8909 26.2526 17.5238C26.2433 18.1567 26.1072 18.7814 25.8523 19.3608C25.5974 19.9402 25.2289 20.4626 24.7685 20.897ZM21.6153 13.9953C21.164 13.9934 20.7167 14.0805 20.299 14.2515C19.8814 14.4224 19.5015 14.674 19.181 14.9918C18.8606 15.3097 18.6059 15.6875 18.4314 16.1037C18.257 16.52 18.1663 16.9665 18.1644 17.4178C18.1663 18.3287 18.529 19.2018 19.1731 19.8459C19.8172 20.49 20.6902 20.8526 21.6011 20.8545C22.0557 20.8583 22.5066 20.7719 22.9277 20.6006C23.3488 20.4292 23.7318 20.1761 24.0546 19.8559C24.3774 19.5358 24.6336 19.1549 24.8084 18.7352C24.9833 18.3155 25.0733 17.8654 25.0732 17.4107C25.0676 16.5029 24.7031 15.6343 24.0592 14.9943C23.4153 14.3544 22.5443 13.9953 21.6365 13.9953H21.6153Z" fill="white" stroke="white" stroke-width="0.531448" stroke-miterlimit="10"/>
<path d="M23.9463 6.5692H19.312C19.312 6.88098 19.312 7.17151 19.312 7.46204C19.314 7.79293 19.1858 8.11133 18.9552 8.3486C18.7245 8.58587 18.4099 8.72299 18.0791 8.73042C17.6397 8.73042 17.2004 8.73042 16.7611 8.73042C16.434 8.71932 16.1245 8.58012 15.8991 8.34285C15.6738 8.10557 15.5507 7.78922 15.5565 7.46204C15.5565 6.75344 15.5565 6.04484 15.5565 5.33625C15.1171 5.27247 14.5928 5.33624 14.5928 4.68433C14.5928 4.30168 14.8054 4.16705 15.5565 4.05368V2.15464C15.5351 1.96332 15.557 1.76964 15.6207 1.58796C15.6843 1.40628 15.788 1.24127 15.9242 1.10515C16.0603 0.969026 16.2253 0.865289 16.407 0.801635C16.5887 0.737982 16.7823 0.716041 16.9737 0.737442C17.335 0.737442 17.6823 0.737442 18.0578 0.737442C18.2219 0.735568 18.3846 0.766258 18.5367 0.827736C18.6888 0.889215 18.8272 0.980254 18.9438 1.09559C19.0605 1.21093 19.1531 1.34827 19.2163 1.49965C19.2795 1.65103 19.312 1.81344 19.312 1.97749C19.312 2.26801 19.312 2.55854 19.312 2.88449H23.9463V2.02708C23.9393 1.85585 23.9678 1.68504 24.0302 1.5254C24.0925 1.36577 24.1873 1.22079 24.3084 1.09961C24.4296 0.978434 24.5746 0.883681 24.7342 0.821346C24.8939 0.759012 25.0647 0.730445 25.2359 0.737442H26.4334C26.604 0.729561 26.7744 0.756998 26.9339 0.818027C27.0934 0.879056 27.2385 0.972366 27.3602 1.09211C27.482 1.21185 27.5777 1.35545 27.6413 1.5139C27.705 1.67235 27.7352 1.84224 27.7302 2.01292C27.7302 2.68609 27.7302 3.35217 27.7302 4.01825C27.7302 4.01825 27.7302 4.06076 27.7302 4.08911C28.4388 4.20248 28.6584 4.3442 28.6514 4.74102C28.6443 5.13783 28.4459 5.26538 27.6877 5.36459V6.78178C27.6877 7.01562 27.6877 7.25654 27.6877 7.49038C27.688 7.80779 27.5659 8.11311 27.3468 8.34277C27.1277 8.57243 26.8285 8.70875 26.5114 8.72334C26.0394 8.75226 25.5661 8.75226 25.0942 8.72334C24.7709 8.71048 24.4652 8.57245 24.2418 8.33842C24.0183 8.1044 23.8946 7.79269 23.8967 7.46912C23.9392 7.1786 23.9463 6.88807 23.9463 6.5692ZM16.754 7.50455H18.0791V1.95623H16.754V7.50455ZM26.5043 7.50455V1.94206H25.1792V7.50455H26.5043ZM19.3262 5.30081H23.9179V4.12454H19.3262V5.30081Z" fill="white" stroke="white" stroke-width="0.531448" stroke-miterlimit="10"/>
<path d="M10.0933 21.5631C10.0163 22.6863 9.68939 23.7781 9.1365 24.7589C8.5836 25.7396 7.81866 26.5845 6.89751 27.2319C5.92674 27.9405 5.2394 27.9405 4.2261 27.1823C3.4392 26.6357 2.7697 25.9371 2.25705 25.1276C1.74439 24.3182 1.39897 23.4144 1.24113 22.4694C1.0833 21.5243 1.11625 20.5573 1.33805 19.6252C1.55984 18.6931 1.96599 17.8149 2.53255 17.0422C3.12218 16.1442 3.93213 15.4123 4.8851 14.9164C5.10054 14.792 5.34492 14.7266 5.59369 14.7266C5.84246 14.7266 6.08685 14.792 6.30229 14.9164C6.79931 15.221 7.27301 15.5621 7.71949 15.9368C7.78042 15.9854 7.83022 16.0466 7.86553 16.1161C7.90084 16.1856 7.92085 16.2619 7.92421 16.3397C7.92757 16.4176 7.9142 16.4953 7.885 16.5676C7.85579 16.6399 7.81144 16.7051 7.75492 16.7588C7.6993 16.8175 7.63228 16.8643 7.55796 16.8963C7.48364 16.9283 7.40358 16.9448 7.32267 16.9448C7.24177 16.9448 7.16171 16.9283 7.08739 16.8963C7.01307 16.8643 6.94605 16.8175 6.89043 16.7588C6.66368 16.5746 6.4511 16.3691 6.18183 16.199C5.6433 15.8234 5.47323 15.8093 4.96304 16.199C4.27664 16.6786 3.69387 17.2916 3.24951 18.0014C2.80515 18.7112 2.5083 19.5031 2.37666 20.3301C1.99402 22.8244 3.08526 24.7376 4.99139 26.2398C5.47323 26.6225 5.63621 26.587 6.13932 26.2398C7.27574 25.4698 8.11738 24.3371 8.52668 23.0269C8.93598 21.7166 8.88873 20.3062 8.39266 19.0263C8.38973 19.0004 8.38973 18.9743 8.39266 18.9484C8.22968 18.5303 8.32888 18.2398 8.66192 18.0697C8.74174 18.0339 8.82839 18.0159 8.91586 18.017C9.00332 18.0181 9.0895 18.0382 9.1684 18.076C9.2473 18.1138 9.31703 18.1682 9.37274 18.2357C9.42845 18.3031 9.4688 18.3819 9.49098 18.4665C9.91378 19.4429 10.1193 20.4994 10.0933 21.5631Z" fill="white" stroke="white" stroke-width="0.531448" stroke-miterlimit="10"/>
<path d="M13.6505 7.56825C13.5287 7.77068 13.3784 7.95446 13.204 8.11388C11.2205 9.40588 9.54821 11.1217 8.30763 13.1378C8.27029 13.2166 8.21647 13.2865 8.14982 13.3427C8.08317 13.3989 8.00523 13.4402 7.92127 13.4637C7.83731 13.4872 7.74928 13.4924 7.66313 13.479C7.57698 13.4655 7.49471 13.4338 7.42188 13.3858C7.35267 13.3382 7.29407 13.2767 7.24977 13.2053C7.20546 13.1339 7.1764 13.054 7.16443 12.9709C7.15245 12.8877 7.1578 12.8029 7.18016 12.7219C7.20252 12.6409 7.24139 12.5654 7.29434 12.5001C8.61506 10.3261 10.4191 8.48569 12.5663 7.12183C12.7702 7.01782 13.0066 6.99748 13.2253 7.06514C13.3812 7.12183 13.4804 7.3911 13.6505 7.56825Z" fill="white" stroke="white" stroke-width="0.531448" stroke-miterlimit="10"/>
<path d="M7.87584 28.9893C8.03198 29.0743 8.17126 29.1872 8.28683 29.3223C9.54473 31.3518 11.2392 33.0753 13.247 34.3675C13.3218 34.4063 13.3876 34.4603 13.4402 34.5261C13.4928 34.5919 13.531 34.6679 13.5524 34.7494C13.5737 34.8309 13.5778 34.9159 13.5642 34.999C13.5507 35.0822 13.5199 35.1615 13.4738 35.232C13.4286 35.303 13.369 35.3636 13.2988 35.4098C13.2285 35.456 13.1493 35.4869 13.0663 35.5002C12.9833 35.5136 12.8983 35.5093 12.8171 35.4875C12.7359 35.4657 12.6602 35.4269 12.5951 35.3737C10.4421 33.9973 8.63366 32.1452 7.30897 29.96C7.00427 29.4994 7.24519 29.0034 7.87584 28.9893Z" fill="white" stroke="white" stroke-width="0.531448" stroke-miterlimit="10"/>
<path d="M30.2675 35.5722C30.0974 35.4375 29.8565 35.3312 29.7927 35.1541C29.7472 34.9441 29.7721 34.7249 29.8636 34.5305C29.8636 34.4242 30.0549 34.3604 30.1683 34.2825C32.0663 33.0321 33.6713 31.3859 34.8734 29.457C34.9266 29.3641 34.9882 29.2763 35.0576 29.1948C35.1468 29.0844 35.2742 29.0115 35.4146 28.9905C35.555 28.9695 35.6982 29.0019 35.8158 29.0814C35.94 29.1453 36.0349 29.2544 36.081 29.3863C36.1272 29.5181 36.121 29.6626 36.0638 29.79C36.0241 29.8894 35.9742 29.9843 35.915 30.0734C34.6136 32.1787 32.8645 33.9714 30.7918 35.3241C30.6219 35.4166 30.4468 35.4995 30.2675 35.5722Z" fill="white" stroke="white" stroke-width="0.531448" stroke-miterlimit="10"/>
<path d="M36.1626 12.9466C36.028 13.1096 35.9146 13.3576 35.7445 13.4143C35.5185 13.4415 35.2895 13.4021 35.0855 13.3009C34.9863 13.2584 34.9226 13.0954 34.8517 12.9891C33.6605 11.0816 32.0727 9.45276 30.1962 8.2132C30.1324 8.17068 30.0616 8.13525 29.9978 8.08564C29.9287 8.04382 29.8689 7.98837 29.822 7.92269C29.775 7.85701 29.7419 7.78246 29.7247 7.70358C29.7074 7.6247 29.7064 7.54314 29.7217 7.46386C29.737 7.38458 29.7682 7.30923 29.8136 7.24241C29.8548 7.17332 29.9103 7.11381 29.9763 7.06781C30.0423 7.02182 30.1173 6.99042 30.1964 6.97567C30.2755 6.96092 30.3569 6.96317 30.435 6.98229C30.5132 7.0014 30.5863 7.03694 30.6497 7.08653C31.2308 7.48334 31.8118 7.88724 32.3574 8.33366C33.7571 9.49048 34.9545 10.8722 35.9004 12.4223C35.9972 12.5922 36.0847 12.7672 36.1626 12.9466Z" fill="white" stroke="white" stroke-width="0.531448" stroke-miterlimit="10"/>
<path d="M6.84116 22.5411C6.70653 22.7324 6.61441 22.9521 6.45143 23.0371C6.36916 23.0742 6.30006 23.1354 6.25326 23.2125C6.20645 23.2897 6.18414 23.3792 6.18925 23.4693C6.18935 23.5434 6.17436 23.6168 6.14518 23.6849C6.11601 23.753 6.07326 23.8145 6.01955 23.8655C5.96585 23.9166 5.90231 23.9562 5.8328 23.9818C5.7633 24.0075 5.68929 24.0188 5.61529 24.015C5.54133 24.0218 5.46677 24.0134 5.39617 23.9904C5.32557 23.9673 5.26041 23.9301 5.20468 23.881C5.14896 23.8319 5.10384 23.772 5.0721 23.7049C5.04035 23.6377 5.02265 23.5648 5.02006 23.4906C5.02277 23.3937 4.99659 23.2981 4.94486 23.2161C4.89313 23.1341 4.81818 23.0693 4.72954 23.03C4.64052 22.9831 4.566 22.9127 4.51402 22.8266C4.46204 22.7404 4.43457 22.6417 4.43457 22.5411C4.43457 22.4404 4.46204 22.3417 4.51402 22.2556C4.566 22.1694 4.64052 22.0991 4.72954 22.0521C4.83144 22.0101 4.91587 21.9345 4.96874 21.8378C5.02161 21.7411 5.03972 21.6291 5.02006 21.5207C5.0059 21.3344 5.0059 21.1472 5.02006 20.9609C5.03972 20.8524 5.02161 20.7405 4.96874 20.6438C4.91587 20.5471 4.83144 20.4714 4.72954 20.4294C4.64074 20.3815 4.56657 20.3104 4.51488 20.2237C4.46319 20.137 4.43589 20.0379 4.43589 19.937C4.43589 19.836 4.46319 19.737 4.51488 19.6503C4.56657 19.5636 4.64074 19.4925 4.72954 19.4445C4.81629 19.4053 4.8895 19.3414 4.93995 19.2607C4.99039 19.18 5.0158 19.0861 5.01298 18.991C5.01461 18.9162 5.03162 18.8425 5.06295 18.7745C5.09427 18.7065 5.13925 18.6457 5.19508 18.5959C5.2509 18.5461 5.31639 18.5082 5.38746 18.4848C5.45853 18.4613 5.53367 18.4527 5.6082 18.4595C5.68255 18.4567 5.75672 18.4689 5.82625 18.4954C5.89578 18.5218 5.95924 18.5621 6.01284 18.6137C6.06643 18.6653 6.10906 18.7272 6.13816 18.7957C6.16725 18.8642 6.18222 18.9378 6.18216 19.0123C6.17809 19.1022 6.20173 19.1912 6.24989 19.2672C6.29805 19.3432 6.3684 19.4027 6.45143 19.4374C6.54643 19.4873 6.62599 19.5621 6.68149 19.6539C6.737 19.7457 6.76634 19.851 6.76634 19.9582C6.76634 20.0655 6.737 20.1707 6.68149 20.2625C6.62599 20.3543 6.54643 20.4292 6.45143 20.4791C6.33069 20.5749 6.24784 20.7105 6.21759 20.8617C6.19983 21.0597 6.19983 21.2589 6.21759 21.4569C6.21759 21.712 6.17508 21.9529 6.52229 22.0663C6.63567 22.1088 6.70653 22.3427 6.84116 22.5411Z" fill="white" stroke="white" stroke-width="0.531448" stroke-miterlimit="10"/>
</svg>
