<svg viewBox="0 0 37 44" fill="none" xmlns="http://www.w3.org/2000/svg">
<path d="M29.4917 31.7973C30.1278 31.1642 30.9114 30.6993 31.7718 30.4444C32.5591 30.2441 33.3898 30.3014 34.1421 30.6078C34.8944 30.9142 35.5287 31.4536 35.952 32.1469C36.3845 32.8351 36.58 33.6458 36.5086 34.4555C36.4373 35.2651 36.103 36.0292 35.5568 36.6311C33.8037 38.4704 32.0075 40.2691 30.1682 42.0273C29.759 42.4183 29.2607 42.7037 28.7164 42.8586C28.1721 43.0136 27.5982 43.0335 27.0444 42.9166C26.8713 42.8826 26.6932 42.8826 26.52 42.9166C25.757 43.0752 24.9642 43.0065 24.2399 42.719C24.1177 42.6881 23.9897 42.6881 23.8675 42.719C23.3402 42.8438 22.804 42.9277 22.2638 42.9698C16.4267 42.9698 10.5897 42.9698 4.78301 42.9698C4.25196 43.0001 3.72046 42.9186 3.22289 42.7306C2.72532 42.5426 2.27277 42.2522 1.89451 41.8782C1.51625 41.5043 1.2207 41.0551 1.027 40.5597C0.833299 40.0643 0.745751 39.5338 0.770021 39.0024C0.770021 37.0491 0.770021 35.0958 0.770021 33.1501C0.770021 27.3131 0.770021 21.4861 0.770021 15.6693C0.713475 14.6054 1.00888 13.5525 1.61058 12.6733C2.21229 11.7941 3.0868 11.1376 4.09897 10.8051C4.55373 10.6767 5.0193 10.5902 5.48984 10.5467C5.95346 10.4935 6.07506 10.3947 6.08266 9.91586C6.09027 9.43704 6.08266 9.06462 6.08266 8.6162H5.69505C5.27476 8.61643 4.87085 8.45319 4.56874 8.16101C4.26662 7.86882 4.08999 7.47059 4.07617 7.05053C4.07617 5.53046 4.07617 4.06359 4.07617 2.57392C4.0801 2.362 4.12601 2.15297 4.21122 1.9589C4.29644 1.76483 4.41929 1.58958 4.57265 1.44328C4.72602 1.29698 4.90687 1.18254 5.10474 1.10656C5.30261 1.03059 5.51358 0.994593 5.72545 1.00066C10.9444 1.00066 16.1607 1.00066 21.3746 1.00066C21.7908 0.990315 22.1944 1.1438 22.4986 1.42809C22.8028 1.71239 22.9832 2.10475 23.001 2.52073C23.0466 4.0408 23.0466 5.5482 23.001 7.04293C22.978 7.45036 22.8012 7.83385 22.5063 8.11599C22.2115 8.39812 21.8206 8.55788 21.4126 8.563C21.2986 8.563 21.177 8.563 21.0097 8.563C21.0097 9.09503 21.0097 9.58905 21.0097 10.0831C21.0097 10.4555 21.3138 10.5011 21.6178 10.5163C22.4487 10.5398 23.2591 10.7792 23.9694 11.211C24.6797 11.6428 25.2654 12.252 25.6688 12.9788C26.1303 13.7955 26.3566 14.7242 26.3224 15.6617C26.3224 18.6487 26.3224 21.628 26.3224 24.6149C26.3094 24.6842 26.3109 24.7553 26.3268 24.8239C26.3428 24.8925 26.3728 24.9571 26.4149 25.0135C26.457 25.0699 26.5104 25.117 26.5717 25.1518C26.633 25.1865 26.7008 25.2082 26.7708 25.2154C27.5795 25.4473 28.2883 25.941 28.7862 26.6191C29.2841 27.2972 29.543 28.1213 29.5221 28.9623C29.5069 29.9124 29.4917 30.8624 29.4917 31.7973ZM7.29872 8.5858C7.29872 9.11023 7.29872 9.58144 7.29872 10.0527C7.30276 10.2748 7.26249 10.4955 7.18027 10.7019C7.09805 10.9083 6.97553 11.0962 6.81986 11.2547C6.66419 11.4132 6.47849 11.5391 6.27362 11.625C6.06875 11.7109 5.84881 11.7552 5.62664 11.7551C5.13389 11.7514 4.64557 11.8484 4.19163 12.0401C3.73769 12.2318 3.3277 12.5143 2.98682 12.8701C2.64593 13.2259 2.38133 13.6477 2.20924 14.1094C2.03716 14.5711 1.96122 15.0632 1.98608 15.5553V38.9568C1.95975 39.3278 2.01384 39.7002 2.14465 40.0484C2.27546 40.3966 2.4799 40.7125 2.744 40.9744C3.00811 41.2364 3.32565 41.4382 3.67493 41.5661C4.02421 41.6941 4.39699 41.7451 4.76781 41.7157H22.7958C22.735 41.5941 22.7198 41.5409 22.6894 41.4953C22.1099 40.7566 21.8158 39.8338 21.861 38.896C21.861 37.7255 21.861 36.5627 21.861 35.3922C21.861 35.2326 21.861 35.0806 21.861 34.8906H4.87421C4.11417 34.8906 3.92417 34.731 3.92417 33.971V18.6335C3.92417 17.8734 4.11418 17.691 4.86661 17.691H22.1422C22.9022 17.691 23.0922 17.8658 23.0922 18.6639V25.451C23.0922 25.603 23.0922 25.755 23.0922 25.8538C23.6927 25.603 24.2703 25.3674 24.8403 25.0938C24.8926 25.0529 24.9353 25.0011 24.9655 24.9421C24.9957 24.883 25.0126 24.818 25.0151 24.7517C25.0151 21.6204 25.0531 18.4815 25.0151 15.3501C25.0222 14.8749 24.9346 14.4031 24.7574 13.9621C24.5801 13.5211 24.3169 13.1198 23.983 12.7817C23.6491 12.4435 23.2511 12.1752 22.8124 11.9924C22.3737 11.8097 21.903 11.7161 21.4278 11.7171C21.1975 11.7226 20.9685 11.6806 20.7551 11.5938C20.5417 11.507 20.3485 11.3772 20.1874 11.2126C20.0263 11.0479 19.9008 10.8519 19.8187 10.6366C19.7366 10.4214 19.6996 10.1916 19.7101 9.96146C19.7101 9.49784 19.7101 9.02662 19.7101 8.5478L7.29872 8.5858ZM21.8382 33.667V19.0135H5.20102V33.667H21.8382ZM13.493 7.30134H21.0934C21.6786 7.30134 21.785 7.19494 21.785 6.60211C21.785 5.34045 21.785 4.08639 21.785 2.80194C21.785 2.23951 21.671 2.1331 21.101 2.1331H5.96866C5.38343 2.1331 5.27703 2.2319 5.27703 2.83233C5.27703 4.07119 5.27703 5.31765 5.27703 6.55651C5.27703 7.17214 5.37583 7.27094 5.99906 7.27094L13.493 7.30134ZM23.1378 33.3629C24.7415 33.3629 26.3072 33.3629 27.8653 33.3629C27.9945 33.3629 28.2149 33.1045 28.2377 32.9449C28.2681 32.5478 28.2681 32.1488 28.2377 31.7517C28.2377 30.642 28.2377 29.5324 28.1693 28.4303C28.0864 27.8207 27.7783 27.2642 27.3057 26.8703C26.8331 26.4765 26.2301 26.2738 25.6156 26.3022C25.0096 26.298 24.4233 26.5175 23.9689 26.9185C23.5146 27.3196 23.2241 27.8741 23.1531 28.4759C23.077 30.1024 23.1378 31.7137 23.1378 33.3933V33.3629ZM32.4179 37.9231C33.1779 37.2011 33.9379 36.5019 34.698 35.7114C35.0989 35.2273 35.3035 34.6103 35.2711 33.9825C35.2387 33.3547 34.9718 32.762 34.5232 32.3217C34.0976 31.8695 33.5178 31.5935 32.8985 31.5485C32.2792 31.5034 31.6655 31.6926 31.179 32.0785C30.3658 32.7929 29.659 33.6517 28.9445 34.4194L32.4179 37.9231ZM27.8577 35.3238C27.1508 36.0231 26.406 36.6995 25.7296 37.4367C25.3066 37.9013 25.0722 38.5071 25.0722 39.1354C25.0722 39.7637 25.3066 40.3694 25.7296 40.8341C26.1299 41.3196 26.7005 41.634 27.3248 41.7131C27.9492 41.7922 28.5801 41.63 29.0889 41.2597C29.9372 40.5407 30.7489 39.7798 31.521 38.9796L27.8577 35.3238ZM24.5211 41.3585C24.5211 41.2977 24.4375 41.2369 24.4071 41.1761C23.9425 40.4397 23.7448 39.5661 23.8472 38.7014C23.9496 37.8367 24.3458 37.0334 24.9695 36.4259C25.4484 35.9243 25.95 35.4454 26.4364 34.9514C26.52 34.8678 26.596 34.769 26.6948 34.655H23.1378C23.1378 36.2967 23.0846 37.9231 23.1378 39.5344C23.1609 39.9466 23.3073 40.3423 23.558 40.6703C23.8087 40.9983 24.1522 41.2433 24.5439 41.3737L24.5211 41.3585Z" fill="white" stroke="white" stroke-width="0.570026" stroke-miterlimit="10"/>
<path d="M8.32456 40.8417C8.01295 40.8417 7.70133 40.8417 7.39732 40.8417C7.31548 40.8419 7.23447 40.8252 7.1594 40.7926C7.08434 40.76 7.01683 40.7122 6.96114 40.6523C6.90545 40.5923 6.86278 40.5214 6.83582 40.4442C6.80886 40.3669 6.7982 40.2849 6.80449 40.2033C6.80119 40.1249 6.81433 40.0467 6.84306 39.9737C6.87178 39.9007 6.91547 39.8345 6.9713 39.7794C7.02713 39.7242 7.09388 39.6814 7.16724 39.6536C7.24061 39.6258 7.31898 39.6137 7.39732 39.618C8.02815 39.618 8.66658 39.618 9.29741 39.618C9.37624 39.6155 9.4547 39.6298 9.52756 39.66C9.60043 39.6902 9.66601 39.7356 9.71996 39.7931C9.7739 39.8506 9.81495 39.919 9.84038 39.9937C9.86582 40.0683 9.87504 40.1476 9.86743 40.2261C9.87374 40.3047 9.86367 40.3837 9.83787 40.4582C9.81206 40.5327 9.77107 40.6011 9.7175 40.6589C9.66392 40.7168 9.59893 40.7629 9.52662 40.7944C9.45431 40.8258 9.37626 40.8419 9.29741 40.8417C8.97059 40.8645 8.65138 40.8417 8.32456 40.8417Z" fill="white" stroke="white" stroke-width="0.570026" stroke-miterlimit="10"/>
<path d="M16.8218 23.9537C17.4483 24.6579 17.8281 25.5472 17.9036 26.4867C17.979 27.4263 17.746 28.3648 17.2398 29.1599C16.7232 29.978 15.9493 30.6012 15.0399 30.9314C14.1305 31.2616 13.1371 31.2801 12.216 30.984C11.3064 30.6941 10.5169 30.1144 9.96787 29.3335C9.41888 28.5526 9.14069 27.6133 9.17581 26.6594C9.21496 25.678 9.58701 24.7392 10.2307 23.9974C10.8744 23.2556 11.7515 22.755 12.7176 22.578C13.1052 22.5096 13.2876 22.388 13.3712 21.9776C13.4958 21.4927 13.669 21.0217 13.888 20.5715C14.1084 20.0699 14.4125 19.9255 14.7773 20.0851C15.1421 20.2447 15.2105 20.5487 15.0281 21.0959C15.4005 21.0047 15.7881 20.8907 16.1225 20.8299C16.3879 20.8033 16.6552 20.8033 16.9206 20.8299C17.8098 20.8907 18.0758 21.2327 17.7718 22.0688C17.4909 22.7145 17.1737 23.3438 16.8218 23.9537ZM13.5688 29.9504C14.3894 29.9444 15.1747 29.6158 15.7549 29.0355C16.3352 28.4553 16.6638 27.67 16.6698 26.8494C16.6708 26.4396 16.5909 26.0335 16.4347 25.6546C16.2786 25.2756 16.0492 24.9312 15.7597 24.641C15.4703 24.3509 15.1264 24.1207 14.7479 23.9636C14.3693 23.8065 13.9635 23.7257 13.5536 23.7257C13.1431 23.7247 12.7365 23.8048 12.357 23.9614C11.9776 24.118 11.6328 24.3481 11.3426 24.6384C11.0523 24.9286 10.8222 25.2734 10.6656 25.6528C10.509 26.0323 10.4289 26.4389 10.4299 26.8494C10.4339 27.6719 10.7629 28.4595 11.3452 29.0404C11.9275 29.6212 12.7159 29.9484 13.5384 29.9504H13.5688ZM15.0889 22.5856C15.7425 23.11 16.2669 22.8364 16.4417 21.9092L15.0889 22.5856Z" fill="white" stroke="white" stroke-width="0.570026" stroke-miterlimit="10"/>
<path d="M7.39788 4.78565C7.39788 5.12766 7.39788 5.46208 7.39788 5.80409C7.40308 5.88608 7.3914 5.96827 7.36356 6.04556C7.33573 6.12285 7.29232 6.19361 7.23604 6.25345C7.17976 6.31329 7.1118 6.36095 7.03636 6.39347C6.96092 6.426 6.87961 6.44268 6.79745 6.44252C6.71195 6.44513 6.62687 6.42944 6.54793 6.3965C6.46898 6.36356 6.39798 6.31412 6.33969 6.25151C6.2814 6.1889 6.23716 6.11457 6.20993 6.03347C6.18271 5.95238 6.17312 5.86639 6.18183 5.78129C6.18183 5.08966 6.18183 4.39803 6.18183 3.7064C6.17553 3.6248 6.1862 3.54278 6.21316 3.4655C6.24012 3.38823 6.28279 3.31738 6.33848 3.2574C6.39417 3.19743 6.46167 3.14963 6.53674 3.11703C6.61181 3.08443 6.69281 3.06772 6.77465 3.06796C6.86032 3.0635 6.94596 3.07721 7.02596 3.1082C7.10595 3.1392 7.17847 3.18676 7.23877 3.24778C7.29907 3.30879 7.34578 3.38188 7.37582 3.46223C7.40586 3.54258 7.41856 3.62839 7.41308 3.714C7.41308 4.07881 7.39788 4.43603 7.39788 4.78565Z" fill="white" stroke="white" stroke-width="0.570026" stroke-miterlimit="10"/>
<path d="M12.9005 4.77052C12.9005 4.43611 12.9005 4.09409 12.9005 3.75967C12.8943 3.67497 12.9053 3.58988 12.9328 3.50952C12.9603 3.42916 13.0037 3.35517 13.0605 3.29201C13.1172 3.22884 13.1862 3.1778 13.2632 3.14193C13.3402 3.10605 13.4236 3.08609 13.5085 3.08324C13.5936 3.08087 13.6783 3.0964 13.757 3.12882C13.8357 3.16124 13.9067 3.20984 13.9655 3.27145C14.0242 3.33307 14.0694 3.40634 14.098 3.48651C14.1267 3.56669 14.1381 3.65198 14.1317 3.73687C14.1317 4.42091 14.1317 5.12014 14.1317 5.80417C14.1369 5.88616 14.1252 5.96834 14.0974 6.04564C14.0696 6.12293 14.0262 6.19368 13.9699 6.25353C13.9136 6.31337 13.8456 6.36103 13.7702 6.39355C13.6948 6.42607 13.6135 6.44276 13.5313 6.4426C13.4459 6.44619 13.3607 6.43149 13.2814 6.39949C13.2021 6.36749 13.1305 6.31892 13.0715 6.25704C13.0125 6.19516 12.9674 6.12139 12.9392 6.04067C12.911 5.95995 12.9004 5.87413 12.9081 5.78897C12.8853 5.45455 12.9005 5.11254 12.9005 4.77052Z" fill="white" stroke="white" stroke-width="0.570026" stroke-miterlimit="10"/>
<path d="M20.8727 4.79327C20.8727 5.12769 20.8727 5.46971 20.8727 5.80412C20.8779 5.88611 20.8662 5.9683 20.8383 6.04559C20.8105 6.12288 20.7671 6.19363 20.7108 6.25348C20.6545 6.31332 20.5866 6.36098 20.5111 6.3935C20.4357 6.42603 20.3544 6.44271 20.2722 6.44255C20.1865 6.44601 20.101 6.4313 20.0214 6.39936C19.9417 6.36743 19.8698 6.319 19.8102 6.25726C19.7506 6.19552 19.7047 6.12188 19.6757 6.04116C19.6466 5.96044 19.6349 5.87447 19.6414 5.78892C19.6414 5.09729 19.6414 4.40566 19.6414 3.71403C19.6361 3.63239 19.6478 3.55055 19.6758 3.47366C19.7037 3.39677 19.7472 3.3265 19.8036 3.26724C19.86 3.20799 19.928 3.16105 20.0035 3.12938C20.0789 3.0977 20.16 3.08198 20.2418 3.0832C20.5914 3.0832 20.8347 3.31881 20.8727 3.72923C20.8727 3.72923 20.8727 3.79003 20.8727 3.82043V4.79327Z" fill="white" stroke="white" stroke-width="0.570026" stroke-miterlimit="10"/>
<path d="M8.41583 4.76285C8.41583 4.41323 8.41583 4.05601 8.41583 3.7064C8.41161 3.62473 8.42432 3.54307 8.45318 3.46656C8.48205 3.39004 8.52642 3.32033 8.58353 3.26179C8.64064 3.20326 8.70924 3.15717 8.78501 3.12643C8.86079 3.09569 8.94211 3.08096 9.02386 3.08316C9.10221 3.07799 9.1808 3.08885 9.25481 3.11508C9.32883 3.1413 9.39672 3.18235 9.45434 3.2357C9.51196 3.28905 9.55809 3.35359 9.58993 3.42537C9.62176 3.49716 9.63862 3.57467 9.63949 3.65319C9.63949 4.41322 9.63949 5.12766 9.63949 5.86489C9.63793 5.94657 9.61928 6.02702 9.58476 6.10106C9.55023 6.1751 9.50058 6.24108 9.43901 6.29478C9.37744 6.34847 9.30532 6.38868 9.22727 6.41282C9.14922 6.43695 9.06699 6.44448 8.98586 6.43492C8.90799 6.43198 8.83146 6.41372 8.76065 6.38118C8.68985 6.34864 8.62615 6.30246 8.57321 6.24528C8.52027 6.1881 8.47912 6.12105 8.45211 6.04796C8.42511 5.97486 8.41278 5.89716 8.41583 5.81929V4.76285Z" fill="white" stroke="white" stroke-width="0.570026" stroke-miterlimit="10"/>
<path d="M15.1498 4.75517C15.1498 4.40555 15.1498 4.04834 15.1498 3.69872C15.1447 3.62037 15.1555 3.54179 15.1818 3.46777C15.208 3.39376 15.249 3.32586 15.3024 3.26824C15.3557 3.21063 15.4203 3.1645 15.4921 3.13266C15.5638 3.10083 15.6414 3.08396 15.7199 3.0831C15.8014 3.07467 15.8838 3.08325 15.9619 3.10828C16.0399 3.13332 16.1119 3.17428 16.1734 3.22856C16.2348 3.28284 16.2843 3.34927 16.3187 3.42366C16.3532 3.49804 16.3718 3.57877 16.3735 3.66073C16.3735 4.42076 16.3735 5.13519 16.3735 5.87242C16.3739 5.95098 16.3577 6.02874 16.3262 6.10069C16.2947 6.17264 16.2484 6.23719 16.1904 6.29018C16.1324 6.34316 16.064 6.38341 15.9895 6.40833C15.915 6.43325 15.8361 6.44228 15.7579 6.43485C15.6765 6.43947 15.5951 6.42659 15.5191 6.39707C15.4432 6.36755 15.3744 6.32209 15.3175 6.26375C15.2606 6.2054 15.2169 6.13553 15.1893 6.05885C15.1616 5.98217 15.1508 5.90045 15.1574 5.81923C15.1422 5.46201 15.1498 5.11239 15.1498 4.75517Z" fill="white" stroke="white" stroke-width="0.570026" stroke-miterlimit="10"/>
<path d="M11.8819 4.77054C11.8819 5.12775 11.8819 5.47738 11.8819 5.83459C11.885 5.91271 11.8723 5.99064 11.8448 6.06379C11.8172 6.13694 11.7753 6.20384 11.7214 6.26051C11.6676 6.31719 11.6029 6.3625 11.5313 6.39378C11.4597 6.42506 11.3825 6.44166 11.3043 6.44261C11.223 6.44883 11.1412 6.43841 11.064 6.41198C10.9869 6.38556 10.9159 6.34369 10.8554 6.28893C10.795 6.23416 10.7463 6.16765 10.7124 6.09346C10.6785 6.01926 10.6601 5.93895 10.6583 5.85739C10.6583 5.13789 10.6583 4.41586 10.6583 3.69129C10.6522 3.6089 10.6643 3.52617 10.6938 3.449C10.7233 3.37183 10.7695 3.30211 10.8289 3.24479C10.8884 3.18747 10.9598 3.14396 11.0381 3.11736C11.1163 3.09075 11.1994 3.08171 11.2815 3.09087C11.3636 3.08611 11.4457 3.09915 11.5222 3.12912C11.5988 3.15908 11.668 3.20524 11.725 3.26444C11.782 3.32364 11.8256 3.39448 11.8527 3.47209C11.8798 3.5497 11.8897 3.63226 11.8819 3.71409C11.8971 4.06371 11.8895 4.42092 11.8819 4.77054Z" fill="white" stroke="white" stroke-width="0.570026" stroke-miterlimit="10"/>
<path d="M18.6232 4.77798C18.6232 5.13519 18.6232 5.48482 18.6232 5.84203C18.6274 5.91971 18.6155 5.99741 18.5882 6.07024C18.5608 6.14307 18.5187 6.20944 18.4644 6.26516C18.4101 6.32087 18.3449 6.36472 18.2728 6.39393C18.2007 6.42314 18.1233 6.43708 18.0456 6.43486C17.9672 6.44569 17.8875 6.43965 17.8117 6.41715C17.7359 6.39464 17.6657 6.3562 17.606 6.30438C17.5462 6.25256 17.4983 6.18856 17.4653 6.11669C17.4323 6.04481 17.4151 5.96671 17.4147 5.88763C17.3767 5.1276 17.3767 4.36756 17.4147 3.60753C17.4164 3.52855 17.4344 3.45078 17.4677 3.37916C17.501 3.30753 17.5489 3.2436 17.6082 3.19143C17.6675 3.13926 17.737 3.09999 17.8123 3.07611C17.8876 3.05223 17.967 3.04426 18.0456 3.05271C18.1236 3.05056 18.2013 3.06448 18.2738 3.09361C18.3463 3.12274 18.412 3.16646 18.4669 3.22205C18.5218 3.27764 18.5646 3.34392 18.5928 3.41677C18.621 3.48961 18.6339 3.56748 18.6308 3.64553C18.6384 4.04075 18.6232 4.41316 18.6232 4.77798Z" fill="white" stroke="white" stroke-width="0.570026" stroke-miterlimit="10"/>
</svg>
