<svg viewBox="0 0 43 43" fill="none" xmlns="http://www.w3.org/2000/svg"><path d="M14.836.375h1.062c.057.031.117.057.18.076a4.06 4.06 0 0 1 3.074 2.461.358.358 0 0 0 .4.242h3.337a2.068 2.068 0 0 1 1.923 1.13.42.42 0 0 0 .441.262h2.069c.34-.01.679.016 1.013.076a2.068 2.068 0 0 1 1.586 2.255v10.74a1.324 1.324 0 0 0 .475 1.207c.235.194.433.427.586.69.27.462.504.937.738 1.378.345-.579.69-1.192 1.055-1.758a8.633 8.633 0 0 1 2.978-2.66.689.689 0 0 1 1.096.496.806.806 0 0 1-.434.73 18.01 18.01 0 0 0-1.579 1.207 6.735 6.735 0 0 0-2.227 4.398 3.702 3.702 0 0 1 2.696-.73h.69a6.157 6.157 0 0 1 5.798 3.75c.288.711.519 1.444.689 2.192v4.64a2.525 2.525 0 0 0-.076.31 9.652 9.652 0 0 1-.938 3.268 9.01 9.01 0 0 1-5.811 4.957c-2.069.566-4.137.38-6.205.221a5.068 5.068 0 0 0-.793 0c-.317 0-.634.138-.958.138H3.054A2.11 2.11 0 0 1 .75 39.748V6.863a2.13 2.13 0 0 1 2.317-2.337h2.364a.503.503 0 0 0 .386-.18A2.2 2.2 0 0 1 7.956 3.14h3.095a.551.551 0 0 0 .531-.317A9.65 9.65 0 0 1 12.72 1.32a4.233 4.233 0 0 1 2.116-.945Zm-9.9 8.377V37.88h18.228v-.097c0-.02-.117-.213-.179-.317a8.066 8.066 0 0 1-1.206-3.385 49.583 49.583 0 0 1-.125-5.357 6.255 6.255 0 0 1 2.53-4.764c.345-.275.69-.503 1.09-.751-.207-.248-.414-.455-.586-.69a6.204 6.204 0 0 1-.93-4.35.952.952 0 0 1 .847-.937c.372-.076.745-.131 1.138-.193V8.64c-.324.09-.745.083-.848.262a2.289 2.289 0 0 1-2.22 1.214H7.5a1.765 1.765 0 0 1-1.496-.924c-.262-.53-.566-.53-1.069-.441Zm17.973 22.165h.076v1.303c-.019 1.36.28 2.706.876 3.93a7.438 7.438 0 0 0 5.605 4.37c1.199.134 2.406.185 3.612.152a7.803 7.803 0 0 0 7.646-6.012c.46-2.085.533-4.238.214-6.35a4.936 4.936 0 0 0-4.33-4.28 14.682 14.682 0 0 0-1.91-.035 1.958 1.958 0 0 0-1.964 1.84v.897a.688.688 0 0 1-.964.675.69.69 0 0 1-.415-.675v-.896a1.993 1.993 0 0 0-1.972-1.848h-1.179A4.95 4.95 0 0 0 23.219 28c-.159.966-.262 1.94-.31 2.917Zm3.068 9.762c-.482-.4-.91-.73-1.303-1.096a.994.994 0 0 0-.751-.297H5.308c-1.254 0-1.758-.503-1.758-1.75V8.634a1.379 1.379 0 0 1 1.2-1.29c.269-.034.538-.034.82-.048V5.918H3.206c-.876 0-1.069.2-1.069 1.083v32.596c0 .916.186 1.103 1.09 1.103h22.75v-.021ZM15.367 8.71h7.404c.69 0 .903-.24.91-.91.007-.668 0-1.516 0-2.282 0-.765-.234-.972-.972-.979h-3.785c-.544 0-.737-.144-.903-.69a2.758 2.758 0 0 0-2.682-2.067 2.8 2.8 0 0 0-2.675 2.068c-.193.6-.358.724-1 .724H7.88c-.614 0-.862.255-.869.862v2.323c0 .779.2.979.993.979l7.363-.028Zm13.099 8.75a.617.617 0 0 0 0-.111V6.697c0-.517-.276-.758-.841-.765h-2.358a1.47 1.47 0 0 0-.255.048v1.317h.324c1.296 0 1.751.49 1.751 1.786v7.99l1.379.386Zm-3.385 1.095c-.105.9.026 1.813.38 2.648a2.372 2.372 0 0 0 2.247 1.42c.965 0 1.93.055 2.881.083-.165-2.703-2.137-4.744-5.474-4.15h-.034Z" fill="#fff" stroke="#fff" stroke-width=".345" stroke-miterlimit="10"/><path d="M8.735 35.805H7.673a1.276 1.276 0 0 1-1.317-1.138 17.596 17.596 0 0 1 0-2.558 1.213 1.213 0 0 1 1.2-1.123 21.308 21.308 0 0 1 2.392 0 1.29 1.29 0 0 1 1.213 1.296v2.199a1.379 1.379 0 0 1-1.33 1.317c-.366.014-.731.007-1.096.007Zm1.027-1.38v-2.067H7.694v2.068h2.068ZM11.175 14.633v1.013a1.379 1.379 0 0 1-1.379 1.379c-.717.037-1.434.037-2.15 0a1.33 1.33 0 0 1-1.38-1.317 19.378 19.378 0 0 1 0-2.192 1.379 1.379 0 0 1 1.441-1.345h1.958a1.379 1.379 0 0 1 1.455 1.462l.055 1Zm-1.42 1.02v-2.068H7.728v2.068h2.027ZM8.763 18.452h1.054a1.38 1.38 0 0 1 1.38 1.31v2.2a1.31 1.31 0 0 1-1.249 1.316 19.98 19.98 0 0 1-2.316 0 1.29 1.29 0 0 1-1.276-1.282 17.927 17.927 0 0 1 0-2.275 1.33 1.33 0 0 1 1.38-1.276h1.02l.007.007Zm-1.048 3.447h2.068v-2.027H7.715V21.9ZM11.175 27.09v1.014a1.377 1.377 0 0 1-1.427 1.448H7.68a1.379 1.379 0 0 1-1.38-1.338v-2.158a1.379 1.379 0 0 1 1.38-1.344h2.068a1.379 1.379 0 0 1 1.379 1.379c.055.344.048.668.048 1Zm-3.447 1.035h2.068v-1.993H7.728v1.992ZM18.118 14.28h4.557c.146-.016.294-.016.441 0a.613.613 0 0 1 .538.58.607.607 0 0 1-.414.69c-.18.06-.369.085-.558.075h-9.356a.73.73 0 0 1-.758-.69.69.69 0 0 1 .793-.689l4.757.035ZM17.077 21.92h-3.448c-.146.01-.294.01-.44 0a.648.648 0 0 1-.607-.655.69.69 0 0 1 .606-.69c.15-.01.3-.01.448 0h6.895c.69 0 1.034.214 1.048.69.013.475-.331.69-1.055.69l-3.447-.035ZM16.387 28.166H13.58c-.135.01-.271.01-.407 0a.69.69 0 0 1-.6-.655.634.634 0 0 1 .531-.69 1.92 1.92 0 0 1 .441-.048h5.943a.69.69 0 0 1 .464 1.203.69.69 0 0 1-.533.176h-3.054l.02.014ZM16.367 34.419h-2.93c-.545 0-.876-.276-.869-.69.007-.413.33-.689.848-.689h5.936c.648 0 1.027.503.772 1a.751.751 0 0 1-.744.386c-1.007-.014-2.014-.007-3.013-.007ZM24.385 29.186a4.088 4.088 0 0 1 2.337-3.654c.168-.086.356-.126.545-.117a.634.634 0 0 1 .565.559.69.69 0 0 1-.428.751 2.502 2.502 0 0 0-1.378 1.427 6.405 6.405 0 0 0-.27 1.31c-.075.517-.344.814-.744.786-.4-.028-.655-.372-.627-1.062ZM17.042 7.318h-4.137a2.31 2.31 0 0 1-.489 0 .62.62 0 0 1-.517-.593.62.62 0 0 1 .434-.69c.17-.05.347-.074.524-.068h8.439c.148-.004.296.01.441.04a.627.627 0 0 1 .524.69.627.627 0 0 1-.593.614c-.202.01-.404.01-.607 0l-4.019.007ZM9.417 7.31c-.69 0-1-.2-1.013-.689-.014-.49.338-.689 1.013-.689.162-.006.324.006.483.034a.648.648 0 0 1 .558.724.648.648 0 0 1-.641.62c-.131.008-.241 0-.4 0Z" fill="#fff" stroke="#fff" stroke-width=".345" stroke-miterlimit="10"/></svg>