<svg width="44" height="44" viewBox="0 0 44 44" fill="none" xmlns="http://www.w3.org/2000/svg">
<path d="M26.0725 42.0377H18.0725C17.5966 41.8954 17.1906 41.5811 16.9337 41.1559C16.6767 40.7307 16.5872 40.2252 16.6825 39.7376C16.6825 39.2776 16.6825 38.8276 16.6825 38.3676C16.6825 37.4976 16.6825 37.4976 15.8825 37.1676C15.7238 37.1102 15.5699 37.0399 15.4225 36.9576C15.3779 36.9237 15.3267 36.8993 15.2723 36.8859C15.2178 36.8725 15.1612 36.8704 15.1059 36.8798C15.0506 36.8892 14.9978 36.9098 14.9507 36.9404C14.9037 36.971 14.8635 37.0109 14.8325 37.0576C14.3125 37.6076 13.7725 38.1376 13.2325 38.6676C13.0626 38.8628 12.8529 39.0192 12.6174 39.1264C12.3819 39.2335 12.1262 39.289 11.8675 39.289C11.6088 39.289 11.3531 39.2335 11.1176 39.1264C10.8822 39.0192 10.6724 38.8628 10.5025 38.6676C8.83253 37.0176 7.16253 35.3476 5.50253 33.6676C5.31077 33.4978 5.15723 33.2892 5.05208 33.0556C4.94693 32.822 4.89256 32.5688 4.89256 32.3126C4.89256 32.0565 4.94693 31.8032 5.05208 31.5697C5.15723 31.3361 5.31077 31.1275 5.50253 30.9577C5.91253 30.5277 6.34253 30.1176 6.76253 29.6876C7.35253 29.0976 7.35253 29.0977 7.02253 28.3177C7.02253 28.2077 6.93253 28.0976 6.90253 27.9876C6.89451 27.9063 6.86937 27.8275 6.82876 27.7565C6.78814 27.6855 6.73297 27.6239 6.66686 27.5757C6.60075 27.5276 6.52521 27.4939 6.44519 27.477C6.36516 27.4601 6.28246 27.4603 6.20253 27.4777C5.48253 27.5277 4.77253 27.4777 4.05253 27.4777C3.79741 27.4907 3.5424 27.4499 3.3041 27.3579C3.06579 27.2658 2.84952 27.1247 2.66936 26.9436C2.4892 26.7625 2.34918 26.5455 2.25841 26.3067C2.16765 26.0679 2.12816 25.8127 2.14253 25.5577V18.4976C2.12816 18.2426 2.16765 17.9874 2.25841 17.7486C2.34918 17.5098 2.4892 17.2928 2.66936 17.1117C2.84952 16.9306 3.06579 16.7895 3.3041 16.6974C3.5424 16.6054 3.79741 16.5646 4.05253 16.5776H5.77253C6.68253 16.5776 6.68253 16.5776 7.03253 15.7476C7.09558 15.5766 7.16905 15.4097 7.25253 15.2476C7.38253 15.0476 7.31253 14.9077 7.15253 14.7577C6.60253 14.2177 6.06253 13.6776 5.52253 13.1276C5.32742 12.9578 5.17101 12.748 5.06383 12.5125C4.95664 12.2771 4.90117 12.0214 4.90117 11.7626C4.90117 11.5039 4.95664 11.2482 5.06383 11.0128C5.17101 10.7773 5.32742 10.5676 5.52253 10.3977C7.17253 8.72765 8.84253 7.05765 10.5225 5.39765C10.6924 5.20255 10.9022 5.04613 11.1376 4.93894C11.3731 4.83176 11.6288 4.7763 11.8875 4.7763C12.1462 4.7763 12.402 4.83176 12.6374 4.93894C12.8729 5.04613 13.0826 5.20255 13.2525 5.39765L14.4425 6.57765C15.0825 7.22765 15.0825 7.21764 15.9125 6.88764C16.0767 6.80962 16.2473 6.74606 16.4225 6.69766C16.6525 6.63766 16.7025 6.49765 16.7025 6.26765C16.7025 5.51765 16.7025 4.75765 16.7025 4.00765C16.6779 3.73886 16.7128 3.46794 16.8046 3.21412C16.8964 2.9603 17.0429 2.72978 17.2338 2.53892C17.4247 2.34806 17.6552 2.20153 17.909 2.10972C18.1628 2.01791 18.4337 1.98306 18.7025 2.00765H25.6025C25.8713 1.98306 26.1422 2.01791 26.3961 2.10972C26.6499 2.20153 26.8804 2.34806 27.0713 2.53892C27.2621 2.72978 27.4087 2.9603 27.5005 3.21412C27.5923 3.46794 27.6271 3.73886 27.6025 4.00765C27.6025 4.76765 27.6025 5.53766 27.6025 6.30766C27.6167 6.38058 27.6452 6.44995 27.6864 6.51176C27.7276 6.57356 27.7807 6.62655 27.8425 6.66764C28.2025 6.84764 28.5825 6.97765 28.9525 7.14765C29.0228 7.18805 29.1054 7.20119 29.1847 7.18459C29.264 7.168 29.3344 7.12283 29.3825 7.05766L31.0325 5.39765C31.2034 5.19895 31.4151 5.03947 31.6533 4.93015C31.8915 4.82083 32.1505 4.76425 32.4125 4.76425C32.6746 4.76425 32.9336 4.82083 33.1717 4.93015C33.4099 5.03947 33.6217 5.19895 33.7925 5.39765C35.4525 7.03765 37.0925 8.68766 38.7325 10.3377C38.9349 10.5094 39.0974 10.7232 39.2089 10.9641C39.3204 11.205 39.3781 11.4672 39.3781 11.7326C39.3781 11.9981 39.3204 12.2603 39.2089 12.5012C39.0974 12.7421 38.9349 12.9559 38.7325 13.1276C38.1925 13.6676 37.6525 14.2176 37.1025 14.7476C37.0331 14.7946 36.9842 14.8662 36.9656 14.9479C36.947 15.0296 36.9602 15.1153 37.0025 15.1876C37.1725 15.5476 37.3225 15.9176 37.4625 16.2976C37.4817 16.3781 37.5303 16.4484 37.5988 16.4947C37.6673 16.541 37.7508 16.5599 37.8325 16.5476C38.5025 16.5476 39.1625 16.5476 39.8325 16.5476C40.3337 16.4534 40.8519 16.554 41.2813 16.8291C41.7107 17.1042 42.0187 17.533 42.1425 18.0276V26.0276C42.0187 26.5223 41.7107 26.9511 41.2813 27.2262C40.8519 27.5013 40.3337 27.6019 39.8325 27.5077C39.3825 27.5077 38.9225 27.5077 38.4725 27.5077C37.6025 27.5077 37.6025 27.5076 37.2725 28.2976C37.2125 28.4376 37.1525 28.5876 37.0825 28.7176C37.0427 28.7663 37.0136 28.8229 36.9969 28.8835C36.9803 28.9442 36.9766 29.0077 36.986 29.0698C36.9954 29.132 37.0178 29.1916 37.0517 29.2446C37.0855 29.2976 37.1301 29.3429 37.1825 29.3776C37.7425 29.8876 38.2625 30.4377 38.7925 30.9777C38.9791 31.1464 39.1283 31.3524 39.2303 31.5823C39.3324 31.8123 39.3851 32.0611 39.3851 32.3126C39.3851 32.5642 39.3324 32.813 39.2303 33.043C39.1283 33.2729 38.9791 33.4789 38.7925 33.6477C37.1225 35.3477 35.4325 37.0276 33.7925 38.6976C33.6246 38.8856 33.4189 39.036 33.1889 39.139C32.9588 39.242 32.7096 39.2952 32.4575 39.2952C32.2055 39.2952 31.9563 39.242 31.7262 39.139C31.4962 39.036 31.2904 38.8856 31.1225 38.6976C30.7125 38.3076 30.3325 37.9076 29.9325 37.5176C29.7025 37.2876 29.4925 36.9576 29.2125 36.8876C28.9325 36.8176 28.6725 37.0876 28.4025 37.1976C28.2359 37.2697 28.0657 37.3331 27.8925 37.3876C27.6925 37.3876 27.6425 37.5576 27.6425 37.7576C27.6425 38.4176 27.6425 39.0776 27.6425 39.7576C27.7254 40.2668 27.6083 40.7883 27.3157 41.2132C27.0232 41.638 26.5778 41.9334 26.0725 42.0377V42.0377Z" stroke="white" stroke-width="3" stroke-miterlimit="10"/>
<path d="M19.9628 22.3677L25.3928 16.9277C25.6421 16.6456 25.9507 16.4222 26.2965 16.2736C26.6423 16.1249 27.0167 16.0546 27.3928 16.0677C27.841 16.0722 28.2781 16.207 28.651 16.4556C29.0238 16.7041 29.3163 17.0558 29.4928 17.4677C29.6915 17.8614 29.7718 18.3043 29.7239 18.7427C29.676 19.1811 29.5019 19.5962 29.2229 19.9377C29.0865 20.1193 28.936 20.2898 28.7728 20.4477L21.9628 27.2577C21.7312 27.57 21.4297 27.8237 21.0824 27.9986C20.7351 28.1734 20.3517 28.2645 19.9628 28.2645C19.574 28.2645 19.1906 28.1734 18.8433 27.9986C18.496 27.8237 18.1945 27.57 17.9628 27.2577C16.9628 26.2577 15.9628 25.2577 14.9628 24.2577C14.6568 23.9626 14.4336 23.5923 14.3154 23.1838C14.1973 22.7754 14.1884 22.3431 14.2896 21.9301C14.3908 21.5172 14.5986 21.138 14.8922 20.8305C15.1858 20.523 15.555 20.2979 15.9628 20.1777C16.4005 20.0433 16.8674 20.0368 17.3086 20.159C17.7498 20.2813 18.1468 20.5272 18.4528 20.8677C19.0028 21.3677 19.4628 21.8477 19.9628 22.3677Z" fill="white"/>
</svg>
