<svg width="54" height="43" viewBox="0 0 54 43" fill="none" xmlns="http://www.w3.org/2000/svg"><g clip-path="url(#a)" stroke="#fff" stroke-width="2"><path d="M3.238 23.895h47.49a1.47 1.47 0 0 1 1.47 1.53 1.47 1.47 0 0 1-1.47 1.47h-18.51a1.48 1.48 0 0 0-1.27 2.24l6.17 10.28a1.47 1.47 0 0 1-1.27 2.23h-17.7a1.47 1.47 0 0 1-1.27-2.23l6.17-10.28a1.47 1.47 0 0 0-1.27-2.23H3.238a1.47 1.47 0 0 1-1.47-1.48 1.47 1.47 0 0 1 1.47-1.53ZM49.879 10.245a8.87 8.87 0 1 1-17.74-.03 8.87 8.87 0 0 1 17.74.03Z" stroke-miterlimit="10"/><path d="M35.378 10.225a5.62 5.62 0 0 1 5.64-5.61M17.889 10.905a5.64 5.64 0 0 1-5.64 5.62" stroke-linecap="round" stroke-linejoin="round"/><path d="M21.319 10.245a8.87 8.87 0 0 1-8.88 8.87 8.87 8.87 0 0 1-8.88-8.9 8.87 8.87 0 0 1 8.88-8.79 8.88 8.88 0 0 1 8.88 8.82Z" stroke-miterlimit="10"/></g><defs><clipPath id="a"><path fill="#fff" transform="translate(.769 .375)" d="M0 0h52.44v42.22H0z"/></clipPath></defs></svg>