<svg viewBox="0 0 56 44" fill="none" xmlns="http://www.w3.org/2000/svg"><path d="M.643 23.83c.232-.377.573-.678.98-.861a2.244 2.244 0 0 1 1.298-.167c.462.025.924.025 1.386 0 .05-.21.085-.422.144-.616.113-.351.331-.66.626-.884a1.828 1.828 0 0 1 1.024-.372h1.7a1.867 1.867 0 0 1 1.417.496 1.838 1.838 0 0 1 .58 1.376v2.96h2.61a12.276 12.276 0 0 0-.331-.531 24.427 24.427 0 0 1-3.783-8.855 12.835 12.835 0 0 1 1.87-9.789 12.986 12.986 0 0 1 3.604-3.61 13.097 13.097 0 0 1 4.727-1.957c4.888-.986 9.061.506 12.445 4.158l.306.362.144.076c.102-.11.23-.227.34-.354a12.974 12.974 0 0 1 4.052-3.155 13.07 13.07 0 0 1 10.075-.668 13.013 13.013 0 0 1 4.44 2.592l.152.143a.846.846 0 0 1 .313.899.841.841 0 0 1-.151.299.799.799 0 0 1-.943.205.799.799 0 0 1-.273-.205 11.645 11.645 0 0 0-3.842-2.336A11.478 11.478 0 0 0 38.75 2.7a11.405 11.405 0 0 0-5.78 3.574l-.212.236a1.695 1.695 0 0 1-1.398.727 1.71 1.71 0 0 1-1.399-.727 11.559 11.559 0 0 0-5.534-3.668 11.548 11.548 0 0 0-9.653 1.416 11.408 11.408 0 0 0-3.46 3.58 11.307 11.307 0 0 0-1.593 4.702 15.59 15.59 0 0 0 1.887 8.685c.748 1.476 1.7 2.85 2.55 4.275a.695.695 0 0 0 .697.346h6.29c.664 0 1.021.287 1.021.793s-.374.776-1.037.776H9.832v3.246h17.572v-3.246h-2.372a.786.786 0 0 1-.694-.266.773.773 0 0 1-.156-.72.759.759 0 0 1 .31-.456.77.77 0 0 1 .54-.127h2.414V23.08c0-1.5.68-2.167 2.193-2.167h1.02c1.352 0 1.947.49 2.219 1.88h1.862a1.834 1.834 0 0 1 1.394.529 1.803 1.803 0 0 1 .527 1.386v8.804a1.79 1.79 0 0 1-.536 1.377 1.82 1.82 0 0 1-1.394.52h-1.836c-.357 1.484-.85 1.88-2.406 1.88h-1.215a1.814 1.814 0 0 1-1.31-.532 1.787 1.787 0 0 1-.518-1.306V32.323h-7.285c.08.113.168.22.263.32a82.13 82.13 0 0 0 10.201 8.256 1.094 1.094 0 0 0 1.369 0c5.95-4.14 11.502-8.77 15.93-14.572a24.606 24.606 0 0 0 4.76-9.428c.762-2.888.404-5.954-1.002-8.593-.306-.565-.196-1.037.255-1.256.45-.22.85 0 1.139.523a13.65 13.65 0 0 1 .85 10.718 28.102 28.102 0 0 1-5.1 9.444A66.068 66.068 0 0 1 36.78 39.364c-1.224.936-2.49 1.83-3.749 2.715a2.562 2.562 0 0 1-3.4 0A81.54 81.54 0 0 1 18.07 32.55a1.04 1.04 0 0 0-.63-.295H9.765v1.687c0 .573 0 1.189-.05 1.779a1.733 1.733 0 0 1-.564 1.078c-.312.28-.716.44-1.137.448H6.687c-1.505 0-2.006-.388-2.372-1.88H2.921c-.445.069-.9.002-1.307-.19a2.229 2.229 0 0 1-.97-.89V23.831Zm7.574 5.254v-6.08c0-.387-.11-.581-.544-.548-.405.026-.81.026-1.215 0-.4 0-.519.144-.519.523v2.53a.754.754 0 0 1-.452.727.77.77 0 0 1-.296.066.794.794 0 0 1-.77-.435.78.78 0 0 1-.08-.299 4.56 4.56 0 0 1 0-.843c0-.312-.128-.439-.442-.43H2.522c-.315 0-.434.126-.434.438v8.593c0 .312.12.455.434.447h1.377c.306 0 .45-.118.442-.43-.009-.312 0-.843 0-1.257v-2.833c0-.405.187-.776.603-.801.317.009.619.132.85.346.137.118.128.421.128.64v5.667c0 .397.128.582.544.549.37-.03.743-.03 1.114 0 .501.05.629-.17.629-.633-.009-1.948.008-3.938.008-5.937Zm20.81 0v6.08c0 .405.136.574.553.54.416-.034.671 0 1.003 0 .705 0 .705 0 .705-.691V23.207c0-.11.043-.245 0-.312-.042-.068-.238-.346-.382-.363-.4-.05-.85 0-1.216 0-.365 0-.663.135-.654.641 0 1.914-.009 3.913-.009 5.903v.008Zm6.078.051v-4.292c0-.354-.102-.523-.476-.506-.374.017-.85 0-1.317 0-.306 0-.451.093-.451.422v8.635c0 .328.153.43.45.421.298-.008.706 0 1.055 0 .74 0 .74 0 .74-.7v-3.98Z" fill="#fff" stroke="#fff" stroke-miterlimit="10"/><path d="M20.57 14.117h-6.592a4.93 4.93 0 0 1-.625 0 .703.703 0 0 1-.517-.233.736.736 0 0 1-.192-.543.762.762 0 0 1 .173-.525.73.73 0 0 1 .477-.26c.138-.014.276-.014.414 0h7.133c.76 0 .937.129 1.165.862.548 1.856 1.105 3.712 1.688 5.715.11-.311.177-.492.228-.665l2.304-7.769c0-.103.068-.207.093-.31a.781.781 0 0 1 .264-.484.75.75 0 0 1 .513-.181.774.774 0 0 1 .51.18c.143.121.24.29.275.476.32 1.079.666 2.14.953 3.228a.597.597 0 0 0 .233.409.568.568 0 0 0 .451.1h6.036c.21 0 .48 0 .607.087.127.086.498.518.481.768-.016.25-.329.518-.565.717-.236.198-.338 0-.515 0h-6.82c-.845 0-.946-.095-1.182-.864-.127-.414-.253-.863-.372-1.234 0 0 0-.06-.092-.199-.093.26-.16.45-.22.64-.777 2.589-1.545 5.222-2.338 7.828a1.437 1.437 0 0 1-.464.734c-.456.328-.98 0-1.174-.63-.565-1.89-1.13-3.79-1.688-5.68a25.078 25.078 0 0 0-.641-2.166Z" fill="#fff" stroke="#fff" stroke-miterlimit="10"/></svg>