<svg viewBox="0 0 41 43" fill="none" xmlns="http://www.w3.org/2000/svg"><path d="M13.502 18.512 7.318 24.7c-.102.103-.2.213-.313.308a.68.68 0 0 1-1.016-.014 381.542 381.542 0 0 1-3.463-3.465c-.325-.33-.304-.701.032-1.045.468-.493.968-.972 1.451-1.456 2.143-2.145 4.303-4.276 6.43-6.438 1.385-1.402 3.037-2.124 5.01-2.068.406.012.813 0 1.33 0-1.31-1.285-1.978-2.771-1.87-4.538a5.453 5.453 0 0 1 2.336-4.207 5.595 5.595 0 0 1 7.245.62c1.732 1.736 2.591 5.25-.234 8.13h1.47a6.328 6.328 0 0 1 4.709 1.946 3422.3 3422.3 0 0 0 7.854 7.857c.55.55.547.844 0 1.402a1484.45 1484.45 0 0 1-3.124 3.125c-.514.511-.82.511-1.33 0-1.97-1.968-3.94-3.937-5.905-5.908-.115-.115-.206-.248-.374-.454-.025.13-.044.26-.056.39v6.65c.005.201.047.401.124.588 1.986 5.085 3.975 10.169 5.966 15.25.042.108.084.216.121.328.203.591-.089 1.019-.72 1.023-.974.012-1.95 0-2.928 0H27.09c-.688 0-.81-.086-1.064-.736l-5.265-13.46c-.063-.162-.13-.32-.234-.563-.404 1.168-.785 2.238-1.168 3.318l-3.694 10.642c-.253.722-.363.8-1.143.8H8.85c-.831 0-1.1-.386-.824-1.18l5.33-15.342c.089-.26.136-.532.138-.807.012-2.103 0-4.227 0-6.342l.007-.542ZM9.59 41.322c1.51 0 2.951-.014 4.39 0a.51.51 0 0 0 .576-.425c1.481-4.292 2.97-8.582 4.466-12.87.252-.726.516-1.453.761-2.184.117-.349.3-.61.701-.622.402-.012.627.25.744.615.018.056.044.107.067.16l5.842 14.927a.524.524 0 0 0 .596.397c1.297-.019 2.594 0 3.894 0 .138 0 .275-.012.45-.019-.065-.175-.116-.308-.167-.442-1.896-4.81-3.78-9.623-5.649-14.437a1.732 1.732 0 0 1-.145-.584v-8.925a.7.7 0 0 1 .442-.731.701.701 0 0 1 .827.22l.187.184 6.588 6.588c.11.11.234.215.29.273l2.495-2.486c-.056-.06-.142-.157-.233-.248-2.39-2.393-4.79-4.776-7.17-7.181a5.232 5.232 0 0 0-3.916-1.615c-3.395.02-6.791.02-10.19 0a5.256 5.256 0 0 0-3.953 1.636c-2.367 2.395-4.76 4.767-7.14 7.15-.1.101-.193.209-.247.265l2.53 2.533c.083-.116.173-.227.27-.332l6.646-6.653c.257-.26.518-.488.916-.336.397.152.467.504.467.895v8.616c-.002.246-.045.49-.126.722-1.194 3.45-2.392 6.9-3.597 10.35-.551 1.489-1.065 2.986-1.612 4.56ZM20.512 2.126a4.207 4.207 0 0 0-4.206 4.185 4.206 4.206 0 0 0 4.185 4.206 4.207 4.207 0 0 0 4.207-4.185 4.206 4.206 0 0 0-4.186-4.206Z" fill="#fff"/><path d="m19.76 42.019-1.444-.115.143-1.381 1.301.096v1.4ZM36.887 31.154l.638-1.2 1.253.61-.683 1.285-1.208-.695ZM39.404 22.104h1.402c-.032.493-.06.95-.093 1.444l-1.379-.122.07-1.322ZM22.686 41.904l-1.454.112v-1.402l1.297-.107.157 1.397ZM7.008 8.487l-.984-.982 1.04-.993.935 1.04-.991.935ZM1.74 19.327l-.117 1.356-1.388-.087.124-1.44 1.381.171ZM39.159 24.78l1.374.233c-.096.481-.185.935-.283 1.42l-1.355-.317c.09-.46.175-.88.264-1.337ZM29.082 3.32l1.297.668-.675 1.213-1.213-.61.59-1.271ZM4.529 34.26l-.858-1.168 1.147-.788.807 1.094-1.096.862ZM35.356 33.407c.285-.385.533-.724.811-1.098l1.148.783-.853 1.168-1.106-.853ZM4.475 11.693l-.68 1.168-1.227-.647.722-1.271 1.185.75ZM37.219 12.892c-.234-.395-.442-.769-.678-1.169l1.169-.743c.233.418.467.825.733 1.26l-1.224.652ZM2.696 15.357l-1.31-.467.53-1.344 1.28.551-.5 1.26ZM37.813 14.123l1.275-.563.54 1.353-1.31.467c-.174-.432-.335-.817-.505-1.257ZM10.155 5.902l-1.107.788-.846-1.108 1.184-.85.77 1.17ZM1.958 17.974l-1.36-.268.33-1.421 1.345.374-.315 1.315ZM39.371 20.638l-.11-1.276 1.37-.184.138 1.46H39.37ZM4.11 31.138l-1.21.701-.683-1.28 1.248-.617.645 1.196ZM4.11 9.735l.918-1.139 1.052.9-.837 1.066-1.133-.827ZM36.904 9.763l-1.13.818-.843-1.066 1.066-.897.907 1.145ZM.458 24.987l1.374-.233.273 1.327-1.353.325-.294-1.419ZM12.534 4.58l-1.208.614-.68-1.208 1.292-.676.596 1.27ZM31.636 4.748l1.187.85-.846 1.103c-.378-.266-.729-.516-1.105-.785l.764-1.168ZM40.404 17.729l-1.36.276c-.107-.454-.208-.87-.316-1.316l1.344-.376c.115.486.21.93.332 1.416ZM2.465 27.415l.456 1.281-1.293.516-.493-1.374 1.33-.423ZM.29 23.522l-.097-1.425h1.402l.087 1.301-1.393.124ZM38.072 28.7c.154-.43.297-.822.467-1.268l1.33.409-.489 1.374-1.308-.514ZM33.938 8.433l-.904-.862.916-1.045 1.005.946-1.017.96ZM35.525 35.396c-.372.36-.701.67-1.052 1.012l-.934-.984 1.035-.893.95.865ZM7.452 35.47l-.975.889-.967-.998.974-.886.968.996ZM20.42 16.103c.45-.24.918-.442 1.401-.606a2.356 2.356 0 0 1 2.606 1.15 2.234 2.234 0 0 1-.468 2.755c-.948.935-1.916 1.835-2.883 2.741-.412.388-.734.384-1.145 0-.944-.888-1.885-1.78-2.823-2.678-.951-.909-1.07-2.178-.297-3.14a2.456 2.456 0 0 1 3.272-.468c.135.087.268.197.336.246Zm.083 4.652c.825-.78 1.617-1.526 2.405-2.278.467-.442.516-.912.17-1.306a1.038 1.038 0 0 0-1.453-.096c-.168.138-.32.297-.48.446-.492.467-.789.467-1.275 0a6.426 6.426 0 0 0-.547-.498 1.026 1.026 0 0 0-1.402.157c-.322.393-.266.848.175 1.271.774.767 1.568 1.512 2.405 2.304h.002Z" fill="#fff"/></svg>