<svg viewBox="0 0 44 44" fill="none" xmlns="http://www.w3.org/2000/svg"><path d="M26.073 42.038h-8a2 2 0 0 1-1.39-2.3v-1.37c0-.87 0-.87-.8-1.2a3.122 3.122 0 0 1-.46-.21.41.41 0 0 0-.59.1c-.52.55-1.06 1.08-1.6 1.61a1.809 1.809 0 0 1-2.73 0 589.7 589.7 0 0 1-5-5 1.81 1.81 0 0 1 0-2.71c.41-.43.84-.84 1.26-1.27.59-.59.59-.59.26-1.37 0-.11-.09-.22-.12-.33a.58.58 0 0 0-.7-.51c-.72.05-1.43 0-2.15 0a1.82 1.82 0 0 1-1.91-1.92v-7.06a1.82 1.82 0 0 1 1.91-1.92h1.72c.91 0 .91 0 1.26-.83.063-.171.136-.338.22-.5.13-.2.06-.34-.1-.49-.55-.54-1.09-1.08-1.63-1.63a1.809 1.809 0 0 1 0-2.73c1.65-1.67 3.32-3.34 5-5a1.81 1.81 0 0 1 2.73 0l1.19 1.18c.64.65.64.64 1.47.31a3.13 3.13 0 0 1 .51-.19c.23-.06.28-.2.28-.43v-2.26a1.84 1.84 0 0 1 2-2h6.9a1.84 1.84 0 0 1 2 2v2.3a.561.561 0 0 0 .24.36c.36.18.74.31 1.11.48a.33.33 0 0 0 .43-.09l1.65-1.66a1.82 1.82 0 0 1 2.76 0c1.66 1.64 3.3 3.29 4.94 4.94a1.828 1.828 0 0 1 0 2.79c-.54.54-1.08 1.09-1.63 1.62a.33.33 0 0 0-.1.44c.17.36.32.73.46 1.11a.33.33 0 0 0 .37.25h2a2 2 0 0 1 2.31 1.48v8a2 2 0 0 1-2.31 1.48h-1.36c-.87 0-.87 0-1.2.79-.06.14-.12.29-.19.42a.452.452 0 0 0 .1.66c.56.51 1.08 1.06 1.61 1.6a1.798 1.798 0 0 1 0 2.67c-1.67 1.7-3.36 3.38-5 5.05a1.79 1.79 0 0 1-2.67 0c-.41-.39-.79-.79-1.19-1.18-.23-.23-.44-.56-.72-.63-.28-.07-.54.2-.81.31a5.256 5.256 0 0 1-.51.19c-.2 0-.25.17-.25.37v2a2 2 0 0 1-1.57 2.28Z" stroke="#fff" stroke-width="3" stroke-miterlimit="10"/><path d="m19.963 22.368 5.43-5.44a2.55 2.55 0 0 1 2-.86 2.31 2.31 0 0 1 2.1 1.4 2.28 2.28 0 0 1-.27 2.47 4.318 4.318 0 0 1-.45.51l-6.81 6.81a2.49 2.49 0 0 1-4 0l-3-3a2.43 2.43 0 0 1 1-4.08 2.401 2.401 0 0 1 2.49.69c.55.5 1.01.98 1.51 1.5Z" fill="#fff"/></svg>