<svg viewBox="0 0 42 43" fill="none" xmlns="http://www.w3.org/2000/svg"><path d="M15.263 22.931c-.689 1.265-1.621 1.751-2.724 1.476a2.253 2.253 0 0 1-1.427-3.365.584.584 0 0 0 0-.73c-.3-.478-.575-.98-.81-1.467-.236-.486-.244-.948.17-1.184.413-.235.81-.073 1.102.47.292.544.568 1.022.884 1.509a.69.69 0 0 0 .486.267 2.326 2.326 0 0 1 2.222 1.29.582.582 0 0 0 .38.259h1.622a2.384 2.384 0 0 1 2.433-1.565.502.502 0 0 0 .364-.219c.276-.438.527-.9.73-1.257-.197-.494-.362-1-.495-1.516a2.108 2.108 0 0 1 .381-1.516.73.73 0 0 0 0-.494 1.572 1.572 0 0 0-.202-.381c-.284-.584-.568-1.054-1.395-1.022a2.003 2.003 0 0 1-1.718-1.183.851.851 0 0 0-.47-.292 3.373 3.373 0 0 0-.576 0 1.208 1.208 0 0 0-1.37.64 1.937 1.937 0 0 1-1.93.892.454.454 0 0 0-.519.292c-.291.54-.591 1.06-.9 1.556-.283.487-.697.625-1.086.398-.389-.227-.446-.633-.178-1.103.267-.47.64-1.094.932-1.621a.617.617 0 0 0 0-.495 2.303 2.303 0 0 1 2.615-3.438 2.294 2.294 0 0 1 1.382 1.176c.357.608.973.17 1.46.268a.52.52 0 0 0 .68-.26 2.252 2.252 0 0 1 3.178-.989 2.31 2.31 0 0 1 .77 3.243.81.81 0 0 0 0 .495c.056.134.127.262.211.38a1.532 1.532 0 0 0 1.46 1.103 2.148 2.148 0 0 1 1.823 2.327 2.27 2.27 0 0 1-2.27 2.157.616.616 0 0 0-.664.413 1.976 1.976 0 0 1-.195.332 1.378 1.378 0 0 0-.17 1.622 2.164 2.164 0 0 1-1.11 2.854 2.23 2.23 0 0 1-2.944-.917.697.697 0 0 0-.754-.413c-.494.008-.94.008-1.378.008Zm4.864-.762a.81.81 0 0 0-.859-.81.811.811 0 0 0-.81.867.81.81 0 0 0 .81.81.809.809 0 0 0 .86-.859v-.008Zm2.303-6.25a.81.81 0 1 0 0 1.62.867.867 0 0 0 .81-.81.811.811 0 0 0-.81-.802v-.009Zm-8.545-4.614a.81.81 0 0 0-1.621-.048.811.811 0 1 0 1.621.056v-.008Zm-.81 11.715a.81.81 0 1 0-.811-.81.813.813 0 0 0 .802.818l.008-.008Zm6.242-10.912a.811.811 0 1 0-.811-.81.81.81 0 0 0 .803.818l.008-.008Z" fill="#fff"/><path d="M15.45 22.93a.69.69 0 0 0-.754.414 2.23 2.23 0 0 1-2.943.916 2.159 2.159 0 0 1-1.11-2.853 1.378 1.378 0 0 0-.179-1.622 2.66 2.66 0 0 1-.186-.332.617.617 0 0 0-.665-.413 2.287 2.287 0 0 1-2.278-2.157 2.156 2.156 0 0 1 1.832-2.327 1.54 1.54 0 0 0 1.46-1.102c.083-.12.154-.247.21-.381a.81.81 0 0 0 0-.495 2.312 2.312 0 0 1 1.693-3.533 2.262 2.262 0 0 1 2.296 1.28.51.51 0 0 0 .68.259c.487-.098 1.103.34 1.46-.268a2.295 2.295 0 0 1 3.887-.37 2.302 2.302 0 0 1 .11 2.632.584.584 0 0 0 0 .495c.292.559.624 1.102.932 1.621.308.519.195.876-.178 1.103-.373.227-.81.089-1.095-.398a81.54 81.54 0 0 1-.891-1.556.463.463 0 0 0-.52-.292 1.929 1.929 0 0 1-1.929-.892 1.208 1.208 0 0 0-1.37-.64 3.49 3.49 0 0 0-.584 0 .81.81 0 0 0-.462.292 2.003 2.003 0 0 1-1.726 1.183c-.811 0-1.103.438-1.387 1.022a1.967 1.967 0 0 0-.21.38.811.811 0 0 0 0 .495c.322.435.462.98.389 1.516a12.62 12.62 0 0 1-.495 1.516c.203.357.446.811.722 1.257a.534.534 0 0 0 .372.219 2.384 2.384 0 0 1 2.433 1.564h1.621a.552.552 0 0 0 .373-.259 2.342 2.342 0 0 1 2.23-1.289.704.704 0 0 0 .486-.267c.316-.487.592-.998.884-1.508.291-.511.689-.698 1.094-.47.405.226.486.648.178 1.183s-.55.99-.85 1.467a.584.584 0 0 0 0 .73 2.253 2.253 0 0 1-1.428 3.364c-1.119.276-2.035-.21-2.724-1.475-.478-.008-.932-.008-1.378-.008Zm-2.716.098a.81.81 0 0 0 .81-.81.811.811 0 0 0-.81-.868.811.811 0 0 0-.867.81.812.812 0 0 0 .908.868h-.04Zm-3.94-6.258a.86.86 0 0 0 .81.81.81.81 0 1 0-.81-.81Zm10.223-4.654a.81.81 0 0 0 .81-.884.81.81 0 0 0-1.62.049.811.811 0 0 0 .81.835Zm.81 10.069a.81.81 0 1 0-.81.81.81.81 0 0 0 .787-.81h.024Zm-6.242-10.904a.81.81 0 0 0-.81-.81.811.811 0 1 0-.049 1.62.81.81 0 0 0 .86-.81Z" fill="#fff"/><path d="M26.556 28.833a16.093 16.093 0 0 1-22.862-1.865 16.044 16.044 0 0 1 .973-21.556 16.052 16.052 0 0 1 21.598-.981 16.117 16.117 0 0 1 1.84 22.83c.56.55 1.119 1.118 1.71 1.62a.55.55 0 0 0 .43 0 3.454 3.454 0 0 1 3.73.925c2.31 2.318 4.629 4.62 6.94 6.94a3.34 3.34 0 0 1 .907 3.542 3.243 3.243 0 0 1-2.635 2.327 3.243 3.243 0 0 1-3.007-.9 761.414 761.414 0 0 1-7.232-7.248 3.242 3.242 0 0 1-.81-3.429.6.6 0 0 0-.17-.738c-.447-.43-.917-.94-1.412-1.467Zm3.203-12.08A13.725 13.725 0 0 0 16.066 3.012a13.7 13.7 0 0 0-13.782 13.7 13.733 13.733 0 0 0 13.725 13.783 13.782 13.782 0 0 0 13.742-13.742h.008Zm1.864 14.269a1.2 1.2 0 0 0-1.216.713 1.127 1.127 0 0 0 .317 1.314l6.972 6.98a1.137 1.137 0 0 0 1.71.073 1.127 1.127 0 0 0-.08-1.678c-2.33-2.34-4.67-4.675-7.022-7.005a2.592 2.592 0 0 0-.689-.38l.008-.017Z" fill="#fff"/></svg>