<svg viewBox="0 0 59 84" fill="none" xmlns="http://www.w3.org/2000/svg"><path fill="#fff" d="M45.554 0c1.047.263 2.12.461 3.146.801a14.935 14.935 0 0 1 10.276 14.12c.032 12.772.032 25.544 0 38.315a15.021 15.021 0 0 1-14.87 14.892h-5.429v13.921c0 1.388-.43 1.802-1.805 1.802H22.136c-1.392 0-1.802-.431-1.802-1.802V68.136h-5.347a14.34 14.34 0 0 1-7.55-2.103C2.699 63.1.092 58.82.053 53.24c-.086-12.767-.051-25.538 0-38.31A15.012 15.012 0 0 1 13.022.16c.155-.037.307-.087.453-.151L45.555 0Zm-6.85 65.495h5.32a12.388 12.388 0 0 0 12.328-12.302c.035-12.771.035-25.544 0-38.319A12.354 12.354 0 0 0 44.068 2.62c-9.715-.035-19.433-.035-29.154 0A12.366 12.366 0 0 0 2.646 14.896a7097.94 7097.94 0 0 0 0 38.314 12.302 12.302 0 0 0 9.05 11.794c1.08.278 2.188.437 3.304.474 1.758.077 3.525.021 5.265.021v-7.86h-2.357c-.909 0-1.482-.512-1.499-1.292-.017-.78.569-1.336 1.517-1.34h23.173c.909 0 1.482.513 1.504 1.293.021.78-.578 1.327-1.521 1.34h-2.375l-.004 7.855ZM35.98 81.2V57.717H22.993v23.484H35.98Z"/><path fill="#fff" d="M29.581 11.139h16.464c1.388 0 1.801.43 1.801 1.805v29.791c0 1.388-.43 1.802-1.805 1.802H12.953c-1.387 0-1.796-.431-1.796-1.806V12.927c0-1.392.43-1.801 1.8-1.801l16.624.013Zm-15.749 2.658v28.077h31.352V13.806l-31.352-.009ZM29.538 78.611a3.951 3.951 0 0 1-3.964-3.848 3.946 3.946 0 0 1 3.878-4.007 3.951 3.951 0 0 1 3.968 3.93 3.955 3.955 0 0 1-3.882 3.925Zm-.06-5.23a1.319 1.319 0 0 0-1.293 1.326A1.323 1.323 0 0 0 29.512 76a1.323 1.323 0 0 0 1.293-1.327 1.323 1.323 0 0 0-1.327-1.293Z"/><path fill="#fff" d="M36.587 30.74a7.127 7.127 0 0 1-6.424 7.256 7.07 7.07 0 0 1-7.623-5.835c-.43-2.425.285-4.705 1.267-6.894a25.817 25.817 0 0 1 4.61-6.894c.716-.78 1.47-.814 2.19-.065 2.99 3.111 5.209 6.64 5.847 11.001.073.453.09.93.133 1.43Zm-6.976-9.725a18.446 18.446 0 0 0-3.766 6.144 14.027 14.027 0 0 0-.75 3.658 4.307 4.307 0 0 0 4.348 4.593 4.385 4.385 0 0 0 4.49-4.588c-.086-3.853-1.978-6.925-4.322-9.807Z"/></svg>