<svg viewBox="0 0 82 84" fill="none" xmlns="http://www.w3.org/2000/svg"><path fill="#fff" d="M26.617 35.565 14.252 47.94c-.206.206-.402.425-.627.617a1.36 1.36 0 0 1-2.033-.028 765.665 765.665 0 0 1-6.926-6.931c-.65-.66-.608-1.402.065-2.09.935-.986 1.935-1.944 2.903-2.911 4.285-4.29 8.604-8.553 12.857-12.877 2.772-2.804 6.076-4.248 10.02-4.136.814.023 1.627 0 2.66 0-2.617-2.57-3.954-5.543-3.739-9.076a10.908 10.908 0 0 1 4.674-8.413 11.19 11.19 0 0 1 14.489 1.238c3.463 3.473 5.183 10.502-.468 16.26h2.94a12.658 12.658 0 0 1 9.417 3.894A6804.567 6804.567 0 0 0 76.192 39.2c1.098 1.098 1.094 1.687 0 2.804a2945.148 2945.148 0 0 1-6.249 6.249c-1.028 1.024-1.64 1.024-2.66 0a8433.25 8433.25 0 0 1-11.81-11.815c-.229-.23-.411-.496-.748-.907a7.84 7.84 0 0 0-.112.78V49.61a3.3 3.3 0 0 0 .248 1.178c3.973 10.17 7.95 20.337 11.932 30.501.084.215.168.43.243.654.407 1.183-.177 2.038-1.44 2.048-1.948.023-3.902 0-5.856 0h-5.95c-1.373 0-1.616-.173-2.126-1.473l-10.53-26.92c-.126-.323-.262-.64-.467-1.127-.809 2.337-1.57 4.478-2.337 6.637L30.94 82.39c-.504 1.444-.724 1.599-2.285 1.599H17.317c-1.664 0-2.202-.771-1.65-2.36 3.555-10.227 7.109-20.455 10.66-30.684.179-.519.272-1.063.276-1.612.024-4.207 0-8.455 0-12.685l.014-1.084Zm-7.823 45.62c3.019 0 5.902-.028 8.782 0a1.02 1.02 0 0 0 1.15-.85c2.963-8.584 5.94-17.164 8.93-25.739.506-1.453 1.034-2.907 1.525-4.37.233-.696.598-1.22 1.402-1.243.804-.023 1.252.5 1.486 1.23.037.111.089.214.136.322 3.891 9.949 7.786 19.9 11.684 29.851a1.046 1.046 0 0 0 1.192.795c2.594-.038 5.188 0 7.786 0 .276 0 .552-.024.902-.038-.13-.35-.233-.617-.336-.883a6212.72 6212.72 0 0 1-11.297-28.875 3.464 3.464 0 0 1-.29-1.168v-17.85a1.402 1.402 0 0 1 .884-1.462 1.402 1.402 0 0 1 1.654.44l.374.369 13.175 13.175c.22.22.468.43.58.547l4.992-4.973c-.112-.122-.285-.313-.468-.495-4.781-4.787-9.58-9.554-14.339-14.363a10.464 10.464 0 0 0-7.833-3.23c-6.79.04-13.582.04-20.378 0a10.51 10.51 0 0 0-7.908 3.272c-4.734 4.79-9.52 9.535-14.278 14.302-.201.2-.388.416-.495.528l5.061 5.066c.165-.232.344-.454.538-.663l13.292-13.307c.514-.518 1.038-.976 1.832-.673.795.304.935 1.01.935 1.79v17.233c-.005.491-.09.98-.253 1.444a7451.539 7451.539 0 0 1-7.192 20.7c-1.103 2.977-2.132 5.973-3.225 9.118ZM40.639 2.792a8.413 8.413 0 0 0-8.413 8.371 8.413 8.413 0 0 0 8.37 8.413 8.413 8.413 0 0 0 8.414-8.37 8.413 8.413 0 0 0-8.371-8.414Z"/><path fill="#fff" d="m39.134 82.578-2.889-.229.286-2.762 2.603.191v2.8ZM73.388 60.85l1.275-2.403 2.506 1.22-1.365 2.57-2.416-1.387ZM78.421 42.748h2.805c-.066.986-.122 1.902-.187 2.889l-2.758-.243.14-2.646ZM44.985 82.349l-2.907.224V79.77l2.594-.215.313 2.795ZM13.629 15.514l-1.968-1.963 2.08-1.986 1.87 2.08-1.982 1.87ZM3.094 37.196l-.234 2.71-2.776-.172.248-2.88 2.762.342ZM77.93 48.1l2.748.467c-.191.963-.369 1.87-.565 2.842l-2.71-.636c.181-.92.35-1.762.527-2.673ZM57.777 5.18l2.594 1.337-1.35 2.426-2.427-1.22 1.183-2.542ZM8.67 67.061l-1.715-2.337 2.294-1.575 1.613 2.188L8.67 67.06ZM70.326 65.355c.57-.77 1.066-1.449 1.622-2.196l2.295 1.565-1.706 2.337-2.21-1.706ZM8.562 21.927l-1.36 2.337-2.453-1.295 1.444-2.543 2.37 1.5ZM74.051 24.325c-.467-.79-.883-1.538-1.355-2.337l2.336-1.487c.468.837.935 1.65 1.468 2.52l-2.449 1.303ZM5.006 29.255l-2.622-.935 1.06-2.687 2.562 1.103-1 2.52ZM75.238 26.788l2.552-1.127c.36.907.697 1.753 1.08 2.706l-2.622.935c-.346-.865-.669-1.636-1.01-2.514ZM19.924 10.345 17.71 11.92l-1.692-2.215 2.37-1.701 1.537 2.341ZM3.529 34.49l-2.72-.538.659-2.841 2.692.747-.631 2.632ZM78.356 39.818l-.22-2.552 2.739-.37c.094.959.178 1.87.276 2.922h-2.795ZM7.833 60.817l-2.42 1.402-1.366-2.561 2.496-1.234 1.29 2.393ZM7.833 18.01l1.837-2.276 2.103 1.8-1.673 2.13-2.267-1.654ZM73.42 18.066l-2.257 1.636-1.688-2.131 2.132-1.795 1.813 2.29ZM.528 48.516l2.748-.468.547 2.655-2.706.65-.589-2.837ZM24.682 7.7l-2.416 1.229-1.36-2.416 2.584-1.351L24.682 7.7ZM62.886 8.036l2.374 1.702-1.692 2.206a374.018 374.018 0 0 1-2.21-1.57l1.528-2.338ZM80.421 33.999l-2.72.552c-.215-.907-.416-1.74-.63-2.632l2.687-.752c.229.972.42 1.86.663 2.832ZM4.543 53.372l.911 2.56-2.584 1.034-.986-2.748 2.659-.846ZM.192 45.586 0 42.734h2.804l.173 2.604-2.785.248ZM75.757 55.942c.309-.86.594-1.645.935-2.538l2.66.818-.977 2.748-2.618-1.028ZM67.49 15.407l-1.81-1.725 1.833-2.089 2.01 1.893-2.034 1.92ZM70.663 69.333c-.743.72-1.403 1.341-2.104 2.023l-1.87-1.967 2.071-1.786 1.903 1.73ZM14.517 69.482l-1.95 1.776-1.934-1.996 1.949-1.77 1.935 1.99ZM40.452 30.746c.9-.478 1.838-.883 2.804-1.21a4.711 4.711 0 0 1 5.211 2.3 4.469 4.469 0 0 1-.935 5.51c-1.897 1.869-3.832 3.669-5.767 5.482-.823.776-1.468.766-2.29 0a913.493 913.493 0 0 1-5.646-5.356c-1.902-1.818-2.14-4.356-.594-6.282a4.912 4.912 0 0 1 6.544-.934c.27.172.537.392.672.49Zm.168 9.306c1.65-1.561 3.234-3.052 4.809-4.557.935-.884 1.033-1.823.341-2.613a2.075 2.075 0 0 0-2.907-.191c-.336.275-.64.593-.958.892-.986.935-1.58.935-2.552 0-.345-.352-.71-.685-1.093-.995a2.051 2.051 0 0 0-2.805.313c-.645.785-.533 1.696.35 2.542 1.548 1.533 3.137 3.024 4.81 4.609h.005Z"/></svg>