<svg viewBox="0 0 94 86" fill="none" xmlns="http://www.w3.org/2000/svg"><path fill="#fff" d="M71.211 70.119c.166.184.323.364.49.54 3.781 3.915 2.725 11.328-2.8 13.597-5.67 2.329-10.978-1.117-11.868-6.084-.89-4.968 2.112-9.455 7.306-10.249 1.222-.189 2.56.236 3.819.503.54.115.784.11 1.08-.392 2.594-4.382 5.208-8.75 7.84-13.104.252-.443.642-.79 1.112-.987a1.583 1.583 0 0 1 1.3.286 1.384 1.384 0 0 1 .24 1.162 5.58 5.58 0 0 1-.728 1.338l-7.639 13.04a5.872 5.872 0 0 1-.152.35ZM65.71 82.208c3.02.106 5.46-2.555 5.627-6.236.106-2.306-3.026-5.364-5.567-5.475-3.349-.148-6.116 3.076-6.255 5.563a5.914 5.914 0 0 0 6.195 6.148ZM23.117 15.886c-1.31-1.263-2.306-2.62-2.624-4.308-.748-3.99.922-8.302 5.009-9.889 4.47-1.706 9.11-.226 11.07 4.235 2.624 5.996-1.384 11.53-6.822 12.186-1.209.147-2.505-.263-3.727-.559-.503-.12-.692-.055-.923.346a3479.39 3479.39 0 0 1-7.712 12.883c-.106.184-.203.373-.322.549-.6.844-1.504 1.07-2.196.553-.692-.517-.701-1.333-.12-2.186.766-1.126 1.545-2.246 2.242-3.413 2.048-3.437 4.068-6.891 6.125-10.397Zm5.641-.415c3.976-.17 6.102-3.229 5.909-6.766-.176-3.229-4.433-5.886-7.486-4.852a6.425 6.425 0 0 0-4.013 4.077c-1.393 3.884 2.578 7.693 5.6 7.541h-.01ZM57.909 8.53c.129-.406.24-.78.373-1.149.95-2.684 2.703-4.69 5.452-5.456 4.815-1.347 9.894 1.18 10.955 6.29.807 3.885-.72 8.419-5.715 10-4.271 1.357-8.995-.525-10.84-5.493-.16-.461-.046-1.199-.304-1.328-.461-.23-1.111-.12-1.683-.125-2.131 0-4.258.023-6.389 0-2.573-.032-5.142-.11-7.716-.175-.95-.023-1.522-.512-1.554-1.305-.033-.794.576-1.435 1.54-1.42 2.514.031 5.023.138 7.537.165 2.763.019 5.53-.004 8.344-.004Zm8.597 7.486c3.593-.203 5.641-3.261 5.747-5.997.106-2.86-2.726-5.76-5.609-5.844-4.095-.12-6.457 3.487-6.134 6.712.258 2.785 3.196 5.152 5.996 5.128ZM79.85 36.384c-.06-.157-.074-.217-.101-.272l-6.356-11.328c-.462-.835-.923-1.67-1.384-2.528a1.271 1.271 0 0 1 .433-1.762 1.209 1.209 0 0 1 1.78.268c.288.489.544.995.767 1.517 2.306 4.036 4.612 8.058 6.886 12.103a1.112 1.112 0 0 0 1.324.664c4.28-.41 8.639 1.753 9.82 6.674.89 3.69-1.283 8.174-4.825 9.594-5.074 2.034-10.148-.244-11.707-5.074-1.093-3.436-.235-6.66 2.565-9.178.263-.24.521-.461.798-.678Zm10.715 7.172c.06-2.523-1.541-4.465-3.727-5.466-3.602-1.642-8.123.964-8.063 5.996.037 3.23 3.884 5.964 7.043 5.259 2.819-.637 4.599-3.432 4.742-5.789h.005ZM14.46 49.607c.72 1.384 1.384 2.768 2.103 4.082 1.873 3.354 3.792 6.684 5.692 10.023a1.384 1.384 0 0 1-.383 1.845 1.3 1.3 0 0 1-1.905-.41c-.53-.868-.922-1.845-1.425-2.708-1.338-2.306-2.73-4.612-4.064-6.919-.779-1.36-1.494-2.767-2.223-4.15-.226-.439-.46-.54-1-.462C5.691 51.641 1.106 47.68 1 42.403c-.06-3.086 2.43-6.702 5.249-7.841 3.791-1.545 8.431-.29 10.54 3.229 2.038 3.39 2.167 7.573-1.384 11.023-.31.24-.59.508-.946.793Zm.95-7.273a9.18 9.18 0 0 0-.295-2.007c-.863-2.56-4.483-4.34-7.112-3.57a5.94 5.94 0 0 0-4.267 5.254c-.189 2.809 1.236 4.612 3.58 5.84 3.556 1.858 8.076-1.145 8.094-5.517ZM50.74 77.466c-4.427 0-8.85.028-13.278 0-.835 0-1.209.203-1.453 1.034a7.768 7.768 0 0 1-4.737 5.327 8.694 8.694 0 0 1-11.992-7.754c-.162-3.5 2.767-7.38 6.093-8.385 3.69-1.112 8.191.678 10.05 4.077.357.697.602 1.446.724 2.219.12.687.462.826 1.047.775.512-.042 1.033 0 1.55 0l13.46.184c.995 0 1.59.54 1.586 1.384-.005.844-.618 1.347-1.6 1.384h-1.458l.009-.245Zm-17.065-1.383c.152-4.105-2.896-5.789-5.752-6.052-3.09-.29-5.862 2.55-5.936 5.761-.064 2.933 2.823 5.996 5.724 6.065a5.931 5.931 0 0 0 5.973-5.779l-.009.005Z" fill="#fff" stroke="#fff" stroke-miterlimit="10"/></svg>