<svg viewBox="0 0 85 83" fill="none" xmlns="http://www.w3.org/2000/svg"><path fill="#fff" d="M0 66.865V66.7c.135-.227.259-.46.369-.7 1.798-4.473 3.647-8.905 5.347-13.433.488-1.273 1.06-1.99 2.485-1.697.163.004.325-.013.483-.05V22.095a7.662 7.662 0 0 1 1.362-4.482c1.242-1.806 2.442-3.643 3.646-5.474.167-.214.277-.466.318-.734.034-1.094 0-2.188 0-3.282-.148-.055-.246-.098-.352-.127-1.607-.424-2.294-1.302-2.302-2.93V2.759a2.629 2.629 0 0 1 2.74-2.756h23.949a2.65 2.65 0 0 1 2.765 2.743c.052.848.045 1.698-.022 2.544a3.006 3.006 0 0 1-.589 1.65c-.509.551-1.25.89-2.027 1.408-.11 1.717-.297 3.655 1.243 5.237.316.382.6.79.848 1.22.135.204.288.39.564.756V9.624c0-2.608 1.64-4.287 4.261-4.291 8.752 0 17.505-.03 26.253.025a5.36 5.36 0 0 1 2.612.793c1.297.789 1.675 2.12 1.67 3.626-.017 13.337-.017 26.672 0 40.004v1.09c.394.026.79.026 1.183 0 .798-.123 1.18.173 1.485.962 1.844 4.745 3.765 9.465 5.656 14.197.106.263.187.543.318.929H78.33v11.5c0 2.942-1.595 4.541-4.516 4.541H10.499c-2.917 0-4.512-1.603-4.516-4.537V66.946h-1.39L0 66.866Zm30.183-13.268v26.757h43.6c1.395 0 1.823-.424 1.823-1.81V54.427c0-.267-.03-.53-.042-.848l-45.38.017Zm-18.793-2.76H25.56a28.312 28.312 0 0 1-8.794-10.572 28.41 28.41 0 0 1-2.723-13.42h2.667c-.135 4.914.849 9.523 3.257 13.78a25.268 25.268 0 0 0 10.143 9.885c0-.848-.038-1.526 0-2.18a1.399 1.399 0 0 0-.72-1.403 22.517 22.517 0 0 1-9.245-12.976 21.376 21.376 0 0 1-.716-7.107c.203-.02.36-.05.517-.055 5.038-.11 9.685 1.175 13.76 4.147a5.563 5.563 0 0 0 3.986 1.213c1.022-.085 2.057 0 3.045 0v-7.985H11.386l.004 26.672ZM8.735 66.95c0 .36-.046.628-.046.895v10.6c0 1.493.398 1.884 1.916 1.884H26.49c.288 0 .577-.022.848-.039V59.657a105.78 105.78 0 0 0-2.727 6.53 1.005 1.005 0 0 1-1.132.763c-4.584-.025-9.163 0-13.747 0h-.997Zm2.498-45.597h29.704a17.312 17.312 0 0 0-.967-2.12 149.653 149.653 0 0 0-3.566-5.335 1.382 1.382 0 0 0-.971-.521c-6.22-.029-12.447-.029-18.683 0a1.387 1.387 0 0 0-.984.534 180.367 180.367 0 0 0-3.655 5.47c-.341.639-.636 1.3-.882 1.98l.004-.008Zm15.524 32.252a3.911 3.911 0 0 0-.424-.059H8.812c-.5 0-.645.242-.798.628-.911 2.315-1.844 4.626-2.764 6.941-.424 1.01-.81 2.023-1.222 3.053.094.042.192.073.293.094h17.767c.22 0 .539-.31.64-.552.764-1.815 1.48-3.65 2.214-5.482.577-1.519 1.17-3.015 1.81-4.614l.005-.008Zm46.136-16.147V24.131h-13.26v13.327h13.26ZM56.813 21.4V8.089c-.297 0-.539-.038-.78-.038H45.258c-1.344 0-1.781.424-1.781 1.764v10.86c0 .233.03.47.047.725h13.289Zm16.114 0V9.849c0-1.387-.425-1.79-1.824-1.79H60.417c-.263 0-.526.03-.797.043V21.4h13.307ZM56.791 50.85V40.247H32.829V50.85h2.646v-7.93h18.726v7.947l2.59-.017Zm16.088 0V40.222H59.607v10.63h5.653c-2.421-1.195-3.393-2.828-2.947-4.82a4.028 4.028 0 0 1 3.88-3.194 4.045 4.045 0 0 1 3.926 3.032c.518 2.12-.377 3.664-2.87 4.978h5.63ZM56.809 24.134H43.54v7.955h2.756c-.356-3.134 1.077-5.182 3.689-5.292a3.815 3.815 0 0 1 2.968 1.132c1.17 1.157 1.408 2.582 1.035 4.151h2.803l.017-7.946ZM32.783 37.45h24.021v-2.596H32.795l-.012 2.596Zm5.27-32.151V2.712H14.07V5.3h23.983ZM22.126 29.57a20.177 20.177 0 0 0 4.932 11.775c.433-.502.903-.97 1.408-1.399 1.39-1.018 1.891-2.324 1.67-4.024-.165-1.272-.059-2.544 1.205-3.35-2.2-1.611-6.403-2.972-9.215-3.002ZM35.4 8.097H16.754v2.545H35.39l.009-2.545Zm5.597 37.422c1.527 1.836 2.905 3.494 4.296 5.148.08.107.199.18.33.203h3.045c-1.488-1.78-2.833-3.392-4.194-5.012a.962.962 0 0 0-.606-.335c-.878-.025-1.751-.004-2.88-.004h.01Zm10.5 4.575v-4.52h-3.762l3.761 4.52ZM38.197 46.35v4.482h3.731l-3.731-4.482Zm13.327-15.532a1.332 1.332 0 0 0-1.272-1.336 1.273 1.273 0 0 0-1.37 1.302 1.305 1.305 0 0 0 1.273 1.344 1.357 1.357 0 0 0 1.36-1.31h.01Zm16.05 16.058a1.323 1.323 0 0 0-1.272-1.34 1.365 1.365 0 0 0-1.39 1.319 1.378 1.378 0 0 0 1.369 1.348 1.34 1.34 0 0 0 1.285-1.327h.008Zm10.949 12.865H78.4v4.466h1.908l-1.785-4.466ZM30.073 42.156l-1.162 1.082 1.162.903v-1.985Z"/><path fill="#fff" d="M40.695 56.133c.954.068 1.85.127 2.74.203 2.26.191 4.558.25 6.682 1.17C56 60.052 59.24 64.55 59.502 70.97c.067 1.624.424 2.837 1.696 3.787.216.19.416.396.598.619l-2.053 1.895c-.275-.335-.644-.737-.97-1.17-.68-.907-1.544-1.187-2.69-1.153a14.095 14.095 0 0 1-10.066-3.736c-3.274-2.913-4.8-6.645-5.012-10.974-.064-1.332-.2-2.65-.31-4.105ZM54.69 72.246c0-.11 0-.182-.03-.212A965.506 965.506 0 0 0 49.85 67.2a.687.687 0 0 0-.424-.216h-3.613c2.311 3.113 5.19 4.838 8.884 5.263h-.008Zm-3.176-7.429v-3.159a.673.673 0 0 0-.183-.5 10.97 10.97 0 0 0-5.355-1.874 1697.3 1697.3 0 0 1 5.546 5.533h-.008Zm5.088 5.386.195-.09A11.024 11.024 0 0 0 54.252 64a38.573 38.573 0 0 0-.076 3.494.848.848 0 0 0 .25.488c.733.75 1.463 1.48 2.188 2.222H56.6Zm-10.096-5.937-2.684-2.667c.018.174.047.346.084.517.598 2.701.123 2.09 2.667 2.12.039.005.064-.008-.055.026l-.012.004ZM66.282 34.8a4.003 4.003 0 0 1-3.746-5.526 4.007 4.007 0 0 1 3.716-2.476 4.029 4.029 0 0 1 4.02 3.947 4.029 4.029 0 0 1-3.99 4.054Zm1.272-4.02a1.301 1.301 0 0 0-1.302-1.302 1.336 1.336 0 0 0-1.352 1.344 1.357 1.357 0 0 0 1.399 1.306 1.323 1.323 0 0 0 1.264-1.349h-.009ZM54.18 14.76a4.028 4.028 0 0 1-4.046 4.002 4.062 4.062 0 0 1-3.973-4.007 4.025 4.025 0 0 1 4.02-4.028 3.993 3.993 0 0 1 3.999 4.032Zm-2.663 0a1.383 1.383 0 0 0-1.344-1.37 1.328 1.328 0 0 0-1.306 1.306 1.273 1.273 0 0 0 1.246 1.335 1.33 1.33 0 0 0 1.404-1.272ZM66.227 10.722a4.037 4.037 0 0 1 4.062 3.995 4.075 4.075 0 0 1-4.028 4.04 4.05 4.05 0 0 1-4.012-3.968 4.016 4.016 0 0 1 3.978-4.067Zm.076 5.326a1.302 1.302 0 0 0 1.272-1.323 1.34 1.34 0 0 0-1.365-1.331 1.383 1.383 0 0 0-1.298 1.34 1.335 1.335 0 0 0 1.374 1.297l.017.017ZM26.074 34.79a1.325 1.325 0 0 1-1.336-1.356 1.378 1.378 0 0 1 1.34-1.293 1.346 1.346 0 0 1 1.323 1.378 1.306 1.306 0 0 1-1.327 1.272Z"/></svg>