<svg viewBox="0 0 92 75" fill="none" xmlns="http://www.w3.org/2000/svg"><path fill="#fff" d="M.018 53.377c.173-.91.387-1.794.51-2.7.169-1.239.86-1.822 2.063-2.104a20.14 20.14 0 0 1 12.958 1.407c.214.096.428.2.647.291a.558.558 0 0 0 .2 0 23.366 23.366 0 0 1 6.925-15.13c7.44-7.446 14.877-14.883 22.311-22.31a2.95 2.95 0 0 1 1.243-.793 1.58 1.58 0 0 1 1.871.865 1.721 1.721 0 0 1-.368 2.195 1502.44 1502.44 0 0 1-5.797 5.8c-.455.456-.91.861-1.288 1.226C50.6 31.426 59.86 40.674 69.168 49.97c.072-.064.273-.228.455-.41 4.098-4.075 8.196-8.132 12.23-12.234 7.476-7.572 7.922-19.014 1.083-26.973a19.656 19.656 0 0 0-22.064-5.428c-.219.087-.433.196-.656.269a1.821 1.821 0 0 1-2.494-1.7 1.712 1.712 0 0 1 1.224-1.606C60.799 1.274 62.66.582 64.578.286A23.016 23.016 0 0 1 90.24 16.391c2.559 8.533.828 16.332-5.3 22.798-6.62 6.99-13.564 13.66-20.371 20.49l-8.196 8.195c-4.95 4.95-10.9 7.363-17.912 7.094-.476-.01-.95-.053-1.42-.128a11.944 11.944 0 0 0-4.144-.04 18.09 18.09 0 0 1-6.99-.32 3.76 3.76 0 0 0-1.561 0A19.825 19.825 0 0 1 .15 57.448a2.48 2.48 0 0 0-.15-.496l.018-3.574Zm25.116 6.274c.214-.387.355-.638.487-.91a19.898 19.898 0 0 1 22.115-10.172c1.06.24 1.762.723 1.994 1.848 1.627 7.868-.534 14.493-6.484 19.875-.296.273-.623.514-1.12.91.456-.05.697-.054.91-.095a19.78 19.78 0 0 0 10.692-5.655c4.025-4.044 8.059-8.08 12.102-12.107.205-.21.396-.428.72-.77L38.71 24.737c-4.139 4.144-8.15 8.16-12.157 12.18-.546.546-1.106 1.084-1.612 1.666a19.301 19.301 0 0 0-4.98 13.45c-.015.371.104.735.336 1.025a21.249 21.249 0 0 1 4.836 6.57v.023Zm-2.05 9.138.429-.223c-.219-1.548-.319-3.123-.679-4.64a16.255 16.255 0 0 0-18.09-12.12c-.519.082-.91.187-.992.87a16.305 16.305 0 0 0 12.243 18.272c1.548.43 3.163.556 4.758.373l-6.224-6.21c-1.024-1.02-1.138-2.082-.323-2.874.815-.792 1.821-.65 2.81.323 1.684 1.676 3.364 3.358 5.04 5.045.364.342.687.765 1.029 1.161v.023Zm6.516 2.377.164.182c.77.043 1.543.043 2.313 0 9.339-1.097 15.586-9.07 14.498-18.445a1.064 1.064 0 0 0-1.061-1.11 16.305 16.305 0 0 0-18.15 12.511 42.583 42.583 0 0 0-.523 4.317l.41.168c.176-.276.372-.54.587-.788 1.822-1.82 3.643-3.642 5.464-5.463.96-.956 2.04-1.052 2.81-.264.769.787.646 1.848-.315 2.814-1.088 1.097-2.176 2.194-3.278 3.278a243.04 243.04 0 0 1-2.919 2.768v.032Z"/><path fill="#fff" d="M54.661 8.027a1.76 1.76 0 0 1-1.707 1.821 1.762 1.762 0 0 1-1.822-1.785 1.78 1.78 0 0 1 1.754-1.771 1.771 1.771 0 0 1 1.775 1.735Z"/></svg>