<svg viewBox="0 0 74 74" fill="none" xmlns="http://www.w3.org/2000/svg"><path fill="#fff" d="M20.7 66.013c-4.27-4.274-8.457-8.465-12.749-12.753-.673.56-1.422 1.159-2.137 1.787a3.503 3.503 0 0 1-5.304-.59c-.797-1.2-.65-3.255.376-4.297a17.132 17.132 0 0 1 10.846-5.191 28.122 28.122 0 0 1 7.147.252c.211.03.425.026.674.045-.245-1.629-.493-3.209-.715-4.796a17.664 17.664 0 0 1-.158-1.941 1.04 1.04 0 0 1 .997-1.129.988.988 0 0 1 1.128.96c.377 5.608 2.141 10.954 3.104 16.45.542 3.103.794 6.215-.094 9.31a12.282 12.282 0 0 1-2.855 5.045c-.132.14-.267.279-.377.425a1.328 1.328 0 0 0 0 1.881c.55.538 1.313.516 1.927-.105a15.048 15.048 0 0 0 3.66-5.903c1.076-3.268 1.076-6.613.474-9.935-.752-4.19-1.742-8.34-2.566-12.52-.632-3.204-.97-6.432-.23-9.678a12.949 12.949 0 0 1 11.095-9.792c3.438-.343 6.77.252 10.096.962.377.08.753.151 1.238.249-.196-.93-.354-1.768-.56-2.592-.03-.128-.283-.256-.448-.29-3.453-.703-6.91-1.238-10.47-.937-6.77.576-12.76 6.106-13.756 12.836-.034.24-.068.482-.125.715a1.068 1.068 0 0 1-1.207.884 1.102 1.102 0 0 1-.9-1.34 16.654 16.654 0 0 1 2.814-7.5c3.762-5.403 9.029-7.968 15.57-7.833 2.66.057 5.309.485 7.999.753-.102-1.046-.241-2.235-.328-3.428-.334-4.762.523-9.216 3.491-13.095a18.59 18.59 0 0 1 1.67-1.88 3.442 3.442 0 0 1 4.827-.106 3.514 3.514 0 0 1 .207 4.89c-.64.753-1.264 1.505-1.858 2.209L65.97 20.79l2.201-1.85a3.385 3.385 0 0 1 3.841-.546 3.386 3.386 0 0 1 1.979 3.333 3.411 3.411 0 0 1-1.023 2.257 16.95 16.95 0 0 1-7.773 4.514c-.797.211-1.372-.06-1.553-.722-.18-.662.173-1.129.967-1.35a15.138 15.138 0 0 0 6.58-3.762c.752-.719.838-1.482.251-2.077-.587-.594-1.339-.512-2.043.17-3.092 3.009-6.88 3.923-11.04 3.61-1.532-.116-3.051-.41-4.579-.62-.161-.022-.323-.023-.564-.038.196.854.346 1.652.572 2.43.041.155.342.313.538.332 1.986.195 3.972.376 5.966.526.82.06 1.268.377 1.283 1.05.015.673-.448 1.159-1.294 1.129-1.66-.072-3.314-.215-4.973-.331-.283-.02-.565-.06-.933-.102.21 1.287.436 2.502.602 3.724.579 4.21.635 8.404-1.216 12.34-2.968 6.315-7.96 9.859-14.964 10.468-3.277.286-6.49-.195-9.695-.793l-.376-.06c.124 1.342.286 2.633.376 3.916.324 5.488-1.068 10.364-4.913 14.479-1.301 1.392-4.089 1.38-5.153.27-1.377-1.429-1.373-3.528.09-5.12.56-.646 1.072-1.342 1.576-1.955Zm6.948-16.714c.185.884.328 1.663.523 2.43a.658.658 0 0 0 .418.399c3.833.805 7.674 1.414 11.613.809 6.68-1.031 12.207-6.904 12.839-13.615.323-3.408-.15-6.726-.816-10.044-.813-4.055-1.795-8.088-2.412-12.177-.71-4.68 0-9.089 3.536-12.663a1.299 1.299 0 0 0 0-1.93 1.256 1.256 0 0 0-1.914.166 24.646 24.646 0 0 0-2.468 3.277c-2.05 3.51-2.366 7.37-1.79 11.285.514 3.495 1.286 6.952 2.004 10.417.753 3.611 1.505 7.212 1.238 10.943a12.9 12.9 0 0 1-8.844 11.324c-2.93.936-5.899.793-8.875.327-1.643-.264-3.284-.617-5.052-.948Zm1.979-21.274 16.315 16.316a9.503 9.503 0 0 0 2.073-4.263.724.724 0 0 0-.237-.534c-4.441-4.459-8.89-8.908-13.347-13.347a.75.75 0 0 0-.538-.24 9.627 9.627 0 0 0-4.266 2.068Zm-1.633 1.622a9.513 9.513 0 0 0-2.057 4.198.868.868 0 0 0 .244.662c4.422 4.442 8.852 8.874 13.29 13.298.129.128.336.313.464.282a9.577 9.577 0 0 0 4.382-2.125L27.994 29.647ZM10.445 52.259l11.286 11.286c.105-.557.248-1.159.327-1.764.376-2.938-.165-5.801-.752-8.653a.812.812 0 0 0-.557-.489c-1.88-.304-3.762-.632-5.643-.82a11.826 11.826 0 0 0-4.66.44Zm41.757-41.828c-.11.58-.252 1.155-.331 1.742-.376 2.96.154 5.846.752 8.727a.824.824 0 0 0 .56.486c1.882.3 3.763.62 5.644.816 1.589.16 3.194.007 4.725-.451l-11.35-11.32Zm-3.826 26.363v-.481c-.116-3.01-.775-5.91-1.46-8.81a.873.873 0 0 0-.594-.47c-1.81-.4-3.619-.802-5.443-1.13-1.238-.206-2.502-.263-3.762-.375 3.792 3.814 7.524 7.538 11.255 11.266h.004Zm-22.838.41v.497c.113 3.01.752 5.91 1.456 8.814a.888.888 0 0 0 .594.474c1.505.35 3.01.711 4.514.96 1.505.248 3.119.375 4.744.571L25.538 37.204Zm-4.815 13.137c-.196-.847-.335-1.58-.553-2.291a.85.85 0 0 0-.546-.49 23.837 23.837 0 0 0-2.283-.345c-3.119-.377-6.204-.275-9.202.782a14.91 14.91 0 0 0-5.567 3.521 1.264 1.264 0 0 0-.298 1.637 1.189 1.189 0 0 0 1.475.605c.332-.132.63-.335.877-.594a12.689 12.689 0 0 1 4.796-2.867c2.603-.835 5.267-.827 7.934-.474 1.087.143 2.163.328 3.367.516Z"/></svg>