<svg viewBox="0 0 53 58" fill="none" xmlns="http://www.w3.org/2000/svg"><path fill="none" d="M31.643 57c-1.017-.316-1.963-.844-2.145-1.916-.362-2.147-.39-4.319.47-6.393a8.406 8.406 0 0 1 4.037-4.319c1.362-.711 2.791-1.36 4.022-2.26 5.66-4.142 8.479-9.741 8.217-16.703a19.404 19.404 0 0 0-5-12.266 19.803 19.803 0 0 0-11.76-6.3c-10.55-1.65-20.78 5.606-22.516 15.998C5.465 31.776 9.97 40.231 18.3 44.056c2.81 1.287 4.662 3.317 5.177 6.346.195 1.37.236 2.756.121 4.135-.077 1.334-1.023 2.068-2.238 2.463H3.336c-.17-.063-.339-.127-.508-.196-1.129-.471-1.775-1.315-1.8-2.53-.042-1.928-.032-3.86 0-5.791.018-.654.272-1.28.715-1.765a2.792 2.792 0 0 1 1.702-.885c1.477-.17 2.781.632 3.104 2.027.106.663.145 1.336.118 2.007v1.505h11.225a.576.576 0 0 0 .023-.136.975.975 0 0 0-.035-.16c-.32-1.013-1.065-1.55-1.995-1.974a25.312 25.312 0 0 1-12.24-11.75 24.906 24.906 0 0 1-1.981-16.755C4.746 7.172 18.359-1.38 31.927 1.589a25.454 25.454 0 0 1 14.907 9.455 24.947 24.947 0 0 1 5.046 16.787c-.52 7.878-4.13 14.173-10.55 18.833-1.384 1.006-2.96 1.755-4.476 2.561-.911.481-1.582 1.082-1.784 2.154h11.267v-1.265c-.03-.727 0-1.456.092-2.178.275-1.382 1.599-2.236 3.06-2.1.686.072 1.32.393 1.782.9.46.507.715 1.166.715 1.848.032 1.64 0 3.278 0 4.92 0 2.054-.445 2.728-2.308 3.496H31.643Z" stroke="#fff" stroke-width="2" stroke-miterlimit="10"/></svg>