<svg viewBox="0 0 75 75" fill="none" xmlns="http://www.w3.org/2000/svg"><path fill="#fff" d="M74.98 24.006c-.12.544-.222 1.092-.363 1.627a10.707 10.707 0 0 1-16.616 5.964c-.156-.114-.316-.22-.461-.317l-26.126 26.2c.461.884 1.013 1.85 1.482 2.855.391.802.16 1.373-.493 1.639s-1.114-.028-1.529-.783c-.51-.964-1.09-1.89-1.736-2.768-.653-.876-.696-1.275.098-2.069L40.517 45.08l15.787-15.77c.915-.912 1.31-.924 2.276-.063a8.486 8.486 0 0 0 10.3.82 8.525 8.525 0 0 0 3.52-9.658 8.483 8.483 0 0 0-8.392-6.026c-.706.04-1.405.152-2.088.332-.52.121-1.013.227-1.436-.191-.422-.419-.336-.912-.195-1.432a8.475 8.475 0 0 0-6.312-10.671c-2.768-.634-5.263.047-7.43 1.857-.129.11-.246.235-.39.344-.58.497-1.15.505-1.616.02-.465-.485-.438-1.068.106-1.604A10.59 10.59 0 0 1 50.286.153c.184-.036.364-.102.547-.153h2.491c.108.052.22.093.337.121 4.598.763 8.036 3.981 8.939 8.49.235 1.173.196 2.397.285 3.621a.487.487 0 0 0 .145 0 10.676 10.676 0 0 1 11.58 7.876c.136.512.25 1.028.39 1.564l-.02 2.334Z"/><path fill="#fff" d="M43.779 17.507c-1.174-1.493-2.026-3.128-2.214-4.97a23.542 23.542 0 0 1 .067-3.996.974.974 0 0 1 1.24-.915 1.071 1.071 0 0 1 .895 1.349 8.48 8.48 0 0 0 2.166 7.64c.685.752.622 1.22-.215 2.058l-26.4 26.372-.363.36c-1.228 1.228-1.412 1.236-2.702.125a8.514 8.514 0 0 0-9.702-.876 8.54 8.54 0 0 0-4.157 9.084c.676 3.46 3.574 6.3 7.039 6.699 1.204.137 2.46-.082 3.683-.22.524-.058 1.1-.242 1.396.259.219.414.281.893.176 1.35-1.517 5.751 2.738 11.14 8.604 10.905a8.556 8.556 0 0 0 7.715-5.967c.059-.184.098-.391.164-.56a1.081 1.081 0 0 1 1.365-.781 1.064 1.064 0 0 1 .72 1.388c-.97 3.621-3.2 6.163-6.707 7.465-7.43 2.737-15.157-3.304-14.344-11.176 0-.114 0-.23.028-.41a10.708 10.708 0 0 1-8.068-2.163 10.477 10.477 0 0 1-3.644-5.185 10.723 10.723 0 0 1 3.43-11.615 10.418 10.418 0 0 1 6.749-2.405c2.504-.005 4.93.864 6.863 2.456 8.764-8.765 17.503-17.521 26.216-26.27Z"/><path fill="#fff" d="M31.16 39.09a5.82 5.82 0 0 1-.575.891 924.547 924.547 0 0 1-5.991 5.99c-.571.564-1.173.576-1.658.08-.485-.498-.462-1.045.093-1.604 2.007-2.022 4.009-4.047 6.062-6.022a1.462 1.462 0 0 1 1.232-.258c.332.097.547.582.837.922ZM70.593 22.876a6.405 6.405 0 0 1-1.642 4.263c-.56.625-1.209.715-1.725.258-.516-.458-.457-1.052.055-1.682 1.49-1.822 1.49-3.84 0-5.646-.516-.622-.52-1.217-.02-1.67.5-.454 1.119-.391 1.658.219a6.374 6.374 0 0 1 1.674 4.258Z"/></svg>