<svg viewBox="0 0 19 13" fill="none" xmlns="http://www.w3.org/2000/svg"><path fill-rule="evenodd" clip-rule="evenodd" d="M1.678 2.247H17.75c.536 0 .893-.357.893-.893 0-.535-.357-.892-.893-.892H1.68c-.536 0-.893.357-.893.892 0 .536.357.893.892.893Zm16.964 4.462c0 .535-.357.892-.893.892H1.68c-.536 0-.893-.357-.893-.892 0-.536.357-.893.893-.893h16.07c.536 0 .893.357.893.893ZM1.68 11.17h16.07c.536 0 .893.357.893.893 0 .535-.357.892-.893.892H1.68c-.536 0-.893-.357-.893-.892 0-.536.357-.893.893-.893Z"/></svg>