<svg viewBox="0 0 45 45" fill="none" xmlns="http://www.w3.org/2000/svg"><circle cx="22.5" cy="22.5" r="20.25" stroke="#fff" stroke-width="4.5"/><path d="M12.899 21.72A2.25 2.25 0 1 0 9.6 24.78L12.9 21.72Zm21.996-5.507a2.25 2.25 0 1 0-3.79-2.426l3.79 2.426Zm-12.85 15.905-1.896-1.212 1.895 1.212ZM9.6 24.781l8.432 9.08L21.33 30.8 12.9 21.72 9.6 24.78Zm14.338 8.55 10.956-17.118-3.79-2.426-10.956 17.119 3.79 2.425Zm-5.906.53a3.75 3.75 0 0 0 5.906-.53l-3.79-2.425a.75.75 0 0 1 1.181-.106l-3.297 3.062Z" fill="#fff"/></svg>