<svg  viewBox="0 0 16 16" fill="none" xmlns="http://www.w3.org/2000/svg"><path fill-rule="evenodd" clip-rule="evenodd" d="M15.36 6.957c.42-.07.699-.418.63-.766C15.64 2.991 13.056.417 9.774 0c-.35 0-.768.278-.768.626s.28.696.628.765c2.654.348 4.678 2.366 4.958 4.94.07.347.349.626.698.626h.07Zm-3.7 2.365a7.675 7.675 0 0 0 1.816.417 2.103 2.103 0 0 1 1.815 2.087v2.087c0 .556-.28 1.043-.628 1.46-.35.418-.908.627-1.467.627h-.21c-2.233-.209-4.468-.974-6.353-2.226A14.654 14.654 0 0 1 2.234 9.39C1.047 7.513.21 5.287 0 3.061c0-.557.14-1.113.489-1.53A2.16 2.16 0 0 1 1.885.764H4.19c1.048 0 1.955.765 2.095 1.809.07.626.21 1.252.419 1.809.28.765.07 1.67-.489 2.226l-.489.487c.838 1.321 1.955 2.365 3.212 3.2l.489-.487c.628-.557 1.466-.766 2.234-.487Zm2.235 4.591v-2.087c0-.348-.28-.626-.559-.696-.698-.139-1.396-.278-2.095-.556-.279-.14-.558-.07-.768.14l-.907.903c-.21.279-.559.279-.838.14a11.436 11.436 0 0 1-4.469-4.453.738.738 0 0 1 .14-.834l.908-.835c.14-.209.209-.487.14-.765a7.102 7.102 0 0 1-.56-2.087c-.07-.348-.349-.626-.698-.626H2.095c-.21 0-.42.139-.559.278-.07.139-.14.278-.14.487.21 2.017.908 3.965 2.025 5.704 1.048 1.6 2.374 2.991 3.98 3.965a13.164 13.164 0 0 0 5.726 2.018c.279 0 .419-.07.558-.209a.63.63 0 0 0 .21-.487Zm-4.26-9.67a.722.722 0 0 1-.558-.834.724.724 0 0 1 .838-.557c1.676.348 3.002 1.6 3.281 3.27.07.348-.14.765-.558.835h-.14c-.349 0-.628-.21-.698-.557a2.669 2.669 0 0 0-2.165-2.156Z" fill="#112F59"/></svg>