<svg xmlns="http://www.w3.org/2000/svg"  viewBox="0 0 606 497.3" xml:space="preserve"><path d="m2.9 486.1-1.7-1 1.7 1zm600.2 0 1.7-1-1.7 1zM308.1 4.9l1.7-1-1.7 1zm-10.2 0-1.7-1 1.7 1zM8 493.3c-3.1 0-5-3.4-3.4-6.1l-3.4-2.1c-3.3 5.3.6 12.2 6.8 12.2v-4zm593.4-6.1c1.6 2.7-.3 6.1-3.4 6.1v4c6.3 0 10.1-6.9 6.8-12.2l-3.4 2.1zM309.8 3.8c-3.1-5.1-10.5-5.1-13.6 0l3.4 2.1c1.6-2.5 5.3-2.5 6.8 0l3.4-2.1zm-3.4 2.1 295 481.3 3.4-2.1-295-481.3-3.4 2.1zM598 493.3H8v4h590v-4zM4.6 487.2l295-481.3-3.4-2.1-295 481.3 3.4 2.1z" fill="#112f59"/>
</svg>