<svg viewBox="0 0 58 58" fill="none" xmlns="http://www.w3.org/2000/svg"><circle cx="29.004" cy="28.996" r="28.996" fill="#fff" fill-opacity=".56"/><path d="m26.775 29.967-5.824 9.556h-5.858l7.079-10.95c-.674-.28-1.349-.686-2.023-1.221-.674-.558-1.232-1.29-1.674-2.197-.441-.93-.662-2.07-.662-3.418 0-2.301.825-4.057 2.476-5.266 1.65-1.232 3.964-1.848 6.94-1.848h8.09v24.9h-5.266v-9.556h-3.278Zm.663-11.02c-1.349 0-2.406.245-3.174.733-.744.488-1.116 1.302-1.116 2.44 0 1.093.36 1.965 1.082 2.616.743.628 1.86.942 3.347.942h2.476v-6.73h-2.615Z" fill="#fff"/></svg>