<svg viewBox="0 0 33 32" fill="none" xmlns="http://www.w3.org/2000/svg"><path fill-rule="evenodd" clip-rule="evenodd" d="M31.573 5.457A8.1 8.1 0 0 0 26.937.833a11.654 11.654 0 0 0-3.849-.738C21.393.02 20.856 0 16.556 0s-4.85 0-6.532.095A11.562 11.562 0 0 0 6.18.833a8.09 8.09 0 0 0-4.636 4.624 11.547 11.547 0 0 0-.738 3.84c-.076 1.69-.098 2.226-.098 6.519 0 4.29 0 4.836.098 6.518.027 1.314.275 2.61.738 3.842A8.108 8.108 0 0 0 6.18 30.8c1.225.478 2.526.749 3.847.79 1.695.075 2.232.098 6.532.098s4.85 0 6.532-.097a11.67 11.67 0 0 0 3.849-.736 8.113 8.113 0 0 0 4.636-4.626c.463-1.23.71-2.527.737-3.84.076-1.69.099-2.227.099-6.519s0-4.837-.099-6.518a11.542 11.542 0 0 0-.74-3.895ZM29.43 22.204a8.842 8.842 0 0 1-.548 2.965 5.253 5.253 0 0 1-3.014 3.006 8.79 8.79 0 0 1-2.94.547c-1.673.077-2.145.096-6.434.096-4.293 0-4.731 0-6.435-.096a8.747 8.747 0 0 1-2.939-.547 5.25 5.25 0 0 1-3.027-3.006 8.91 8.91 0 0 1-.547-2.932c-.076-1.669-.093-2.14-.093-6.42 0-4.281 0-4.719.093-6.421a8.834 8.834 0 0 1 .547-2.964A5.252 5.252 0 0 1 7.12 3.424a8.836 8.836 0 0 1 2.939-.546c1.674-.076 2.144-.097 6.435-.097 4.29 0 4.73 0 6.434.097a8.75 8.75 0 0 1 2.94.546 5.261 5.261 0 0 1 3.014 3.008c.345.938.532 1.93.548 2.932.075 1.671.095 2.14.095 6.422 0 4.28 0 4.74-.076 6.42h-.02v-.002Zm-2.3-14.942a1.981 1.981 0 1 1-3.963-.002 1.981 1.981 0 0 1 3.962.002Zm-18.496 8.58a7.923 7.923 0 0 1 7.927-7.92c4.376 0 7.926 3.547 7.926 7.92a7.926 7.926 0 0 1-7.926 7.924 7.924 7.924 0 0 1-7.927-7.923Zm2.776.002a5.149 5.149 0 0 0 5.15 5.146 5.146 5.146 0 1 0 0-10.29 5.148 5.148 0 0 0-5.15 5.145Z"/></svg>