<svg viewBox="0 0 43 26" fill="none" xmlns="http://www.w3.org/2000/svg"><path fill-rule="evenodd" clip-rule="evenodd" d="M41.32 2.287c.289-.953 0-1.654-1.388-1.654h-4.579c-1.165 0-1.702.605-1.994 1.273 0 0-2.328 5.575-5.627 9.197-1.068 1.05-1.553 1.383-2.135 1.383-.292 0-.73-.333-.73-1.287V2.287c0-1.145-.32-1.654-1.29-1.654h-7.201c-.728 0-1.166.53-1.166 1.034 0 1.084 1.65 1.335 1.82 4.384v6.625c0 1.453-.267 1.717-.85 1.717-1.552 0-5.329-5.602-7.57-12.01-.435-1.248-.874-1.75-2.045-1.75H1.983c-1.309 0-1.57.605-1.57 1.273 0 1.19 1.552 7.1 7.23 14.917 3.786 5.338 9.115 8.232 13.97 8.232 2.911 0 3.27-.642 3.27-1.75V19.27c0-1.285.276-1.542 1.199-1.542.68 0 1.844.335 4.561 2.908 3.105 3.051 3.617 4.419 5.364 4.419h4.58c1.308 0 1.964-.642 1.587-1.912-.415-1.263-1.898-3.096-3.864-5.272-1.068-1.238-2.669-2.573-3.156-3.241-.678-.857-.485-1.239 0-2 0 0 5.583-7.722 6.163-10.343h.002Z"/></svg>