<svg viewBox="0 0 38 26" fill="none" xmlns="http://www.w3.org/2000/svg"><path d="M36.757 4.318a4.324 4.324 0 0 0-1.19-1.971 4.734 4.734 0 0 0-2.076-1.152C30.576.427 18.897.427 18.897.427 14.03.37 9.161.615 4.323 1.157a4.905 4.905 0 0 0-2.077 1.179 4.496 4.496 0 0 0-1.208 1.98 45.152 45.152 0 0 0-.757 8.528 45.07 45.07 0 0 0 .757 8.528 4.387 4.387 0 0 0 1.203 1.97 4.804 4.804 0 0 0 2.082 1.152c2.953.767 14.574.767 14.574.767 4.875.056 9.749-.188 14.594-.73a4.734 4.734 0 0 0 2.077-1.151 4.315 4.315 0 0 0 1.187-1.971c.536-2.811.796-5.668.778-8.53.04-2.873-.22-5.743-.776-8.563v.002Zm-21.572 13.84V7.531l9.716 5.314-9.716 5.313Z"/></svg>