<svg viewBox="0 0 123 37" fill="none" xmlns="http://www.w3.org/2000/svg"><g clip-path="url(#a)" fill="#112F59"><path d="M33.122 4.954V35.16H3.207V4.954h29.915zm.853-.844H2.355v31.894h31.62V4.11z"/><path d="M18.165.844c3.428-.003 6.78 1 9.632 2.884a17.2 17.2 0 016.39 7.699 17.008 17.008 0 01.994 9.917 17.11 17.11 0 01-4.74 8.791 17.383 17.383 0 01-8.872 4.702 17.486 17.486 0 01-10.015-.974 17.294 17.294 0 01-7.78-6.32 17.044 17.044 0 01-2.922-9.537c0-4.549 1.824-8.911 5.07-12.13A17.415 17.415 0 0118.165.845zm0-.844A18.308 18.308 0 008.059 3.026a18.045 18.045 0 00-6.704 8.078A17.845 17.845 0 00.313 21.509c.7 3.493 2.43 6.703 4.972 9.223a18.237 18.237 0 009.31 4.933 18.35 18.35 0 0010.507-1.022 18.145 18.145 0 008.162-6.632 17.883 17.883 0 003.066-10.005c0-4.773-1.913-9.35-5.32-12.726A18.272 18.272 0 0018.165 0z"/><path d="M33.764 14.005H2.412v.836h31.352v-.836z"/><path d="M17.759 14.354v21.452h.843V14.354h-.843z"/><path d="M18.895 14.388l9.514 18.428h-.969l-9.517-18.428h.972z"/><path d="M8.932 32.723l9.5-18.307h-.966L7.96 32.723h.972z"/><path d="M18.88 14.514l11.853-10.14H29.41L17.634 14.49l1.247.025z"/><path d="M17.5 14.514L5.648 4.374h1.324L18.747 14.49l-1.247.025zm34.437-4.282h-3.889l-.767 1.784h-1.489l3.5-7.717h1.42l3.512 7.706h-1.511l-.776-1.773zm-.477-1.125l-1.466-3.376-1.457 3.376h2.923zm9.458-2.971v4.988c0 2.063-1.068 3.095-3.202 3.095a5.992 5.992 0 01-1.622-.214 3.473 3.473 0 01-1.267-.622l.622-1.035c.294.23.628.403.986.512.389.126.795.19 1.204.192.65 0 1.136-.147 1.435-.44a1.814 1.814 0 00.454-1.344v-.307a2.302 2.302 0 01-.852.582 3.082 3.082 0 01-1.136.2 3.239 3.239 0 01-1.529-.36 2.68 2.68 0 01-1.076-1.007 2.988 2.988 0 010-2.968c.258-.425.631-.77 1.076-.996a3.302 3.302 0 011.529-.352c.4-.005.797.066 1.17.208.345.135.649.355.884.639v-.782l1.324.011zm-1.873 3.981a1.594 1.594 0 00.506-1.215 1.556 1.556 0 00-.506-1.202 2.058 2.058 0 00-2.599 0 1.557 1.557 0 00-.506 1.202 1.57 1.57 0 00.506 1.215 2.029 2.029 0 002.6 0zm9.25-.599H63.64c.07.412.299.782.64 1.03.374.262.825.395 1.283.38a2.186 2.186 0 001.611-.64l.744.845a2.49 2.49 0 01-1.011.717 4.042 4.042 0 01-3.1-.143 2.781 2.781 0 01-1.136-1.075 3.208 3.208 0 010-3.095 2.797 2.797 0 011.094-1.075 3.238 3.238 0 011.58-.385 3.13 3.13 0 011.548.38 2.7 2.7 0 011.068 1.069c.263.488.395 1.036.384 1.59-.026.09-.035.224-.049.402zm-4.105-1.97a1.656 1.656 0 00-.568 1.041h3.366c-.044-.4-.237-.77-.542-1.035a1.666 1.666 0 00-1.137-.397c-.41-.005-.808.14-1.119.405v-.014zM54.04 24.246v-5.11l-2.557 4.22h-.645l-2.557-4.16v5.05h-1.383v-7.709h1.19l3.071 5.112 3.034-5.112h1.19v7.709H54.04zm7.605-5.317c.463.413.696 1.04.696 1.876v3.441h-1.313v-.714a1.607 1.607 0 01-.727.587c-.36.145-.747.215-1.136.206-.402.009-.8-.069-1.168-.228a1.783 1.783 0 01-.773-.627 1.581 1.581 0 01-.284-.91 1.543 1.543 0 01.597-1.27c.394-.318 1.018-.477 1.872-.48h1.534v-.086a1.2 1.2 0 00-.372-.948 1.636 1.636 0 00-1.108-.33c-.334 0-.666.052-.983.155a2.402 2.402 0 00-.815.428l-.54-1.002a3.46 3.46 0 011.122-.54c.452-.126.92-.188 1.39-.186.877 0 1.545.206 2.008.628zm-1.267 4.16c.263-.152.463-.39.568-.674v-.684h-1.435c-.8 0-1.199.262-1.199.782a.698.698 0 00.299.594c.247.16.54.236.835.22.327.004.65-.08.932-.243v.006zm8.906-4.138c.45.433.677 1.076.68 1.927v3.377h-1.39v-3.202c.031-.42-.1-.835-.367-1.162a1.367 1.367 0 00-1.045-.391 1.609 1.609 0 00-1.21.458 1.804 1.804 0 00-.446 1.314v2.974h-1.39v-5.88h1.324v.76a2.19 2.19 0 01.867-.617 3.176 3.176 0 011.179-.208 2.496 2.496 0 011.798.65zm6.719-.022c.463.413.693 1.04.693 1.876v3.441h-1.31v-.714c-.18.263-.433.467-.73.587-.36.145-.747.215-1.136.206-.402.009-.8-.069-1.168-.228a1.767 1.767 0 01-.773-.627 1.582 1.582 0 01-.284-.91 1.55 1.55 0 01.594-1.27c.398-.318 1.022-.477 1.872-.48h1.546v-.086a1.19 1.19 0 00-.373-.948 1.622 1.622 0 00-1.105-.33c-.333 0-.665.052-.983.155a2.419 2.419 0 00-.818.428l-.542-1.002c.337-.247.717-.43 1.122-.54.452-.126.92-.188 1.389-.186.872 0 1.543.206 2.006.628zm-1.265 4.155c.264-.152.465-.39.569-.675v-.684h-1.42c-.802 0-1.203.261-1.203.782a.7.7 0 00.302.594c.246.16.538.236.832.22.323.004.64-.078.92-.237zm9.682-4.718v4.988c0 2.064-1.067 3.095-3.201 3.095a6.086 6.086 0 01-1.623-.214 3.422 3.422 0 01-1.267-.624l.623-1.035c.292.23.625.405.983.514.39.126.797.19 1.207.192.65 0 1.123-.148 1.42-.442a1.79 1.79 0 00.458-1.342v-.31c-.24.26-.536.46-.867.586a3.082 3.082 0 01-1.122.197 3.227 3.227 0 01-1.528-.358 2.706 2.706 0 01-1.08-1.007 2.988 2.988 0 010-2.968 2.66 2.66 0 011.08-.996 3.26 3.26 0 011.528-.352c.4-.004.797.066 1.17.208.346.135.65.354.884.64v-.772h1.335zm-1.872 3.981a1.594 1.594 0 00.506-1.215 1.557 1.557 0 00-.506-1.202 2.063 2.063 0 00-2.602 0 1.569 1.569 0 00-.506 1.202 1.58 1.58 0 00.506 1.215 2.043 2.043 0 002.602 0zm9.25-.605h-4.656c.07.413.299.782.64 1.03a2.11 2.11 0 001.283.38 2.187 2.187 0 001.611-.639l.744.844a2.51 2.51 0 01-1.011.715 4.012 4.012 0 01-3.1-.14 2.803 2.803 0 01-1.15-1.064 3.214 3.214 0 010-3.095 2.771 2.771 0 011.094-1.072 3.192 3.192 0 011.58-.386 3.124 3.124 0 011.547.38 2.69 2.69 0 011.069 1.067c.263.49.395 1.037.383 1.592-.011.082-.02.217-.034.388zm-4.105-1.97a1.627 1.627 0 00-.568 1.042h3.366a1.701 1.701 0 00-.37-.808 1.727 1.727 0 00-1.619-.601c-.3.05-.58.176-.815.368h.006zm14.727-.827c.438.428.657 1.072.657 1.933v3.376h-1.39v-3.201a1.715 1.715 0 00-.343-1.162 1.256 1.256 0 00-.989-.391 1.453 1.453 0 00-1.122.458 1.854 1.854 0 00-.424 1.306v2.982H97.42v-3.193a1.713 1.713 0 00-.343-1.162 1.25 1.25 0 00-.989-.391 1.467 1.467 0 00-1.136.453 1.861 1.861 0 00-.418 1.31v2.983h-1.39v-5.88h1.325v.748c.224-.265.51-.472.832-.605.353-.142.73-.212 1.11-.208a2.7 2.7 0 011.186.248c.338.159.622.413.815.731.25-.314.575-.56.946-.72a3.047 3.047 0 011.275-.259 2.433 2.433 0 011.787.645zm8.046 2.797h-4.656c.069.413.299.782.639 1.03.374.262.826.396 1.284.38a2.188 2.188 0 001.611-.639l.744.844a2.495 2.495 0 01-1.011.715 3.684 3.684 0 01-1.378.245 3.726 3.726 0 01-1.722-.386 2.804 2.804 0 01-1.15-1.075 3.006 3.006 0 01-.406-1.558 3.062 3.062 0 01.394-1.548 2.795 2.795 0 011.094-1.072 3.21 3.21 0 011.58-.385 3.15 3.15 0 011.551.38c.45.248.819.618 1.065 1.066a3.23 3.23 0 01.384 1.592c0 .105-.009.24-.023.411zm-4.105-1.97a1.656 1.656 0 00-.568 1.042h3.366c-.044-.4-.237-.77-.542-1.036a1.82 1.82 0 00-2.273 0l.017-.005zm10.627-.821c.451.433.677 1.076.679 1.927v3.377h-1.389v-3.202a1.65 1.65 0 00-.366-1.162 1.374 1.374 0 00-1.046-.391 1.604 1.604 0 00-1.21.458 1.794 1.794 0 00-.446 1.314v2.974h-1.389v-5.88h1.324v.76c.229-.271.521-.483.852-.617a3.176 3.176 0 011.179-.208 2.499 2.499 0 011.812.65zM123 23.928a1.58 1.58 0 01-.594.281c-.24.069-.489.103-.738.102a2.108 2.108 0 01-1.512-.507 1.949 1.949 0 01-.534-1.477v-2.816h-.977v-1.1h.98v-1.345h1.389v1.345h1.591v1.1h-1.591v2.794a.916.916 0 00.213.655.784.784 0 00.611.228c.279.01.553-.076.776-.245l.386.985zm-71.687 6.395l-2.222 4.08a1.76 1.76 0 01-.568.647c-.204.14-.446.214-.693.214a1.6 1.6 0 01-.603-.133l.148-.416c.146.06.302.092.46.096a.91.91 0 00.79-.518l.14-.236-1.99-3.734h.555l1.704 3.283 1.747-3.283h.532zm3.847 1.207v3.64h-.498v-3.204h-2.307v3.205h-.497v-3.64h3.301zm4.238.203c.277.151.505.379.656.655a2.078 2.078 0 010 1.933c-.153.272-.38.496-.656.644a1.892 1.892 0 01-.94.234 1.77 1.77 0 01-.807-.183 1.56 1.56 0 01-.591-.537v2.028h-.495V31.53h.475v.72c.14-.237.345-.432.59-.562a1.74 1.74 0 01.828-.194c.329-.003.653.079.94.239zm-.284 2.861c.21-.117.382-.292.494-.504.12-.228.18-.482.176-.74a1.513 1.513 0 00-.176-.737 1.302 1.302 0 00-.494-.503 1.451 1.451 0 00-1.4 0c-.208.12-.377.294-.49.503-.122.227-.184.48-.178.737-.005.258.057.513.178.74.11.212.28.386.49.504a1.47 1.47 0 001.4 0zm4.599-2.724a1.381 1.381 0 01.384 1.058v2.251h-.475v-.563a1.133 1.133 0 01-.491.442 1.735 1.735 0 01-.773.16 1.528 1.528 0 01-.98-.28 1 1 0 01-.364-.754.989.989 0 01.341-.763 1.672 1.672 0 011.08-.282h1.167v-.219a.92.92 0 00-.267-.717 1.09 1.09 0 00-.775-.248c-.229 0-.456.039-.67.115-.203.07-.39.176-.552.316l-.224-.366c.197-.164.425-.288.67-.366.266-.085.544-.128.824-.127a1.57 1.57 0 011.105.344zm-.568 2.772c.207-.134.365-.332.449-.563v-.596H62.44c-.63 0-.943.216-.943.65a.588.588 0 00.244.503c.203.132.443.196.685.183.256.008.51-.058.727-.191l-.008.014zm5.364-.462a.836.836 0 01-.356.735c-.318.192-.69.282-1.062.256h-1.673v-3.64h1.622c.346-.021.69.063.986.241a.788.788 0 01.358.692.816.816 0 01-.165.51.986.986 0 01-.457.315.855.855 0 01.552.299.838.838 0 01.195.593zM65.9 33.15h1.105c.23.016.457-.04.653-.16a.54.54 0 00.227-.464.51.51 0 00-.227-.456 1.17 1.17 0 00-.653-.154H65.9v1.235zm1.88 1.48a.526.526 0 00.239-.475.558.558 0 00-.216-.484 1.22 1.22 0 00-.687-.154H65.9v1.268h1.167c.248.017.496-.036.713-.154zm4.893-3.1v3.64h-.491v-3.204H70.42l-.05.9a6.642 6.642 0 01-.265 1.745.758.758 0 01-.264.437.772.772 0 01-.483.173 1.45 1.45 0 01-.358-.056l.037-.422c.057.014.115.023.173.028a.476.476 0 00.435-.264 1.77 1.77 0 00.193-.65c.034-.259.063-.602.085-1.027l.063-1.3h2.687zm4.237 0v3.64h-.467v-1.203H75.15l-.852 1.204h-.525l.915-1.275c-.257-.06-.487-.2-.657-.4a1.118 1.118 0 01-.23-.72 1.089 1.089 0 01.418-.928 1.849 1.849 0 011.136-.318h1.554zm-1.566 2.071h1.1v-1.635h-1.075c-.719 0-1.076.282-1.076.825 0 .543.357.81 1.05.81zm2.977-2.071h.497v2.895l2.455-2.895h.44v3.64h-.497v-2.894L78.77 35.17h-.449v-3.64zm.918-.762a.843.843 0 01-.284-.667h.355a.557.557 0 00.196.433c.136.113.31.171.488.164.18.008.356-.05.495-.164a.562.562 0 00.198-.433h.356a.835.835 0 01-.285.667A1.144 1.144 0 0180 31a1.124 1.124 0 01-.761-.233zm8.812 3.412a.836.836 0 01-.355.735c-.319.192-.69.282-1.063.256h-1.667v-3.64h1.622c.345-.02.688.064.983.241a.786.786 0 01.358.693.8.8 0 01-.165.509.971.971 0 01-.457.315.855.855 0 01.55.3.839.839 0 01.194.592zm-2.608-1.029h1.105c.23.015.458-.042.654-.16a.53.53 0 00.227-.465.506.506 0 00-.227-.455 1.17 1.17 0 00-.654-.155h-1.105v1.235zm1.88 1.48a.525.525 0 00.24-.476.559.559 0 00-.216-.483 1.217 1.217 0 00-.685-.155h-1.219v1.269h1.168a1.31 1.31 0 00.713-.155zm2.447.335a1.77 1.77 0 01-.67-.662 1.997 1.997 0 010-1.913c.158-.276.39-.503.67-.658a2.085 2.085 0 011.917 0c.28.154.511.382.668.658a2.037 2.037 0 010 1.913 1.745 1.745 0 01-.668.662 2.042 2.042 0 01-1.917 0zm1.662-.375c.208-.117.376-.292.486-.503a1.675 1.675 0 000-1.48 1.226 1.226 0 00-.486-.504 1.483 1.483 0 00-1.407 0 1.252 1.252 0 00-.488.504 1.62 1.62 0 000 1.48c.11.21.28.385.488.503a1.483 1.483 0 001.407 0zm4.591-1.004a.746.746 0 01.213.54.84.84 0 01-.219.563 1.42 1.42 0 01-.6.382 2.445 2.445 0 01-.829.135 2.737 2.737 0 01-.784-.112 1.997 1.997 0 01-.67-.338l.167-.365c.178.126.377.221.588.28.219.07.447.105.676.105.291.013.58-.053.836-.191a.567.567 0 00.326-.515.497.497 0 00-.267-.453 1.369 1.369 0 00-.727-.163h-.628v-.346h.602c.232.01.461-.045.662-.158a.476.476 0 00.253-.42.506.506 0 00-.284-.455 1.452 1.452 0 00-.736-.166 2.54 2.54 0 00-1.176.298l-.139-.382c.42-.221.888-.337 1.364-.338a2.22 2.22 0 01.758.121c.204.067.387.185.531.343a.756.756 0 01.19.512.716.716 0 01-.19.493 1.138 1.138 0 01-.522.318c.228.041.44.15.605.312zm4.17-1.854c.276.154.503.38.656.655a2.076 2.076 0 010 1.933c-.151.274-.377.5-.653.653a1.892 1.892 0 01-.94.233 1.761 1.761 0 01-.807-.182 1.56 1.56 0 01-.591-.538v2.029h-.497V31.53h.477v.72c.141-.237.346-.432.591-.562.255-.132.54-.199.827-.194.328-.003.651.08.937.239zm-.284 2.861a1.23 1.23 0 00.492-.504c.122-.227.183-.482.179-.74a1.493 1.493 0 00-.179-.737 1.28 1.28 0 00-.492-.503 1.451 1.451 0 00-1.4 0c-.207.12-.377.294-.492.503-.12.227-.18.481-.176.737a1.54 1.54 0 00.176.74c.112.211.283.386.492.504a1.47 1.47 0 001.4 0zm4.597-2.724a1.382 1.382 0 01.383 1.058v2.251h-.474v-.562a1.132 1.132 0 01-.492.441 1.734 1.734 0 01-.772.16 1.531 1.531 0 01-.981-.28.998.998 0 01-.277-1.172.998.998 0 01.255-.345 1.67 1.67 0 011.079-.282h1.168v-.219a.927.927 0 00-.267-.717 1.089 1.089 0 00-.776-.248c-.228 0-.455.039-.67.115a1.694 1.694 0 00-.568.316l-.222-.366c.198-.164.425-.288.671-.366.266-.085.544-.128.823-.127.404-.033.806.09 1.12.344zm-.568 2.772c.207-.134.365-.332.448-.563v-.596h-1.153c-.631 0-.946.216-.946.65a.588.588 0 00.247.503c.202.133.443.197.685.183.256.008.509-.058.727-.191l-.008.014zm2.835.323a1.692 1.692 0 01-.673-.66 1.995 1.995 0 010-1.917c.158-.277.391-.505.673-.658.3-.158.637-.239.977-.233.295-.007.587.056.852.182.245.119.45.305.588.538l-.369.247a1.17 1.17 0 00-.46-.405 1.385 1.385 0 00-.608-.135 1.455 1.455 0 00-.719.177c-.21.118-.382.293-.494.504a1.628 1.628 0 000 1.486c.114.208.285.38.494.498.22.12.468.18.719.177.21 0 .418-.044.608-.133a1.13 1.13 0 00.46-.402l.369.25a1.41 1.41 0 01-.593.538 1.923 1.923 0 01-.853.183 2.004 2.004 0 01-.971-.236zm5.889-2.999h-1.389v3.205h-.497v-3.205h-1.378v-.436h3.278l-.014.436zm1.114 2.999a1.775 1.775 0 01-.674-.66 2 2 0 010-1.914c.16-.276.393-.504.674-.658a2.074 2.074 0 011.914 0c.28.154.511.382.668.658a2.012 2.012 0 010 1.913 1.739 1.739 0 01-.668.661 2.033 2.033 0 01-1.914 0zm1.659-.374c.208-.117.376-.292.485-.503a1.669 1.669 0 000-1.48 1.223 1.223 0 00-.485-.504 1.486 1.486 0 00-1.421 0 1.25 1.25 0 00-.488.504 1.617 1.617 0 000 1.48c.111.21.28.385.488.503a1.485 1.485 0 001.421 0zm6.335-3.061v3.64h-.441v-2.88l-1.488 2.44h-.225l-1.488-2.446v2.887h-.452v-3.64h.503l1.557 2.624 1.588-2.625h.446z"/></g><defs><clipPath id="a"><path fill="#fff" d="M0 0h123v36.516H0z"/></clipPath></defs></svg>