<svg xmlns="http://www.w3.org/2000/svg" xmlns:xlink="http://www.w3.org/1999/xlink"><defs><clipPath id="a"><path fill="#fff" transform="translate(.769 .375)" d="M0 0h52.44v42.22H0z"/></clipPath></defs><symbol id="bar" viewBox="0 0 18 18"/><symbol id="long-arrow" viewBox="0 0 8 696"><path d="M4.354.994a.5.5 0 00-.708 0L.464 4.176a.5.5 0 00.708.707L4 2.055l2.828 2.828a.5.5 0 10.708-.707L4.354.994zM4.5 695.348v-694h-1v694h1z"/></symbol><symbol id="mail" viewBox="0 0 24 24"><path clip-rule="evenodd" d="M20 3H4C2.3 3 1 4.3 1 6v12c0 1.7 1.3 3 3 3h16c1.7 0 3-1.3 3-3V6c0-1.7-1.3-3-3-3zM4 5h16c.4 0 .7.2.9.6L12 11.8 3.1 5.6c.2-.4.5-.6.9-.6zM3 18c0 .6.4 1 1 1h16c.6 0 1-.4 1-1V7.9l-8.4 5.9c-.2.1-.4.2-.6.2-.2 0-.4-.1-.6-.2L3 7.9V18z"/></symbol><symbol id="next" viewBox="0 0 16 28"><path d="M.908 3.841c-.766-.766-.766-1.916 0-2.683.384-.383.767-.575 1.342-.575.575 0 .958.192 1.342.575l11.5 11.5c.766.767.766 1.917 0 2.684l-11.5 11.5c-.767.766-1.917.766-2.684 0-.766-.767-.766-1.917 0-2.684L11.067 14 .907 3.84z"/></symbol><symbol id="phone" viewBox="0 0 24 24"><path clip-rule="evenodd" d="M23.041 10.435c.629-.105 1.048-.626.943-1.148-.524-4.8-4.399-8.66-9.321-9.287-.524 0-1.152.417-1.152.94 0 .52.419 1.043.942 1.147 3.98.522 7.017 3.548 7.436 7.409.105.521.524.939 1.048.939h.104zm-5.55 3.548c.837.313 1.78.521 2.723.626 1.57.208 2.723 1.565 2.723 3.13v3.13c0 .835-.42 1.566-.943 2.192-.524.626-1.361.939-2.2.939h-.314c-3.351-.313-6.703-1.46-9.53-3.34a21.983 21.983 0 01-6.599-6.573C1.571 11.27.314 7.93 0 4.591c0-.834.21-1.67.733-2.295a3.239 3.239 0 012.095-1.148h3.456c1.571 0 2.933 1.148 3.142 2.713.105.939.314 1.878.628 2.713.42 1.148.105 2.504-.733 3.339l-.733.73c1.257 1.983 2.933 3.548 4.818 4.8l.733-.73c.943-.835 2.2-1.148 3.352-.73zm3.351 6.887v-3.13c0-.523-.419-.94-.838-1.044-1.047-.209-2.095-.418-3.142-.835-.419-.209-.838-.104-1.152.209l-1.362 1.356c-.314.418-.837.418-1.256.209a17.154 17.154 0 01-6.703-6.679 1.104 1.104 0 01.21-1.252l1.36-1.252c.21-.313.315-.73.21-1.148a10.654 10.654 0 01-.838-3.13c-.104-.522-.523-.94-1.047-.94H3.142c-.314 0-.628.21-.838.418-.105.209-.21.418-.21.73.315 3.027 1.362 5.948 3.038 8.557 1.57 2.4 3.56 4.487 5.97 5.948 2.618 1.67 5.55 2.713 8.588 3.026.419 0 .628-.104.838-.313.21-.209.314-.417.314-.73zM14.453 6.365a1.083 1.083 0 01-.838-1.252c.105-.522.629-.94 1.257-.835 2.514.522 4.504 2.4 4.923 4.905.104.521-.21 1.147-.838 1.252h-.21c-.523 0-.942-.313-1.047-.835-.314-1.67-1.571-2.922-3.247-3.235z"/></symbol><symbol id="pin" viewBox="0 0 21 28"><circle cx="10.125" cy="10.646" r="4.125" stroke="#fff" stroke-width="2"/><path d="M19.25 10.695c0 2.094-1.155 4.72-2.8 7.345-1.621 2.585-3.612 5.008-5.07 6.66a1.682 1.682 0 01-2.545.019c-1.459-1.615-3.44-3.987-5.05-6.555C2.154 15.562 1 12.908 1 10.695c0-5.07 4.09-9.174 9.125-9.174s9.125 4.103 9.125 9.174z" stroke="#fff" stroke-width="2"/></symbol><symbol id="play" viewBox="0 0 48.8 55.4"><path d="M3 55.4c-.5 0-1-.1-1.5-.4-.9-.6-1.5-1.5-1.5-2.6V3C0 1.9.6.9 1.5.4s2.1-.5 3 0l42.8 24.7-.3.4.3-.4c.9.5 1.5 1.5 1.5 2.6s-.6 2.1-1.5 2.6L4.5 55c-.5.2-1 .4-1.5.4zM3 1c-.3 0-.7.1-1 .3-.6.3-1 1-1 1.7v49.4c0 .7.4 1.4 1 1.7.6.4 1.4.4 2 0l42.8-24.7c.6-.4 1-1 1-1.7s-.4-1.4-1-1.7L4 1.3c-.3-.2-.7-.3-1-.3z"/></symbol><symbol id="prev" viewBox="0 0 16 28"><path d="M15.092 24.159c.766.766.766 1.916 0 2.683-.384.383-.767.575-1.342.575-.575 0-.958-.192-1.342-.575l-11.5-11.5c-.766-.767-.766-1.917 0-2.684l11.5-11.5c.767-.766 1.917-.766 2.684 0 .766.767.766 1.917 0 2.684L4.933 14l10.159 10.16z"/></symbol><symbol id="cost-1" viewBox="0 0 43 43"><path d="M12.337 17.276h24.736a2.378 2.378 0 012.379 2.378v19.968A2.378 2.378 0 0137.073 42H12.1a2.378 2.378 0 01-2.378-2.378l.214-19.956a2.378 2.378 0 012.402-2.39z" stroke="#112F59" stroke-width="1.784" stroke-miterlimit="10"/><path d="M24.622 27.325l2.379 2.378a.476.476 0 00.832-.333V17.478h-6.434V29.37a.476.476 0 00.833.333l2.378-2.461" stroke="#112F59" stroke-width="1.784" stroke-linecap="round" stroke-linejoin="round"/><path d="M27.956 3.203L2.64 14.983a1.808 1.808 0 00-.876 2.4l1.374 2.955a1.808 1.808 0 002.401.876L30.856 9.436a1.808 1.808 0 00.876-2.402L30.358 4.08a1.808 1.808 0 00-2.402-.877z" fill="#fff" stroke="#112F59" stroke-width="1.784" stroke-miterlimit="10"/><path d="M15.453 8.571s-2.188-6.41 2.474-7.48a3.104 3.104 0 013.639 1.89c.404 1.19 0 2.724-2.926 4.115l-3.187 1.475zm-1.118.571S10.84 3.339 7.022 6.216a3.092 3.092 0 00-.904 3.996c.642 1.082 2.033 1.808 5.03.416l3.187-1.486zm15.508 4.983a.238.238 0 100-.476.238.238 0 000 .476zm6.255-9.788a.238.238 0 100-.476.238.238 0 000 .476z" stroke="#112F59" stroke-width="1.784" stroke-miterlimit="10"/><path d="M38.084 8.023v6.09m3.045-3.045h-6.09" stroke="#112F59" stroke-width="1.784" stroke-linecap="round" stroke-linejoin="round"/></symbol><symbol id="cost-2" viewBox="0 0 42 42"><path d="M41.035 24.408a17.029 17.029 0 01-.555 2.06 7.4 7.4 0 01-4.581 4.333l-.188.068-.128.069a7.897 7.897 0 01-.539 3.196 7.691 7.691 0 01-7.025 4.803h-2.342a.41.41 0 00-.418.257 3.129 3.129 0 01-2.932 1.786c-1.08.044-2.162.016-3.239-.086a3.111 3.111 0 01-2.624-3.316 3.17 3.17 0 013.068-3.008h2.966a3.025 3.025 0 012.718 1.71.547.547 0 00.598.35 24.775 24.775 0 003.299-.18 5.128 5.128 0 004.094-5.222l-.479-.094a3.419 3.419 0 01-2.692-3.29v-8.281a3.42 3.42 0 012.931-3.316l.274-.043c.06-4.547-1.624-8.256-5.427-10.76a11.657 11.657 0 00-13.187-.24 11.896 11.896 0 00-5.76 10.983c.289.064.574.144.854.24a3.47 3.47 0 012.274 3.247v8.085a3.486 3.486 0 01-3.496 3.47 7.529 7.529 0 01-7.452-8.367 7.35 7.35 0 015.128-6.273.41.41 0 00.307-.488 14.016 14.016 0 012.009-7.905 14.332 14.332 0 0111.22-7.128l.3-.068h2.034c.098.03.198.053.3.068A14.529 14.529 0 0135.582 16.05a.478.478 0 00.367.564 7.368 7.368 0 014.88 5.359c.085.325.137.658.205.983v1.452zm-31.348-.735v-3.862a1.17 1.17 0 00-1.325-1.282 5.15 5.15 0 00-.222 10.298 1.24 1.24 0 001.547-1.368v-3.786zm22.69-.05v3.905a1.205 1.205 0 001.42 1.307l.35-.042a5.131 5.131 0 10-.402-10.256 1.162 1.162 0 00-1.367 1.3c-.009 1.264 0 2.529 0 3.785z" stroke="#112F59" stroke-width="1.282" stroke-miterlimit="10"/><path d="M21.037 20.332c.44-.43.995-.727 1.598-.855a3.008 3.008 0 012.889 4.923c-.154.17-.325.333-.488.504l-3.367 3.308a.854.854 0 01-1.265 0c-1.239-1.24-2.487-2.47-3.709-3.71a2.889 2.889 0 01-.752-3.076 2.855 2.855 0 012.41-2.051 2.95 2.95 0 012.3.615c.133.107.262.221.384.342z" stroke="#112F59" stroke-width="1.282" stroke-miterlimit="10"/></symbol><symbol id="cost-3" viewBox="0 0 40 40"><path d="M38.285 14.335c-4.76 3.028-15.162 3.019-19.903 0v.517a.838.838 0 01-.819.94.807.807 0 01-.837-.94V5.286a3.047 3.047 0 011.138-2.521 8.335 8.335 0 013.34-1.722 24.88 24.88 0 0114.974.226 7.525 7.525 0 012.728 1.552 3.216 3.216 0 011.091 2.55v26.111a3.01 3.01 0 01-1.034 2.23 8.73 8.73 0 01-3.594 1.88 25.19 25.19 0 01-9.142.885 3.416 3.416 0 01-.433-.066.837.837 0 01-.753-.94.883.883 0 01.988-.734c1.402 0 2.822.122 4.223.056a16.132 16.132 0 005.86-1.26 10.35 10.35 0 001.75-1.11 1.29 1.29 0 00.48-1.12v-3.546c-1.195.452-2.361.94-3.584 1.326a24.568 24.568 0 01-8.767.697c-.63-.057-.94-.405-.94-.941 0-.536.47-.81 1.09-.762 2.621.27 5.268.088 7.827-.536a20.613 20.613 0 003.236-1.27 1.966 1.966 0 001.157-2.06c-.066-1.072 0-2.135 0-3.217h-.16a15.738 15.738 0 01-6.396 1.985 25.243 25.243 0 01-5.776.113c-.696-.066-1.091-.518-.94-1.073.15-.555.432-.602.94-.592 1.533 0 3.076.075 4.61 0a15.821 15.821 0 005.643-1.289c.263-.122.517-.273.771-.404a2.23 2.23 0 001.298-2.296c-.17-.968-.066-2.003-.066-3.103zm-10.092-6.02a21.95 21.95 0 007.101-1.026 6.415 6.415 0 002.559-1.448 1.025 1.025 0 000-1.684 8.463 8.463 0 00-1.966-1.223 15.896 15.896 0 00-4.9-1.129 24.108 24.108 0 00-9.097.725 7.224 7.224 0 00-3.01 1.533 1.072 1.072 0 000 1.881c.521.434 1.1.792 1.722 1.063a19.546 19.546 0 007.543 1.307h.047zm-9.887-.63v3.762a1.214 1.214 0 00.518 1.138 11.38 11.38 0 002.408 1.326 23.516 23.516 0 0012.651.442 9.717 9.717 0 003.433-1.41 1.882 1.882 0 00.941-1.797V7.722a23.083 23.083 0 01-19.932 0l-.018-.038z" fill="#112F59"/><path d="M23.283 28.246v6.321a3.218 3.218 0 01-1.26 2.662 10.348 10.348 0 01-4.356 1.938 25.64 25.64 0 01-12.934-.254 9.64 9.64 0 01-3.198-1.486 3.499 3.499 0 01-1.533-3.02V21.756a3.133 3.133 0 011.195-2.446 8.599 8.599 0 013.358-1.693 24.777 24.777 0 0114.74.207 10.77 10.77 0 012.605 1.364 3.076 3.076 0 011.373 2.822c-.038 2.05.01 4.148.01 6.236zm-12.426-3.339a22.38 22.38 0 007.073-.809 12.42 12.42 0 002.888-1.345c1.1-.705 1.072-1.543 0-2.314a7.762 7.762 0 00-1.561-.884 15.902 15.902 0 00-4.76-1.12 23.965 23.965 0 00-9.406.725A7.045 7.045 0 002.1 20.72a1.053 1.053 0 000 1.731c.513.442 1.086.81 1.702 1.091a18.107 18.107 0 007.055 1.364zm-9.152 6.048v4.007a1.165 1.165 0 00.442.781 8.948 8.948 0 001.74 1.11 18.09 18.09 0 006.584 1.317 23.07 23.07 0 007.648-.819 8.289 8.289 0 002.821-1.354 1.722 1.722 0 00.715-1.505c-.047-1.035 0-2.079 0-3.113v-.414a19.227 19.227 0 01-9.923 2.238 19.347 19.347 0 01-10.027-2.248zm0-6.65v3.762a1.486 1.486 0 00.733 1.299c.647.429 1.338.788 2.06 1.072a23.515 23.515 0 0013.075.414 8.674 8.674 0 003.189-1.373 1.768 1.768 0 00.884-1.712 12.528 12.528 0 010-1.458v-1.995a23.168 23.168 0 01-19.932 0l-.01-.009z" fill="#112F59"/></symbol><symbol id="cost-4" viewBox="0 0 41 40"><path d="M34.196 7.052c0 .45 0 .886.063 1.336a.649.649 0 00.524.686l1.972.5c.358.092.708.208 1.05.35a2.024 2.024 0 011.247 2.646 20.796 20.796 0 01-.923 2.184c-.5 1.111-.487 1.174.449 1.948.579.448 1.133.927 1.66 1.435a2.109 2.109 0 010 3.246 22.157 22.157 0 01-1.835 1.573c-.724.612-.761.75-.374 1.61.387.862.674 1.374.923 2.098a2.147 2.147 0 01-1.485 3.083c-.7.237-1.448.375-2.172.55-.961.249-1.011.299-1.061 1.31v2.16a2.183 2.183 0 01-2.672 2.247c-.324 0-.649-.1-.973-.163l-1.648-.35a.762.762 0 00-.924.438c-.262.512-.5 1.036-.774 1.535a8.903 8.903 0 01-.799 1.249 1.96 1.96 0 01-2.584.549 16.476 16.476 0 01-1.635-1.124l-.887-.674a.849.849 0 00-1.148 0c-.437.35-.874.7-1.324 1.024-.392.301-.81.569-1.248.799a1.935 1.935 0 01-2.496-.562 9.168 9.168 0 01-.9-1.46c-.236-.412-.411-.862-.636-1.249-.225-.387-.462-.624-1.086-.512-.624.113-1.348.3-2.022.425a5.191 5.191 0 01-1.161.075 1.922 1.922 0 01-1.91-1.723 14.817 14.817 0 01-.138-2.234c0-1.51 0-1.536-1.51-1.873a17.336 17.336 0 01-1.91-.524 2.073 2.073 0 01-1.373-2.822c.262-.786.661-1.535.998-2.297.337-.761.337-.986-.362-1.573-.699-.586-1.248-.998-1.835-1.572a2.123 2.123 0 010-3.284c.55-.561 1.249-1.048 1.823-1.572.574-.525.749-.737.374-1.573-.287-.637-.611-1.249-.849-1.885a3.745 3.745 0 01-.274-1.386 1.972 1.972 0 011.498-1.848c.736-.262 1.51-.412 2.284-.624l.412-.1a.824.824 0 00.7-.899c0-.823 0-1.66.062-2.496a2.147 2.147 0 012.172-2.26c.348-.004.695.03 1.036.1a58.17 58.17 0 012.022.425.799.799 0 001.024-.475c.212-.437.425-.874.65-1.248a12.7 12.7 0 01.786-1.336 2.022 2.022 0 012.82-.6c.489.304.96.633 1.412.987l.96.737a.849.849 0 001.174 0c.4-.312.787-.625 1.249-.912A9.77 9.77 0 0123.86.311a1.973 1.973 0 012.659.55c.32.457.609.936.861 1.435.225.424.412.861.637 1.248.225.387.462.612 1.049.5.586-.113 1.348-.3 2.034-.425.412-.08.831-.104 1.249-.075a1.947 1.947 0 011.885 1.698 17.8 17.8 0 01.187 1.848l-.225-.038zm-1.86.087c0-.474 0-.948-.075-1.423-.075-.474-.187-.437-.487-.387l-1.947.375c-2.097.45-2.971 0-3.907-1.898a43.236 43.236 0 00-.862-1.697.412.412 0 00-.699-.15l-1.573 1.248a2.882 2.882 0 01-4.257 0c-.2-.15-.399-.325-.611-.474a10.19 10.19 0 00-.824-.624c-.512-.363-.624-.337-.924.212-.3.55-.674 1.36-1.036 2.022a2.572 2.572 0 01-3.146 1.51c-.686-.124-1.373-.311-2.06-.436-.686-.125-.898 0-.923.736-.025.737 0 1.348 0 2.035a2.61 2.61 0 01-2.272 2.821c-.575.163-1.174.275-1.748.425-1.049.262-1.074.337-.637 1.336.337.761.7 1.522.986 2.296a2.222 2.222 0 01-.561 2.385c-.242.25-.496.487-.762.711-.437.362-.899.712-1.323 1.099-.425.387-.55.637 0 1.11.55.475 1.186.962 1.748 1.474a2.497 2.497 0 01.736 3.208c-.25.637-.562 1.249-.836 1.848-.425.936-.375 1.036.611 1.248.774.2 1.56.362 2.322.612a2.31 2.31 0 011.673 2.097c0 .474 0 .949.063 1.423.062.475 0 .924 0 1.373 0 .45.124.612.636.537a30.795 30.795 0 001.823-.35c2.134-.449 2.958 0 3.92 1.936.262.561.561 1.11.849 1.648a.399.399 0 00.699.15c.511-.388 1.036-.775 1.535-1.174a2.91 2.91 0 014.332 0 39.7 39.7 0 001.398 1.086c.474.35.624.337.924-.212.3-.55.686-1.398 1.06-2.073a2.497 2.497 0 013.122-1.46c.686.125 1.373.3 2.06.437.686.137.898 0 .923-.737.025-.736 0-1.36 0-2.035a2.61 2.61 0 012.272-2.82c.55-.163 1.111-.276 1.673-.413 1.149-.3 1.174-.35.674-1.435-.324-.737-.674-1.461-.949-2.223a2.222 2.222 0 01.562-2.384c.242-.246.496-.48.762-.699.462-.387.948-.749 1.398-1.16.45-.413.45-.563 0-1-.225-.224-.474-.412-.712-.624-.237-.212-.849-.686-1.248-1.048a2.41 2.41 0 01-.65-2.86c.276-.686.6-1.335.9-2.009.45-.986.412-1.061-.637-1.336-.787-.212-1.585-.374-2.36-.636a2.248 2.248 0 01-1.585-2.06c-.062-.524-.075-1.099-.112-1.56h.062z" fill="#112F59"/><path d="M14.223 27.263c-.3-.237-.65-.387-.75-.637a1.723 1.723 0 010-.936c0-.137.213-.262.338-.375L26.207 12.92c.587-.586 1.148-.674 1.56-.237.412.437.312.961-.262 1.536A3513.922 3513.922 0 0015.084 26.7c-.272.21-.56.398-.861.562zm1.772-8.876a3.234 3.234 0 113.27-3.158 3.258 3.258 0 01-3.27 3.158zm0-4.594a1.337 1.337 0 00-1.36 1.36 1.373 1.373 0 001.348 1.387 1.373 1.373 0 000-2.747h.012zm9.251 7.353a3.234 3.234 0 11-3.221 3.208 3.245 3.245 0 013.22-3.208zm0 4.594a1.347 1.347 0 001.348-1.373 1.386 1.386 0 00-1.36-1.386 1.436 1.436 0 00-1.399 1.41 1.387 1.387 0 001.436 1.349h-.025z" fill="#112F59"/></symbol><symbol id="cost-5" viewBox="0 0 36 40"><path d="M30.532 33.585l-6.431-5.189-.6.718a3.808 3.808 0 01-1.157 1.02 3.872 3.872 0 01-3.022.349 3.847 3.847 0 01-1.366-.729 56.838 56.838 0 01-7.577-7.482 3.711 3.711 0 01-.73-1.321 3.672 3.672 0 01.332-2.93 3.75 3.75 0 011.01-1.13l.768-.627-5.3-6.406a30.944 30.944 0 00-3.475 2.946 5.685 5.685 0 00-.755 6.316 10.554 10.554 0 002.174 3.293c.102.096.198.2.286.308a.796.796 0 01.266.589.783.783 0 01-.266.59.795.795 0 01-.616.23.803.803 0 01-.581-.307 12.185 12.185 0 01-2.604-3.626 8.258 8.258 0 01-.625-5.791 6.847 6.847 0 012.447-3.664 173.94 173.94 0 014.31-3.306 3.16 3.16 0 014.361.474c1.146 1.281 2.278 2.665 3.398 4.023.285.309.501.673.633 1.07a2.915 2.915 0 01-.257 2.408c-.212.36-.5.673-.845.917-.716.602-1.445 1.178-2.174 1.768a2.18 2.18 0 00-.678.705 2.14 2.14 0 00.405 2.69 163.391 163.391 0 004.361 4.484c.794.807 1.667 1.537 2.526 2.293.231.253.518.45.84.574a2.272 2.272 0 001.984-.164c.295-.177.545-.417.73-.704.599-.718 1.185-1.448 1.784-2.153a2.95 2.95 0 01.889-.762 3.013 3.013 0 012.295-.271c.381.107.737.289 1.047.534a97.45 97.45 0 014.374 3.561 3.002 3.002 0 01.404 4.138 137.054 137.054 0 01-3.385 4.292 7.62 7.62 0 01-3.974 2.46 7.718 7.718 0 01-4.684-.307 11.942 11.942 0 01-4.426-2.73c-3.385-3.292-6.744-6.61-10.116-9.915-.443-.449-.482-.897-.117-1.282.364-.384.846-.32 1.302.141l9.62 9.57a10.122 10.122 0 004.987 2.935 5.856 5.856 0 003.49-.088 5.76 5.76 0 002.798-2.052l1.94-2.46zM7.84 8.922l5.207 6.29a1.399 1.399 0 00.758-1.684 1.405 1.405 0 00-.34-.57c-1.095-1.281-2.201-2.64-3.32-3.933a1.45 1.45 0 00-.492-.433 1.476 1.476 0 00-1.813.33zm23.707 23.33a1.363 1.363 0 00.529-1.01 1.338 1.338 0 00-.437-1.052 93.287 93.287 0 00-4.414-3.587 1.312 1.312 0 00-1.158-.234c-.198.054-.38.153-.532.29a1.28 1.28 0 00-.34.495l6.352 5.099z" fill="#112F59"/><path d="M20.377 12.19a10.12 10.12 0 01-1.367-.475 3.354 3.354 0 01-1.419-1.246 3.278 3.278 0 01-.508-1.803V3.541a3.428 3.428 0 011.039-2.468 3.52 3.52 0 011.155-.75 3.565 3.565 0 011.36-.254h6.718c.651 0 1.003.27 1.016.782.013.512-.352.845-1.003.858h-6.835c-.473.02-.921.216-1.252.55a1.818 1.818 0 00-.531 1.244v5.125c.006.46.19.9.514 1.23.324.33.764.528 1.23.55h1.042a.845.845 0 01.735.336.813.813 0 01.098.792c-.221.73-.495 1.448-.755 2.216.138-.04.273-.092.404-.153a9.09 9.09 0 003.358-2.64 1.4 1.4 0 011.198-.564h5.624a1.984 1.984 0 001.632-.546 1.914 1.914 0 00.556-1.606v-4.51a1.88 1.88 0 00-.548-1.556 1.97 1.97 0 00-1.575-.558 6.868 6.868 0 01-.729 0 .819.819 0 01-.581-.254.794.794 0 01-.213-.591.758.758 0 01.252-.568.784.784 0 01.595-.2 9.338 9.338 0 011.81.115c.74.186 1.398.61 1.869 1.203.471.593.73 1.323.734 2.076v5.24a3.393 3.393 0 01-.985 2.363 3.502 3.502 0 01-2.374 1.033h-5.585a1.056 1.056 0 00-.73.333 10.843 10.843 0 01-6.717 3.587h-.26a.845.845 0 01-.572-.09.823.823 0 01-.373-.436.807.807 0 01.004-.57.824.824 0 01.38-.429 4.062 4.062 0 001.59-2.242z" fill="#112F59"/><path d="M22.447 6.95a.899.899 0 01-.667-.205.874.874 0 01-.31-.616c0-.5.404-.82.99-.82a.872.872 0 01.675.195.847.847 0 01.302.625c0 .487-.391.82-.99.82zm8.215-1.64a.86.86 0 01.692.181.835.835 0 01.302.639.821.821 0 01-.302.638.851.851 0 01-.692.182.886.886 0 01-.662-.19.86.86 0 01-.314-.605.833.833 0 01.291-.642.863.863 0 01.685-.203zm-4.088 0c.6 0 .964.32.95.845a.81.81 0 01-.293.608.837.837 0 01-.657.186c-.599 0-.989-.32-.989-.82 0-.5.39-.82.99-.82z" fill="#112F59"/></symbol><symbol id="cost-6" viewBox="0 0 41 41"><path d="M23.534 41a2.145 2.145 0 01-1.63-1.678 2.616 2.616 0 01-.047-.555V19.312a2.079 2.079 0 012.246-2.248h14.65a2.065 2.065 0 012.124 1.358c.103.285.142.589.114.89v19.182c0 1.46-.343 1.967-1.684 2.506H23.534zm-.312-11.968v9.61c0 .781.203.992.998.992h14.408c.78 0 .998-.195.998-.984V19.46c0-.78-.203-.99-.99-.999H24.228c-.78 0-1.006.203-1.006.992v9.579zM0 26.823c.133-.828.203-1.679.413-2.483.297-1.085.68-2.155 1.061-3.216.188-.516.562-.688.96-.523.398.163.515.57.28 1.092a15.766 15.766 0 00-.967 9.97 9.105 9.105 0 006.927 7.252c3.573.95 7.325 1 10.92.14.531-.116.874.048.984.47.109.421-.133.78-.671.85-1.17.203-2.34.375-3.51.555l-.344.07h-3.12l-.312-.063c-1.4-.153-2.79-.383-4.165-.687-4.532-1.225-7.263-4.168-8.105-8.814-.125-.702-.203-1.42-.304-2.13L0 26.822zm5.928-12.14c-1.022-.851-1.365-1.78-1.03-2.803.336-1.023 1.147-1.561 2.614-1.663a7.56 7.56 0 00-.258-.406A27.206 27.206 0 014.353 4.66a5.297 5.297 0 01-.523-2.834A1.453 1.453 0 015.92.615c.42.174.825.382 1.21.624a5.457 5.457 0 002.13.781 2.541 2.541 0 002.152-.734 3.962 3.962 0 015.843 0 2.667 2.667 0 002.816.617c.513-.18 1.013-.393 1.497-.64.359-.172.694-.398 1.061-.554a1.559 1.559 0 012.27 1.483 6.305 6.305 0 01-.585 2.56 28.11 28.11 0 01-2.878 5.106c-.086.117-.156.242-.25.383.328.039.616.047.897.11a2.34 2.34 0 012.266 2.415 2.344 2.344 0 01-2.414 2.268 4.93 4.93 0 01-.78.055H7.965a.826.826 0 00-.695.289c-.78.937-1.6 1.858-2.395 2.795a.71.71 0 01-.881.265.608.608 0 01-.382-.718 1.32 1.32 0 01.257-.484l2.06-2.553zm11.841-4.45c.302-.02.604-.02.905 0a1.162 1.162 0 001.264-.64 31.3 31.3 0 003.237-5.691c.2-.503.338-1.027.413-1.562.07-.43-.1-.53-.507-.359-.25.102-.468.25-.71.36-.574.299-1.168.56-1.778.78a4.03 4.03 0 01-4.29-.898 2.613 2.613 0 00-3.9 0 3.9 3.9 0 01-1.826 1.03 5.496 5.496 0 01-4.01-.78 10.41 10.41 0 00-.92-.492c-.397-.18-.546-.101-.483.32a6.78 6.78 0 00.382 1.562 29.031 29.031 0 003.596 6.167.397.397 0 00.273.18h1.56V6.938c0-.53.242-.78.671-.78.429 0 .686.296.694.843v3.216h4.08V6.83a.656.656 0 01.647-.671.686.686 0 01.71.624v.36l-.008 3.091zm-3.447 1.366H7.169a1.037 1.037 0 00-1.007.992 1.007 1.007 0 00.936 1.054c.133.007.266.007.398 0H21.21c.2.006.4-.015.593-.063a.936.936 0 00.71-.734 1.032 1.032 0 00-1.108-1.264l-7.082.015z" fill="#112F59"/><path d="M13.65 34.083v-6.035c-.428-.101-.857-.18-1.27-.312A4.757 4.757 0 019.055 24.7a3.906 3.906 0 011.623-4.38 5.73 5.73 0 012.644-1.061c.265-.04.382-.125.351-.398a2.262 2.262 0 010-.398.656.656 0 01.624-.656.663.663 0 01.718.6c.016.26.016.522 0 .782.405.085.78.14 1.123.25a4.812 4.812 0 013.487 3.122c.093.32.148.65.164.984a.671.671 0 01-.904.737.686.686 0 01-.446-.62 3.49 3.49 0 00-3.315-3.014h-.07v6.074c.359.078.725.14 1.084.242a5.257 5.257 0 012.855 1.874 3.905 3.905 0 01-1.037 5.636 6.32 6.32 0 01-2.902 1.086c-.094.554.171 1.39-.741 1.374-.913-.016-.593-.781-.663-1.265a18.883 18.883 0 01-2.239-.78 4.237 4.237 0 01-2.496-3.217 2.814 2.814 0 010-.515.664.664 0 01.624-.664.625.625 0 01.718.593c-.094 1.648 1.786 2.889 3.393 2.998zm0-13.545a4.11 4.11 0 00-3.041 1.772 2.257 2.257 0 00-.211 2.07 3.769 3.769 0 003.253 2.17v-6.012zm1.413 7.573v5.98a4.273 4.273 0 002.613-1.218 2.42 2.42 0 00.647-2.506 3.684 3.684 0 00-3.26-2.256zm16.342-2.155h-4.563a1.372 1.372 0 01-1.56-1.561V21.95a1.343 1.343 0 011.458-1.444h9.36a1.348 1.348 0 011.46 1.444v2.6a1.337 1.337 0 01-1.444 1.413l-4.711-.008zm-4.727-4.09v2.693h9.493v-2.694h-9.493zm.288 10.242h-.96a.678.678 0 110-1.358h1.998a.655.655 0 01.702.663.673.673 0 01-.718.695h-1.022zm4.829-2.725h-1.007a.68.68 0 01-.717-.687.671.671 0 01.733-.671h1.919a.678.678 0 01.78.663.688.688 0 01-.78.695h-.928zm4.735 5.457h-1a.67.67 0 01-.645-.906.678.678 0 01.623-.444h2.082a.687.687 0 01.671.71.671.671 0 01-.686.64c-.351.008-.695 0-1.046 0zm-.008 2.733h-.999a.67.67 0 01-.694-.648.672.672 0 01.648-.695h2.16a.679.679 0 01-.07 1.35l-1.045-.007zm.062-9.525h.999a.678.678 0 010 1.359H35.5a.678.678 0 01-.48-1.16.678.678 0 01.48-.199h1.084zm-9.618 1.327h-.96a.678.678 0 110-1.358h1.927a.665.665 0 01.734.671.67.67 0 01-.718.687c-.32.016-.655 0-.983 0zm4.814 1.375h.998a.678.678 0 110 1.358h-2.036a.646.646 0 01-.671-.648.665.665 0 01.663-.703c.39-.023.694-.008 1.045-.008zm4.758 1.358h-.999a.679.679 0 010-1.359h2.028a.686.686 0 01.702.672.704.704 0 01-.725.687h-1.006zm-4.774 2.732h-.999a.678.678 0 110-1.358h2.044a.678.678 0 010 1.358h-1.045zm-.032 2.733h-.998a.67.67 0 01-.475-1.146.67.67 0 01.475-.197h2.122a.656.656 0 01.647.68.664.664 0 01-.702.67l-1.069-.007zm-4.758-2.733h-.998a.679.679 0 11-.04-1.358h2.084a.68.68 0 01-.016 1.358h-1.03zm-.016 2.733h-.998a.67.67 0 01-.515-1.13.671.671 0 01.468-.213h2.122a.647.647 0 01.647.71.657.657 0 01-.686.64l-1.038-.007z" fill="#112F59"/></symbol><symbol id="fb" viewBox="0 0 32 32"><path clip-rule="evenodd" d="M18.062 31.683V17.254h4.87l.725-5.65h-5.595V8.008c0-1.63.455-2.747 2.796-2.747h2.966V.224A39.365 39.365 0 0019.478 0c-4.305 0-7.26 2.627-7.26 7.449v4.145h-4.84v5.65h4.85v14.439h5.834z"/></symbol><symbol id="inst" viewBox="0 0 33 32"><path clip-rule="evenodd" d="M31.573 5.457A8.1 8.1 0 0026.937.833a11.654 11.654 0 00-3.849-.738C21.393.02 20.856 0 16.556 0s-4.85 0-6.532.095A11.562 11.562 0 006.18.833a8.09 8.09 0 00-4.636 4.624 11.547 11.547 0 00-.738 3.84c-.076 1.69-.098 2.226-.098 6.519 0 4.29 0 4.836.098 6.518.027 1.314.275 2.61.738 3.842A8.108 8.108 0 006.18 30.8c1.225.478 2.526.749 3.847.79 1.695.075 2.232.098 6.532.098s4.85 0 6.532-.097a11.67 11.67 0 003.849-.736 8.113 8.113 0 004.636-4.626c.463-1.23.71-2.527.737-3.84.076-1.69.099-2.227.099-6.519s0-4.837-.099-6.518a11.542 11.542 0 00-.74-3.895zM29.43 22.204a8.842 8.842 0 01-.548 2.965 5.253 5.253 0 01-3.014 3.006 8.79 8.79 0 01-2.94.547c-1.673.077-2.145.096-6.434.096-4.293 0-4.731 0-6.435-.096a8.747 8.747 0 01-2.939-.547 5.25 5.25 0 01-3.027-3.006 8.91 8.91 0 01-.547-2.932c-.076-1.669-.093-2.14-.093-6.42 0-4.281 0-4.719.093-6.421a8.834 8.834 0 01.547-2.964A5.252 5.252 0 017.12 3.424a8.836 8.836 0 012.939-.546c1.674-.076 2.144-.097 6.435-.097 4.29 0 4.73 0 6.434.097a8.75 8.75 0 012.94.546 5.261 5.261 0 013.014 3.008c.345.938.532 1.93.548 2.932.075 1.671.095 2.14.095 6.422 0 4.28 0 4.74-.076 6.42h-.02v-.002zm-2.3-14.942a1.981 1.981 0 11-3.963-.002 1.981 1.981 0 013.962.002zm-18.496 8.58a7.923 7.923 0 017.927-7.92c4.376 0 7.926 3.547 7.926 7.92a7.926 7.926 0 01-7.926 7.924 7.924 7.924 0 01-7.927-7.923zm2.776.002a5.149 5.149 0 005.15 5.146 5.146 5.146 0 100-10.29 5.148 5.148 0 00-5.15 5.145z"/></symbol><symbol id="vk" viewBox="0 0 43 26"><path clip-rule="evenodd" d="M41.32 2.287c.289-.953 0-1.654-1.388-1.654h-4.579c-1.165 0-1.702.605-1.994 1.273 0 0-2.328 5.575-5.627 9.197-1.068 1.05-1.553 1.383-2.135 1.383-.292 0-.73-.333-.73-1.287V2.287c0-1.145-.32-1.654-1.29-1.654h-7.201c-.728 0-1.166.53-1.166 1.034 0 1.084 1.65 1.335 1.82 4.384v6.625c0 1.453-.267 1.717-.85 1.717-1.552 0-5.329-5.602-7.57-12.01-.435-1.248-.874-1.75-2.045-1.75H1.983c-1.309 0-1.57.605-1.57 1.273 0 1.19 1.552 7.1 7.23 14.917 3.786 5.338 9.115 8.232 13.97 8.232 2.911 0 3.27-.642 3.27-1.75V19.27c0-1.285.276-1.542 1.199-1.542.68 0 1.844.335 4.561 2.908 3.105 3.051 3.617 4.419 5.364 4.419h4.58c1.308 0 1.964-.642 1.587-1.912-.415-1.263-1.898-3.096-3.864-5.272-1.068-1.238-2.669-2.573-3.156-3.241-.678-.857-.485-1.239 0-2 0 0 5.583-7.722 6.163-10.343h.002z"/></symbol><symbol id="youtube" viewBox="0 0 38 26"><path d="M36.757 4.318a4.324 4.324 0 00-1.19-1.971 4.734 4.734 0 00-2.076-1.152C30.576.427 18.897.427 18.897.427 14.03.37 9.161.615 4.323 1.157a4.905 4.905 0 00-2.077 1.179 4.496 4.496 0 00-1.208 1.98 45.152 45.152 0 00-.757 8.528 45.07 45.07 0 00.757 8.528 4.387 4.387 0 001.203 1.97 4.804 4.804 0 002.082 1.152c2.953.767 14.574.767 14.574.767a118.98 118.98 0 0014.594-.73 4.734 4.734 0 002.077-1.151 4.315 4.315 0 001.187-1.971c.536-2.811.796-5.668.778-8.53.04-2.873-.22-5.743-.776-8.563v.002zm-21.572 13.84V7.531l9.716 5.314-9.716 5.313z"/></symbol><symbol id="wm-1" viewBox="0 0 59 84"><path fill="#fff" d="M45.554 0c1.047.263 2.12.461 3.146.801a14.935 14.935 0 0110.276 14.12 7646.05 7646.05 0 010 38.315 15.021 15.021 0 01-14.87 14.892h-5.429v13.921c0 1.388-.43 1.802-1.805 1.802H22.136c-1.392 0-1.802-.431-1.802-1.802V68.136h-5.347a14.34 14.34 0 01-7.55-2.103C2.699 63.1.092 58.82.053 53.24c-.086-12.767-.051-25.538 0-38.31A15.012 15.012 0 0113.022.16c.155-.037.307-.087.453-.151L45.555 0zm-6.85 65.495h5.32a12.388 12.388 0 0012.328-12.302c.035-12.771.035-25.544 0-38.319A12.354 12.354 0 0044.068 2.62c-9.715-.035-19.433-.035-29.154 0A12.366 12.366 0 002.646 14.896a7097.94 7097.94 0 000 38.314 12.302 12.302 0 009.05 11.794c1.08.278 2.188.437 3.304.474 1.758.077 3.525.021 5.265.021v-7.86h-2.357c-.909 0-1.482-.512-1.499-1.292-.017-.78.569-1.336 1.517-1.34h23.173c.909 0 1.482.513 1.504 1.293.021.78-.578 1.327-1.521 1.34h-2.375l-.004 7.855zM35.98 81.2V57.717H22.993v23.484H35.98z"/><path fill="#fff" d="M29.581 11.139h16.464c1.388 0 1.801.43 1.801 1.805v29.791c0 1.388-.43 1.802-1.805 1.802H12.953c-1.387 0-1.796-.431-1.796-1.806V12.927c0-1.392.43-1.801 1.8-1.801l16.624.013zm-15.749 2.658v28.077h31.352V13.806l-31.352-.009zm15.706 64.814a3.951 3.951 0 01-3.964-3.848 3.946 3.946 0 013.878-4.007 3.951 3.951 0 013.968 3.93 3.955 3.955 0 01-3.882 3.925zm-.06-5.23a1.319 1.319 0 00-1.293 1.326A1.323 1.323 0 0029.512 76a1.323 1.323 0 001.293-1.327 1.323 1.323 0 00-1.327-1.293z"/><path fill="#fff" d="M36.587 30.74a7.127 7.127 0 01-6.424 7.256 7.07 7.07 0 01-7.623-5.835c-.43-2.425.285-4.705 1.267-6.894a25.817 25.817 0 014.61-6.894c.716-.78 1.47-.814 2.19-.065 2.99 3.111 5.209 6.64 5.847 11.001.073.453.09.93.133 1.43zm-6.976-9.725a18.446 18.446 0 00-3.766 6.144 14.027 14.027 0 00-.75 3.658 4.307 4.307 0 004.348 4.593 4.385 4.385 0 004.49-4.588c-.086-3.853-1.978-6.925-4.322-9.807z"/></symbol><symbol id="wm-2" viewBox="0 0 82 84"><path fill="#fff" d="M26.617 35.565L14.252 47.94c-.206.206-.402.425-.627.617a1.36 1.36 0 01-2.033-.028 765.665 765.665 0 01-6.926-6.931c-.65-.66-.608-1.402.065-2.09.935-.986 1.935-1.944 2.903-2.911 4.285-4.29 8.604-8.553 12.857-12.877 2.772-2.804 6.076-4.248 10.02-4.136.814.023 1.627 0 2.66 0-2.617-2.57-3.954-5.543-3.739-9.076a10.908 10.908 0 014.674-8.413 11.19 11.19 0 0114.489 1.238c3.463 3.473 5.183 10.502-.468 16.26h2.94a12.658 12.658 0 019.417 3.894A6804.567 6804.567 0 0076.192 39.2c1.098 1.098 1.094 1.687 0 2.804a2945.148 2945.148 0 01-6.249 6.249c-1.028 1.024-1.64 1.024-2.66 0a8433.25 8433.25 0 01-11.81-11.815c-.229-.23-.411-.496-.748-.907a7.84 7.84 0 00-.112.78V49.61a3.3 3.3 0 00.248 1.178c3.973 10.17 7.95 20.337 11.932 30.501.084.215.168.43.243.654.407 1.183-.177 2.038-1.44 2.048-1.948.023-3.902 0-5.856 0h-5.95c-1.373 0-1.616-.173-2.126-1.473l-10.53-26.92c-.126-.323-.262-.64-.467-1.127-.809 2.337-1.57 4.478-2.337 6.637L30.94 82.39c-.504 1.444-.724 1.599-2.285 1.599H17.317c-1.664 0-2.202-.771-1.65-2.36 3.555-10.227 7.109-20.455 10.66-30.684a5.055 5.055 0 00.276-1.612c.024-4.207 0-8.455 0-12.685l.014-1.084zm-7.823 45.62c3.019 0 5.902-.028 8.782 0a1.02 1.02 0 001.15-.85c2.963-8.584 5.94-17.164 8.93-25.739.506-1.453 1.034-2.907 1.525-4.37.233-.696.598-1.22 1.402-1.243.804-.023 1.252.5 1.486 1.23.037.111.089.214.136.322 3.891 9.949 7.786 19.9 11.684 29.851a1.046 1.046 0 001.192.795c2.594-.038 5.188 0 7.786 0 .276 0 .552-.024.902-.038a63.82 63.82 0 00-.336-.883 6212.72 6212.72 0 01-11.297-28.875 3.464 3.464 0 01-.29-1.168v-17.85a1.402 1.402 0 01.884-1.462 1.402 1.402 0 011.654.44l.374.369 13.175 13.175c.22.22.468.43.58.547l4.992-4.973c-.112-.122-.285-.313-.468-.495-4.781-4.787-9.58-9.554-14.339-14.363a10.464 10.464 0 00-7.833-3.23c-6.79.04-13.582.04-20.378 0a10.51 10.51 0 00-7.908 3.272c-4.734 4.79-9.52 9.535-14.278 14.302-.201.2-.388.416-.495.528l5.061 5.066c.165-.232.344-.454.538-.663l13.292-13.307c.514-.518 1.038-.976 1.832-.673.795.304.935 1.01.935 1.79v17.233a4.5 4.5 0 01-.253 1.444 7451.539 7451.539 0 01-7.192 20.7c-1.103 2.977-2.132 5.973-3.225 9.118zM40.639 2.792a8.413 8.413 0 00-8.413 8.371 8.413 8.413 0 008.37 8.413 8.413 8.413 0 008.414-8.37 8.413 8.413 0 00-8.371-8.414z"/><path fill="#fff" d="M39.134 82.578l-2.889-.229.286-2.762 2.603.191v2.8zM73.388 60.85l1.275-2.403 2.506 1.22-1.365 2.57-2.416-1.387zm5.033-18.102h2.805c-.066.986-.122 1.902-.187 2.889l-2.758-.243.14-2.646zM44.985 82.349l-2.907.224V79.77l2.594-.215.313 2.795zM13.629 15.514l-1.968-1.963 2.08-1.986 1.87 2.08-1.982 1.87zM3.094 37.196l-.234 2.71-2.776-.172.248-2.88 2.762.342zM77.93 48.1l2.748.467c-.191.963-.369 1.87-.565 2.842l-2.71-.636c.181-.92.35-1.762.527-2.673zM57.777 5.18l2.594 1.337-1.35 2.426-2.427-1.22 1.183-2.542zM8.67 67.061l-1.715-2.337 2.294-1.575 1.613 2.188L8.67 67.06zm61.656-1.706c.57-.77 1.066-1.449 1.622-2.196l2.295 1.565-1.706 2.337-2.21-1.706zM8.562 21.927l-1.36 2.337-2.453-1.295 1.444-2.543 2.37 1.5zm65.489 2.398c-.467-.79-.883-1.538-1.355-2.337l2.336-1.487c.468.837.935 1.65 1.468 2.52l-2.449 1.303zm-69.045 4.93l-2.622-.935 1.06-2.687 2.562 1.103-1 2.52zm70.232-2.467l2.552-1.127c.36.907.697 1.753 1.08 2.706l-2.622.935c-.346-.865-.669-1.636-1.01-2.514zM19.924 10.345L17.71 11.92l-1.692-2.215 2.37-1.701 1.537 2.341zM3.529 34.49l-2.72-.538.659-2.841 2.692.747-.631 2.632zm74.827 5.328l-.22-2.552 2.739-.37c.094.959.178 1.87.276 2.922h-2.795zM7.833 60.817l-2.42 1.402-1.366-2.561 2.496-1.234 1.29 2.393zm0-42.807l1.837-2.276 2.103 1.8-1.673 2.13-2.267-1.654zm65.587.056l-2.257 1.636-1.688-2.131 2.132-1.795 1.813 2.29zM.528 48.516l2.748-.468.547 2.655-2.706.65-.589-2.837zM24.682 7.7l-2.416 1.229-1.36-2.416 2.584-1.351L24.682 7.7zm38.204.336l2.374 1.702-1.692 2.206a374.018 374.018 0 01-2.21-1.57l1.528-2.338zm17.535 25.963l-2.72.552c-.215-.907-.416-1.74-.63-2.632l2.687-.752c.229.972.42 1.86.663 2.832zM4.543 53.372l.911 2.56-2.584 1.034-.986-2.748 2.659-.846zM.192 45.586L0 42.734h2.804l.173 2.604-2.785.248zm75.565 10.356c.309-.86.594-1.645.935-2.538l2.66.818-.977 2.748-2.618-1.028zM67.49 15.407l-1.81-1.725 1.833-2.089 2.01 1.893-2.034 1.92zm3.173 53.926c-.743.72-1.403 1.341-2.104 2.023l-1.87-1.967 2.071-1.786 1.903 1.73zm-56.146.149l-1.95 1.776-1.934-1.996 1.949-1.77 1.935 1.99zm25.935-38.736c.9-.478 1.838-.883 2.804-1.21a4.711 4.711 0 015.211 2.3 4.469 4.469 0 01-.935 5.51c-1.897 1.869-3.832 3.669-5.767 5.482-.823.776-1.468.766-2.29 0a913.493 913.493 0 01-5.646-5.356c-1.902-1.818-2.14-4.356-.594-6.282a4.912 4.912 0 016.544-.934c.27.172.537.392.672.49zm.168 9.306c1.65-1.561 3.234-3.052 4.809-4.557.935-.884 1.033-1.823.341-2.613a2.075 2.075 0 00-2.907-.191c-.336.275-.64.593-.958.892-.986.935-1.58.935-2.552 0-.345-.352-.71-.685-1.093-.995a2.051 2.051 0 00-2.805.313c-.645.785-.533 1.696.35 2.542 1.548 1.533 3.137 3.024 4.81 4.609h.005z"/></symbol><symbol id="wm-3" viewBox="0 0 94 86"><path fill="#fff" d="M71.211 70.119c.166.184.323.364.49.54 3.781 3.915 2.725 11.328-2.8 13.597-5.67 2.329-10.978-1.117-11.868-6.084-.89-4.968 2.112-9.455 7.306-10.249 1.222-.189 2.56.236 3.819.503.54.115.784.11 1.08-.392 2.594-4.382 5.208-8.75 7.84-13.104.252-.443.642-.79 1.112-.987a1.583 1.583 0 0 1 1.3.286 1.384 1.384 0 0 1 .24 1.162 5.58 5.58 0 0 1-.728 1.338l-7.639 13.04a5.872 5.872 0 0 1-.152.35ZM65.71 82.208c3.02.106 5.46-2.555 5.627-6.236.106-2.306-3.026-5.364-5.567-5.475-3.349-.148-6.116 3.076-6.255 5.563a5.914 5.914 0 0 0 6.195 6.148ZM23.117 15.886c-1.31-1.263-2.306-2.62-2.624-4.308-.748-3.99.922-8.302 5.009-9.889 4.47-1.706 9.11-.226 11.07 4.235 2.624 5.996-1.384 11.53-6.822 12.186-1.209.147-2.505-.263-3.727-.559-.503-.12-.692-.055-.923.346a3479.39 3479.39 0 0 1-7.712 12.883c-.106.184-.203.373-.322.549-.6.844-1.504 1.07-2.196.553-.692-.517-.701-1.333-.12-2.186.766-1.126 1.545-2.246 2.242-3.413 2.048-3.437 4.068-6.891 6.125-10.397Zm5.641-.415c3.976-.17 6.102-3.229 5.909-6.766-.176-3.229-4.433-5.886-7.486-4.852a6.425 6.425 0 0 0-4.013 4.077c-1.393 3.884 2.578 7.693 5.6 7.541h-.01ZM57.909 8.53c.129-.406.24-.78.373-1.149.95-2.684 2.703-4.69 5.452-5.456 4.815-1.347 9.894 1.18 10.955 6.29.807 3.885-.72 8.419-5.715 10-4.271 1.357-8.995-.525-10.84-5.493-.16-.461-.046-1.199-.304-1.328-.461-.23-1.111-.12-1.683-.125-2.131 0-4.258.023-6.389 0-2.573-.032-5.142-.11-7.716-.175-.95-.023-1.522-.512-1.554-1.305-.033-.794.576-1.435 1.54-1.42 2.514.031 5.023.138 7.537.165 2.763.019 5.53-.004 8.344-.004Zm8.597 7.486c3.593-.203 5.641-3.261 5.747-5.997.106-2.86-2.726-5.76-5.609-5.844-4.095-.12-6.457 3.487-6.134 6.712.258 2.785 3.196 5.152 5.996 5.128ZM79.85 36.384c-.06-.157-.074-.217-.101-.272l-6.356-11.328c-.462-.835-.923-1.67-1.384-2.528a1.271 1.271 0 0 1 .433-1.762 1.209 1.209 0 0 1 1.78.268c.288.489.544.995.767 1.517 2.306 4.036 4.612 8.058 6.886 12.103a1.112 1.112 0 0 0 1.324.664c4.28-.41 8.639 1.753 9.82 6.674.89 3.69-1.283 8.174-4.825 9.594-5.074 2.034-10.148-.244-11.707-5.074-1.093-3.436-.235-6.66 2.565-9.178.263-.24.521-.461.798-.678Zm10.715 7.172c.06-2.523-1.541-4.465-3.727-5.466-3.602-1.642-8.123.964-8.063 5.996.037 3.23 3.884 5.964 7.043 5.259 2.819-.637 4.599-3.432 4.742-5.789h.005ZM14.46 49.607c.72 1.384 1.384 2.768 2.103 4.082 1.873 3.354 3.792 6.684 5.692 10.023a1.384 1.384 0 0 1-.383 1.845 1.3 1.3 0 0 1-1.905-.41c-.53-.868-.922-1.845-1.425-2.708-1.338-2.306-2.73-4.612-4.064-6.919-.779-1.36-1.494-2.767-2.223-4.15-.226-.439-.46-.54-1-.462C5.691 51.641 1.106 47.68 1 42.403c-.06-3.086 2.43-6.702 5.249-7.841 3.791-1.545 8.431-.29 10.54 3.229 2.038 3.39 2.167 7.573-1.384 11.023-.31.24-.59.508-.946.793Zm.95-7.273a9.18 9.18 0 0 0-.295-2.007c-.863-2.56-4.483-4.34-7.112-3.57a5.94 5.94 0 0 0-4.267 5.254c-.189 2.809 1.236 4.612 3.58 5.84 3.556 1.858 8.076-1.145 8.094-5.517ZM50.74 77.466c-4.427 0-8.85.028-13.278 0-.835 0-1.209.203-1.453 1.034a7.768 7.768 0 0 1-4.737 5.327 8.694 8.694 0 0 1-11.992-7.754c-.162-3.5 2.767-7.38 6.093-8.385 3.69-1.112 8.191.678 10.05 4.077.357.697.602 1.446.724 2.219.12.687.462.826 1.047.775.512-.042 1.033 0 1.55 0l13.46.184c.995 0 1.59.54 1.586 1.384-.005.844-.618 1.347-1.6 1.384h-1.458l.009-.245Zm-17.065-1.383c.152-4.105-2.896-5.789-5.752-6.052-3.09-.29-5.862 2.55-5.936 5.761-.064 2.933 2.823 5.996 5.724 6.065a5.931 5.931 0 0 0 5.973-5.779l-.009.005Z" stroke="#fff" stroke-miterlimit="10"/></symbol><symbol id="wm-4" viewBox="0 0 85 83"><path fill="#fff" d="M0 66.865V66.7c.135-.227.259-.46.369-.7 1.798-4.473 3.647-8.905 5.347-13.433.488-1.273 1.06-1.99 2.485-1.697a1.91 1.91 0 00.483-.05V22.095a7.662 7.662 0 011.362-4.482c1.242-1.806 2.442-3.643 3.646-5.474.167-.214.277-.466.318-.734.034-1.094 0-2.188 0-3.282-.148-.055-.246-.098-.352-.127-1.607-.424-2.294-1.302-2.302-2.93V2.759a2.629 2.629 0 012.74-2.756h23.949a2.65 2.65 0 012.765 2.743 18.15 18.15 0 01-.022 2.544 3.006 3.006 0 01-.589 1.65c-.509.551-1.25.89-2.027 1.408-.11 1.717-.297 3.655 1.243 5.237.316.382.6.79.848 1.22.135.204.288.39.564.756V9.624c0-2.608 1.64-4.287 4.261-4.291 8.752 0 17.505-.03 26.253.025a5.36 5.36 0 012.612.793c1.297.789 1.675 2.12 1.67 3.626-.017 13.337-.017 26.672 0 40.004v1.09c.394.026.79.026 1.183 0 .798-.123 1.18.173 1.485.962 1.844 4.745 3.765 9.465 5.656 14.197.106.263.187.543.318.929H78.33v11.5c0 2.942-1.595 4.541-4.516 4.541H10.499c-2.917 0-4.512-1.603-4.516-4.537V66.946h-1.39L0 66.866zm30.183-13.268v26.757h43.6c1.395 0 1.823-.424 1.823-1.81V54.427c0-.267-.03-.53-.042-.848l-45.38.017zm-18.793-2.76h14.17a28.312 28.312 0 01-8.794-10.572 28.41 28.41 0 01-2.723-13.42h2.667c-.135 4.914.849 9.523 3.257 13.78A25.268 25.268 0 0030.11 50.51c0-.848-.038-1.526 0-2.18a1.399 1.399 0 00-.72-1.403 22.517 22.517 0 01-9.245-12.976 21.376 21.376 0 01-.716-7.107c.203-.02.36-.05.517-.055 5.038-.11 9.685 1.175 13.76 4.147a5.563 5.563 0 003.986 1.213c1.022-.085 2.057 0 3.045 0v-7.985H11.386l.004 26.672zM8.735 66.95c0 .36-.046.628-.046.895v10.6c0 1.493.398 1.884 1.916 1.884H26.49c.288 0 .577-.022.848-.039V59.657a105.78 105.78 0 00-2.727 6.53 1.005 1.005 0 01-1.132.763c-4.584-.025-9.163 0-13.747 0h-.997zm2.498-45.597h29.704a17.312 17.312 0 00-.967-2.12 149.653 149.653 0 00-3.566-5.335 1.382 1.382 0 00-.971-.521 2006.07 2006.07 0 00-18.683 0 1.387 1.387 0 00-.984.534 180.367 180.367 0 00-3.655 5.47c-.341.639-.636 1.3-.882 1.98l.004-.008zm15.524 32.252a3.911 3.911 0 00-.424-.059H8.812c-.5 0-.645.242-.798.628-.911 2.315-1.844 4.626-2.764 6.941-.424 1.01-.81 2.023-1.222 3.053.094.042.192.073.293.094h17.767c.22 0 .539-.31.64-.552.764-1.815 1.48-3.65 2.214-5.482.577-1.519 1.17-3.015 1.81-4.614l.005-.008zm46.136-16.147V24.131h-13.26v13.327h13.26zM56.813 21.4V8.089c-.297 0-.539-.038-.78-.038H45.258c-1.344 0-1.781.424-1.781 1.764v10.86c0 .233.03.47.047.725h13.289zm16.114 0V9.849c0-1.387-.425-1.79-1.824-1.79H60.417c-.263 0-.526.03-.797.043V21.4h13.307zM56.791 50.85V40.247H32.829V50.85h2.646v-7.93h18.726v7.947l2.59-.017zm16.088 0V40.222H59.607v10.63h5.653c-2.421-1.195-3.393-2.828-2.947-4.82a4.028 4.028 0 013.88-3.194 4.045 4.045 0 013.926 3.032c.518 2.12-.377 3.664-2.87 4.978h5.63zm-16.07-26.716H43.54v7.955h2.756c-.356-3.134 1.077-5.182 3.689-5.292a3.815 3.815 0 012.968 1.132c1.17 1.157 1.408 2.582 1.035 4.151h2.803l.017-7.946zM32.783 37.45h24.021v-2.596H32.795l-.012 2.596zm5.27-32.151V2.712H14.07V5.3h23.983zM22.126 29.57a20.177 20.177 0 004.932 11.775c.433-.502.903-.97 1.408-1.399 1.39-1.018 1.891-2.324 1.67-4.024-.165-1.272-.059-2.544 1.205-3.35-2.2-1.611-6.403-2.972-9.215-3.002zM35.4 8.097H16.754v2.545H35.39l.009-2.545zm5.597 37.422c1.527 1.836 2.905 3.494 4.296 5.148.08.107.199.18.33.203h3.045c-1.488-1.78-2.833-3.392-4.194-5.012a.962.962 0 00-.606-.335c-.878-.025-1.751-.004-2.88-.004h.01zm10.5 4.575v-4.52h-3.762l3.761 4.52zm-13.3-3.744v4.482h3.731l-3.731-4.482zm13.327-15.532a1.332 1.332 0 00-1.272-1.336 1.273 1.273 0 00-1.37 1.302 1.305 1.305 0 001.273 1.344 1.357 1.357 0 001.36-1.31h.01zm16.05 16.058a1.323 1.323 0 00-1.272-1.34 1.365 1.365 0 00-1.39 1.319 1.378 1.378 0 001.369 1.348 1.34 1.34 0 001.285-1.327h.008zm10.949 12.865H78.4v4.466h1.908l-1.785-4.466zm-48.45-17.585l-1.162 1.082 1.162.903v-1.985z"/><path fill="#fff" d="M40.695 56.133c.954.068 1.85.127 2.74.203 2.26.191 4.558.25 6.682 1.17C56 60.052 59.24 64.55 59.502 70.97c.067 1.624.424 2.837 1.696 3.787.216.19.416.396.598.619l-2.053 1.895c-.275-.335-.644-.737-.97-1.17-.68-.907-1.544-1.187-2.69-1.153a14.095 14.095 0 01-10.066-3.736c-3.274-2.913-4.8-6.645-5.012-10.974-.064-1.332-.2-2.65-.31-4.105zM54.69 72.246c0-.11 0-.182-.03-.212a965.506 965.506 0 00-4.81-4.834.687.687 0 00-.424-.216h-3.613c2.311 3.113 5.19 4.838 8.884 5.263h-.008zm-3.176-7.429v-3.159a.673.673 0 00-.183-.5 10.97 10.97 0 00-5.355-1.874 1697.3 1697.3 0 015.546 5.533h-.008zm5.088 5.386l.195-.09A11.024 11.024 0 0054.252 64a38.573 38.573 0 00-.076 3.494.848.848 0 00.25.488c.733.75 1.463 1.48 2.188 2.222H56.6zm-10.096-5.937l-2.684-2.667c.018.174.047.346.084.517.598 2.701.123 2.09 2.667 2.12.039.005.064-.008-.055.026l-.012.004zM66.282 34.8a4.003 4.003 0 01-3.746-5.526 4.007 4.007 0 013.716-2.476 4.029 4.029 0 014.02 3.947 4.029 4.029 0 01-3.99 4.054zm1.272-4.02a1.301 1.301 0 00-1.302-1.302 1.336 1.336 0 00-1.352 1.344 1.357 1.357 0 001.399 1.306 1.323 1.323 0 001.264-1.349h-.009zM54.18 14.76a4.028 4.028 0 01-4.046 4.002 4.062 4.062 0 01-3.973-4.007 4.025 4.025 0 014.02-4.028 3.993 3.993 0 013.999 4.032zm-2.663 0a1.383 1.383 0 00-1.344-1.37 1.328 1.328 0 00-1.306 1.306 1.273 1.273 0 001.246 1.335 1.33 1.33 0 001.404-1.272zm14.71-4.038a4.037 4.037 0 014.062 3.995 4.075 4.075 0 01-4.028 4.04 4.05 4.05 0 01-4.012-3.968 4.016 4.016 0 013.978-4.067zm.076 5.326a1.302 1.302 0 001.272-1.323 1.34 1.34 0 00-1.365-1.331 1.383 1.383 0 00-1.298 1.34 1.335 1.335 0 001.374 1.297l.017.017zM26.074 34.79a1.325 1.325 0 01-1.336-1.356 1.378 1.378 0 011.34-1.293 1.346 1.346 0 011.323 1.378 1.306 1.306 0 01-1.327 1.272z"/></symbol><symbol id="wm-5" viewBox="0 0 92 75"><path fill="#fff" d="M.018 53.377c.173-.91.387-1.794.51-2.7.169-1.239.86-1.822 2.063-2.104a20.14 20.14 0 0112.958 1.407c.214.096.428.2.647.291a.558.558 0 00.2 0 23.366 23.366 0 016.925-15.13c7.44-7.446 14.877-14.883 22.311-22.31a2.95 2.95 0 011.243-.793 1.58 1.58 0 011.871.865 1.721 1.721 0 01-.368 2.195 1502.44 1502.44 0 01-5.797 5.8c-.455.456-.91.861-1.288 1.226C50.6 31.426 59.86 40.674 69.168 49.97c.072-.064.273-.228.455-.41 4.098-4.075 8.196-8.132 12.23-12.234 7.476-7.572 7.922-19.014 1.083-26.973a19.656 19.656 0 00-22.064-5.428c-.219.087-.433.196-.656.269a1.821 1.821 0 01-2.494-1.7 1.712 1.712 0 011.224-1.606C60.799 1.274 62.66.582 64.578.286A23.016 23.016 0 0190.24 16.391c2.559 8.533.828 16.332-5.3 22.798-6.62 6.99-13.564 13.66-20.371 20.49l-8.196 8.195c-4.95 4.95-10.9 7.363-17.912 7.094-.476-.01-.95-.053-1.42-.128a11.944 11.944 0 00-4.144-.04 18.09 18.09 0 01-6.99-.32 3.76 3.76 0 00-1.561 0A19.825 19.825 0 01.15 57.448a2.48 2.48 0 00-.15-.496l.018-3.574zm25.116 6.274c.214-.387.355-.638.487-.91a19.898 19.898 0 0122.115-10.172c1.06.24 1.762.723 1.994 1.848 1.627 7.868-.534 14.493-6.484 19.875-.296.273-.623.514-1.12.91.456-.05.697-.054.91-.095a19.78 19.78 0 0010.692-5.655A3946.82 3946.82 0 0165.83 53.345c.205-.21.396-.428.72-.77L38.71 24.737c-4.139 4.144-8.15 8.16-12.157 12.18-.546.546-1.106 1.084-1.612 1.666a19.301 19.301 0 00-4.98 13.45 1.54 1.54 0 00.336 1.025 21.249 21.249 0 014.836 6.57v.023zm-2.05 9.138l.429-.223c-.219-1.548-.319-3.123-.679-4.64a16.255 16.255 0 00-18.09-12.12c-.519.082-.91.187-.992.87a16.305 16.305 0 0012.243 18.272c1.548.43 3.163.556 4.758.373l-6.224-6.21c-1.024-1.02-1.138-2.082-.323-2.874.815-.792 1.821-.65 2.81.323 1.684 1.676 3.364 3.358 5.04 5.045.364.342.687.765 1.029 1.161v.023zm6.516 2.377l.164.182c.77.043 1.543.043 2.313 0 9.339-1.097 15.586-9.07 14.498-18.445a1.064 1.064 0 00-1.061-1.11 16.305 16.305 0 00-18.15 12.511 42.583 42.583 0 00-.523 4.317l.41.168c.176-.276.372-.54.587-.788 1.822-1.82 3.643-3.642 5.464-5.463.96-.956 2.04-1.052 2.81-.264.769.787.646 1.848-.315 2.814-1.088 1.097-2.176 2.194-3.278 3.278a243.04 243.04 0 01-2.919 2.768v.032z"/><path fill="#fff" d="M54.661 8.027a1.76 1.76 0 01-1.707 1.821 1.762 1.762 0 01-1.822-1.785 1.78 1.78 0 011.754-1.771 1.771 1.771 0 011.775 1.735z"/></symbol><symbol id="wm-6" viewBox="0 0 74 74"><path fill="#fff" d="M20.7 66.013c-4.27-4.274-8.457-8.465-12.749-12.753-.673.56-1.422 1.159-2.137 1.787a3.503 3.503 0 01-5.304-.59c-.797-1.2-.65-3.255.376-4.297a17.132 17.132 0 0110.846-5.191 28.122 28.122 0 017.147.252c.211.03.425.026.674.045-.245-1.629-.493-3.209-.715-4.796a17.664 17.664 0 01-.158-1.941 1.04 1.04 0 01.997-1.129.988.988 0 011.128.96c.377 5.608 2.141 10.954 3.104 16.45.542 3.103.794 6.215-.094 9.31a12.282 12.282 0 01-2.855 5.045c-.132.14-.267.279-.377.425a1.328 1.328 0 000 1.881c.55.538 1.313.516 1.927-.105a15.048 15.048 0 003.66-5.903c1.076-3.268 1.076-6.613.474-9.935-.752-4.19-1.742-8.34-2.566-12.52-.632-3.204-.97-6.432-.23-9.678a12.949 12.949 0 0111.095-9.792c3.438-.343 6.77.252 10.096.962.377.08.753.151 1.238.249-.196-.93-.354-1.768-.56-2.592-.03-.128-.283-.256-.448-.29-3.453-.703-6.91-1.238-10.47-.937-6.77.576-12.76 6.106-13.756 12.836-.034.24-.068.482-.125.715a1.068 1.068 0 01-1.207.884 1.102 1.102 0 01-.9-1.34 16.654 16.654 0 012.814-7.5c3.762-5.403 9.029-7.968 15.57-7.833 2.66.057 5.309.485 7.999.753-.102-1.046-.241-2.235-.328-3.428-.334-4.762.523-9.216 3.491-13.095a18.59 18.59 0 011.67-1.88 3.442 3.442 0 014.827-.106 3.514 3.514 0 01.207 4.89c-.64.753-1.264 1.505-1.858 2.209L65.97 20.79l2.201-1.85a3.385 3.385 0 013.841-.546 3.386 3.386 0 011.979 3.333 3.411 3.411 0 01-1.023 2.257 16.95 16.95 0 01-7.773 4.514c-.797.211-1.372-.06-1.553-.722-.18-.662.173-1.129.967-1.35a15.138 15.138 0 006.58-3.762c.752-.719.838-1.482.251-2.077-.587-.594-1.339-.512-2.043.17-3.092 3.009-6.88 3.923-11.04 3.61-1.532-.116-3.051-.41-4.579-.62-.161-.022-.323-.023-.564-.038.196.854.346 1.652.572 2.43.041.155.342.313.538.332 1.986.195 3.972.376 5.966.526.82.06 1.268.377 1.283 1.05.015.673-.448 1.159-1.294 1.129-1.66-.072-3.314-.215-4.973-.331-.283-.02-.565-.06-.933-.102.21 1.287.436 2.502.602 3.724.579 4.21.635 8.404-1.216 12.34-2.968 6.315-7.96 9.859-14.964 10.468-3.277.286-6.49-.195-9.695-.793l-.376-.06c.124 1.342.286 2.633.376 3.916.324 5.488-1.068 10.364-4.913 14.479-1.301 1.392-4.089 1.38-5.153.27-1.377-1.429-1.373-3.528.09-5.12.56-.646 1.072-1.342 1.576-1.955zm6.948-16.714c.185.884.328 1.663.523 2.43a.658.658 0 00.418.399c3.833.805 7.674 1.414 11.613.809 6.68-1.031 12.207-6.904 12.839-13.615.323-3.408-.15-6.726-.816-10.044-.813-4.055-1.795-8.088-2.412-12.177-.71-4.68 0-9.089 3.536-12.663a1.299 1.299 0 000-1.93 1.256 1.256 0 00-1.914.166 24.646 24.646 0 00-2.468 3.277c-2.05 3.51-2.366 7.37-1.79 11.285.514 3.495 1.286 6.952 2.004 10.417.753 3.611 1.505 7.212 1.238 10.943a12.9 12.9 0 01-8.844 11.324c-2.93.936-5.899.793-8.875.327-1.643-.264-3.284-.617-5.052-.948zm1.979-21.274l16.315 16.316a9.503 9.503 0 002.073-4.263.724.724 0 00-.237-.534c-4.441-4.459-8.89-8.908-13.347-13.347a.75.75 0 00-.538-.24 9.627 9.627 0 00-4.266 2.068zm-1.633 1.622a9.513 9.513 0 00-2.057 4.198.868.868 0 00.244.662 4900.77 4900.77 0 0013.29 13.298c.129.128.336.313.464.282a9.577 9.577 0 004.382-2.125L27.994 29.647zM10.445 52.259l11.286 11.286c.105-.557.248-1.159.327-1.764.376-2.938-.165-5.801-.752-8.653a.812.812 0 00-.557-.489c-1.88-.304-3.762-.632-5.643-.82a11.826 11.826 0 00-4.66.44zm41.757-41.828c-.11.58-.252 1.155-.331 1.742-.376 2.96.154 5.846.752 8.727a.824.824 0 00.56.486c1.882.3 3.763.62 5.644.816 1.589.16 3.194.007 4.725-.451l-11.35-11.32zm-3.826 26.363v-.481c-.116-3.01-.775-5.91-1.46-8.81a.873.873 0 00-.594-.47c-1.81-.4-3.619-.802-5.443-1.13-1.238-.206-2.502-.263-3.762-.375 3.792 3.814 7.524 7.538 11.255 11.266h.004zm-22.838.41v.497c.113 3.01.752 5.91 1.456 8.814a.888.888 0 00.594.474c1.505.35 3.01.711 4.514.96 1.505.248 3.119.375 4.744.571L25.538 37.204zm-4.815 13.137c-.196-.847-.335-1.58-.553-2.291a.85.85 0 00-.546-.49 23.837 23.837 0 00-2.283-.345c-3.119-.377-6.204-.275-9.202.782a14.91 14.91 0 00-5.567 3.521 1.264 1.264 0 00-.298 1.637 1.189 1.189 0 001.475.605c.332-.132.63-.335.877-.594a12.689 12.689 0 014.796-2.867c2.603-.835 5.267-.827 7.934-.474 1.087.143 2.163.328 3.367.516z"/></symbol><symbol id="wm-7" viewBox="0 0 53 58"><path d="M31.643 57c-1.017-.316-1.963-.844-2.145-1.916-.362-2.147-.39-4.319.47-6.393a8.406 8.406 0 014.037-4.319c1.362-.711 2.791-1.36 4.022-2.26 5.66-4.142 8.479-9.741 8.217-16.703a19.404 19.404 0 00-5-12.266 19.803 19.803 0 00-11.76-6.3c-10.55-1.65-20.78 5.606-22.516 15.998C5.465 31.776 9.97 40.231 18.3 44.056c2.81 1.287 4.662 3.317 5.177 6.346.195 1.37.236 2.756.121 4.135-.077 1.334-1.023 2.068-2.238 2.463H3.336c-.17-.063-.339-.127-.508-.196-1.129-.471-1.775-1.315-1.8-2.53-.042-1.928-.032-3.86 0-5.791.018-.654.272-1.28.715-1.765a2.792 2.792 0 011.702-.885c1.477-.17 2.781.632 3.104 2.027.106.663.145 1.336.118 2.007v1.505h11.225a.576.576 0 00.023-.136.975.975 0 00-.035-.16c-.32-1.013-1.065-1.55-1.995-1.974a25.312 25.312 0 01-12.24-11.75 24.906 24.906 0 01-1.981-16.755C4.746 7.172 18.359-1.38 31.927 1.589a25.454 25.454 0 0114.907 9.455 24.947 24.947 0 015.046 16.787c-.52 7.878-4.13 14.173-10.55 18.833-1.384 1.006-2.96 1.755-4.476 2.561-.911.481-1.582 1.082-1.784 2.154h11.267v-1.265c-.03-.727 0-1.456.092-2.178.275-1.382 1.599-2.236 3.06-2.1.686.072 1.32.393 1.782.9.46.507.715 1.166.715 1.848.032 1.64 0 3.278 0 4.92 0 2.054-.445 2.728-2.308 3.496H31.643z" stroke="#fff" stroke-width="2" stroke-miterlimit="10"/></symbol><symbol id="wm-8" viewBox="0 0 75 75"><path fill="#fff" d="M74.98 24.006c-.12.544-.222 1.092-.363 1.627a10.707 10.707 0 01-16.616 5.964c-.156-.114-.316-.22-.461-.317l-26.126 26.2c.461.884 1.013 1.85 1.482 2.855.391.802.16 1.373-.493 1.639s-1.114-.028-1.529-.783c-.51-.964-1.09-1.89-1.736-2.768-.653-.876-.696-1.275.098-2.069L40.517 45.08l15.787-15.77c.915-.912 1.31-.924 2.276-.063a8.486 8.486 0 0010.3.82 8.525 8.525 0 003.52-9.658 8.483 8.483 0 00-8.392-6.026c-.706.04-1.405.152-2.088.332-.52.121-1.013.227-1.436-.191-.422-.419-.336-.912-.195-1.432a8.475 8.475 0 00-6.312-10.671c-2.768-.634-5.263.047-7.43 1.857-.129.11-.246.235-.39.344-.58.497-1.15.505-1.616.02-.465-.485-.438-1.068.106-1.604A10.59 10.59 0 0150.286.153c.184-.036.364-.102.547-.153h2.491c.108.052.22.093.337.121 4.598.763 8.036 3.981 8.939 8.49.235 1.173.196 2.397.285 3.621a.487.487 0 00.145 0 10.676 10.676 0 0111.58 7.876c.136.512.25 1.028.39 1.564l-.02 2.334z"/><path fill="#fff" d="M43.779 17.507c-1.174-1.493-2.026-3.128-2.214-4.97a23.542 23.542 0 01.067-3.996.974.974 0 011.24-.915 1.071 1.071 0 01.895 1.349 8.48 8.48 0 002.166 7.64c.685.752.622 1.22-.215 2.058l-26.4 26.372-.363.36c-1.228 1.228-1.412 1.236-2.702.125a8.514 8.514 0 00-9.702-.876 8.54 8.54 0 00-4.157 9.084c.676 3.46 3.574 6.3 7.039 6.699 1.204.137 2.46-.082 3.683-.22.524-.058 1.1-.242 1.396.259.219.414.281.893.176 1.35-1.517 5.751 2.738 11.14 8.604 10.905a8.556 8.556 0 007.715-5.967c.059-.184.098-.391.164-.56a1.081 1.081 0 011.365-.781 1.064 1.064 0 01.72 1.388c-.97 3.621-3.2 6.163-6.707 7.465-7.43 2.737-15.157-3.304-14.344-11.176 0-.114 0-.23.028-.41a10.708 10.708 0 01-8.068-2.163 10.477 10.477 0 01-3.644-5.185 10.723 10.723 0 013.43-11.615 10.418 10.418 0 016.749-2.405 10.76 10.76 0 016.863 2.456c8.764-8.765 17.503-17.521 26.216-26.27z"/><path fill="#fff" d="M31.16 39.09a5.82 5.82 0 01-.575.891 924.547 924.547 0 01-5.991 5.99c-.571.564-1.173.576-1.658.08-.485-.498-.462-1.045.093-1.604 2.007-2.022 4.009-4.047 6.062-6.022a1.462 1.462 0 011.232-.258c.332.097.547.582.837.922zm39.433-16.214a6.405 6.405 0 01-1.642 4.263c-.56.625-1.209.715-1.725.258-.516-.458-.457-1.052.055-1.682 1.49-1.822 1.49-3.84 0-5.646-.516-.622-.52-1.217-.02-1.67.5-.454 1.119-.391 1.658.219a6.374 6.374 0 011.674 4.258z"/></symbol><symbol id="wmr-1" viewBox="0 0 54 43"><g clip-path="url(#a)" stroke="#fff" stroke-width="2"><path d="M3.238 23.895h47.49a1.47 1.47 0 011.47 1.53 1.47 1.47 0 01-1.47 1.47h-18.51a1.48 1.48 0 00-1.27 2.24l6.17 10.28a1.47 1.47 0 01-1.27 2.23h-17.7a1.47 1.47 0 01-1.27-2.23l6.17-10.28a1.47 1.47 0 00-1.27-2.23H3.238a1.47 1.47 0 01-1.47-1.48 1.47 1.47 0 011.47-1.53zm46.641-13.65a8.87 8.87 0 11-17.74-.03 8.87 8.87 0 0117.74.03z" stroke-miterlimit="10"/><path d="M35.378 10.225a5.62 5.62 0 015.64-5.61m-23.129 6.29a5.64 5.64 0 01-5.64 5.62" stroke-linecap="round" stroke-linejoin="round"/><path d="M21.319 10.245a8.87 8.87 0 01-8.88 8.87 8.87 8.87 0 01-8.88-8.9 8.87 8.87 0 018.88-8.79 8.88 8.88 0 018.88 8.82z" stroke-miterlimit="10"/></g></symbol><symbol id="wmr-2" viewBox="0 0 44 44"><path d="M26.073 42.038h-8a2 2 0 01-1.39-2.3v-1.37c0-.87 0-.87-.8-1.2a3.122 3.122 0 01-.46-.21.41.41 0 00-.59.1c-.52.55-1.06 1.08-1.6 1.61a1.809 1.809 0 01-2.73 0 589.7 589.7 0 01-5-5 1.81 1.81 0 010-2.71c.41-.43.84-.84 1.26-1.27.59-.59.59-.59.26-1.37 0-.11-.09-.22-.12-.33a.58.58 0 00-.7-.51c-.72.05-1.43 0-2.15 0a1.82 1.82 0 01-1.91-1.92v-7.06a1.82 1.82 0 011.91-1.92h1.72c.91 0 .91 0 1.26-.83.063-.171.136-.338.22-.5.13-.2.06-.34-.1-.49-.55-.54-1.09-1.08-1.63-1.63a1.809 1.809 0 010-2.73c1.65-1.67 3.32-3.34 5-5a1.81 1.81 0 012.73 0l1.19 1.18c.64.65.64.64 1.47.31a3.13 3.13 0 01.51-.19c.23-.06.28-.2.28-.43v-2.26a1.84 1.84 0 012-2h6.9a1.84 1.84 0 012 2v2.3a.561.561 0 00.24.36c.36.18.74.31 1.11.48a.33.33 0 00.43-.09l1.65-1.66a1.82 1.82 0 012.76 0c1.66 1.64 3.3 3.29 4.94 4.94a1.828 1.828 0 010 2.79c-.54.54-1.08 1.09-1.63 1.62a.33.33 0 00-.1.44c.17.36.32.73.46 1.11a.33.33 0 00.37.25h2a2 2 0 012.31 1.48v8a2 2 0 01-2.31 1.48h-1.36c-.87 0-.87 0-1.2.79-.06.14-.12.29-.19.42a.452.452 0 00.1.66c.56.51 1.08 1.06 1.61 1.6a1.798 1.798 0 010 2.67c-1.67 1.7-3.36 3.38-5 5.05a1.79 1.79 0 01-2.67 0c-.41-.39-.79-.79-1.19-1.18-.23-.23-.44-.56-.72-.63-.28-.07-.54.2-.81.31a5.256 5.256 0 01-.51.19c-.2 0-.25.17-.25.37v2a2 2 0 01-1.57 2.28z" stroke="#fff" stroke-width="3" stroke-miterlimit="10"/><path d="M19.963 22.368l5.43-5.44a2.55 2.55 0 012-.86 2.31 2.31 0 012.1 1.4 2.28 2.28 0 01-.27 2.47 4.318 4.318 0 01-.45.51l-6.81 6.81a2.49 2.49 0 01-4 0l-3-3a2.43 2.43 0 011-4.08 2.401 2.401 0 012.49.69c.55.5 1.01.98 1.51 1.5z" fill="#fff"/></symbol><symbol id="wmr-3" viewBox="0 0 43 43"><path d="M14.836.375h1.062a.953.953 0 00.18.076 4.06 4.06 0 013.074 2.461.358.358 0 00.4.242h3.337a2.068 2.068 0 011.923 1.13.42.42 0 00.441.262h2.069c.34-.01.679.016 1.013.076a2.068 2.068 0 011.586 2.255v10.74a1.324 1.324 0 00.475 1.207c.235.194.433.427.586.69.27.462.504.937.738 1.378.345-.579.69-1.192 1.055-1.758a8.633 8.633 0 012.978-2.66.689.689 0 011.096.496.806.806 0 01-.434.73 18.01 18.01 0 00-1.579 1.207 6.735 6.735 0 00-2.227 4.398 3.702 3.702 0 012.696-.73h.69a6.157 6.157 0 015.798 3.75c.288.711.519 1.444.689 2.192v4.64a2.525 2.525 0 00-.076.31 9.652 9.652 0 01-.938 3.268 9.01 9.01 0 01-5.811 4.957c-2.069.566-4.137.38-6.205.221a5.068 5.068 0 00-.793 0c-.317 0-.634.138-.958.138H3.054A2.11 2.11 0 01.75 39.748V6.863a2.13 2.13 0 012.317-2.337h2.364a.503.503 0 00.386-.18A2.2 2.2 0 017.956 3.14h3.095a.551.551 0 00.531-.317A9.65 9.65 0 0112.72 1.32a4.233 4.233 0 012.116-.945zm-9.9 8.377V37.88h18.228v-.097c0-.02-.117-.213-.179-.317a8.066 8.066 0 01-1.206-3.385 49.583 49.583 0 01-.125-5.357 6.255 6.255 0 012.53-4.764c.345-.275.69-.503 1.09-.751-.207-.248-.414-.455-.586-.69a6.204 6.204 0 01-.93-4.35.952.952 0 01.847-.937c.372-.076.745-.131 1.138-.193V8.64c-.324.09-.745.083-.848.262a2.289 2.289 0 01-2.22 1.214H7.5a1.765 1.765 0 01-1.496-.924c-.262-.53-.566-.53-1.069-.441zm17.973 22.165h.076v1.303a8.698 8.698 0 00.876 3.93 7.438 7.438 0 005.605 4.37c1.199.134 2.406.185 3.612.152a7.803 7.803 0 007.646-6.012 17.41 17.41 0 00.214-6.35 4.936 4.936 0 00-4.33-4.28 14.682 14.682 0 00-1.91-.035 1.958 1.958 0 00-1.964 1.84v.897a.688.688 0 01-.964.675.69.69 0 01-.415-.675v-.896a1.993 1.993 0 00-1.972-1.848h-1.179A4.95 4.95 0 0023.219 28c-.159.966-.262 1.94-.31 2.917zm3.068 9.762c-.482-.4-.91-.73-1.303-1.096a.994.994 0 00-.751-.297H5.308c-1.254 0-1.758-.503-1.758-1.75V8.634a1.379 1.379 0 011.2-1.29c.269-.034.538-.034.82-.048V5.918H3.206c-.876 0-1.069.2-1.069 1.083v32.596c0 .916.186 1.103 1.09 1.103h22.75v-.021zM15.367 8.71h7.404c.69 0 .903-.24.91-.91.007-.668 0-1.516 0-2.282 0-.765-.234-.972-.972-.979h-3.785c-.544 0-.737-.144-.903-.69a2.758 2.758 0 00-2.682-2.067 2.8 2.8 0 00-2.675 2.068c-.193.6-.358.724-1 .724H7.88c-.614 0-.862.255-.869.862v2.323c0 .779.2.979.993.979l7.363-.028zm13.099 8.75a.617.617 0 000-.111V6.697c0-.517-.276-.758-.841-.765h-2.358a1.47 1.47 0 00-.255.048v1.317h.324c1.296 0 1.751.49 1.751 1.786v7.99l1.379.386zm-3.385 1.095c-.105.9.026 1.813.38 2.648a2.372 2.372 0 002.247 1.42c.965 0 1.93.055 2.881.083-.165-2.703-2.137-4.744-5.474-4.15h-.034z" fill="#fff" stroke="#fff" stroke-width=".345" stroke-miterlimit="10"/><path d="M8.735 35.805H7.673a1.276 1.276 0 01-1.317-1.138 17.596 17.596 0 010-2.558 1.213 1.213 0 011.2-1.123 21.308 21.308 0 012.392 0 1.29 1.29 0 011.213 1.296v2.199a1.379 1.379 0 01-1.33 1.317c-.366.014-.731.007-1.096.007zm1.027-1.38v-2.067H7.694v2.068h2.068zm1.413-19.792v1.013a1.379 1.379 0 01-1.379 1.379c-.717.037-1.434.037-2.15 0a1.33 1.33 0 01-1.38-1.317 19.378 19.378 0 010-2.192 1.379 1.379 0 011.441-1.345h1.958a1.379 1.379 0 011.455 1.462l.055 1zm-1.42 1.02v-2.068H7.728v2.068h2.027zm-.992 2.799h1.054a1.38 1.38 0 011.38 1.31v2.2a1.31 1.31 0 01-1.249 1.316 19.98 19.98 0 01-2.316 0 1.29 1.29 0 01-1.276-1.282 17.927 17.927 0 010-2.275 1.33 1.33 0 011.38-1.276h1.02l.007.007zm-1.048 3.447h2.068v-2.027H7.715V21.9zm3.46 5.191v1.014a1.377 1.377 0 01-1.427 1.448H7.68a1.379 1.379 0 01-1.38-1.338v-2.158a1.379 1.379 0 011.38-1.344h2.068a1.379 1.379 0 011.379 1.379c.055.344.048.668.048 1zm-3.447 1.035h2.068v-1.993H7.728v1.992zm10.39-13.845h4.557c.146-.016.294-.016.441 0a.613.613 0 01.538.58.607.607 0 01-.414.69 1.51 1.51 0 01-.558.075h-9.356a.73.73 0 01-.758-.69.69.69 0 01.793-.689l4.757.035zm-1.041 7.64h-3.448a3.23 3.23 0 01-.44 0 .648.648 0 01-.607-.655.69.69 0 01.606-.69c.15-.01.3-.01.448 0h6.895c.69 0 1.034.214 1.048.69.013.475-.331.69-1.055.69l-3.447-.035zm-.69 6.246H13.58c-.135.01-.271.01-.407 0a.69.69 0 01-.6-.655.634.634 0 01.531-.69 1.92 1.92 0 01.441-.048h5.943a.69.69 0 01.464 1.203.69.69 0 01-.533.176h-3.054l.02.014zm-.02 6.253h-2.93c-.545 0-.876-.276-.869-.69.007-.413.33-.689.848-.689h5.936c.648 0 1.027.503.772 1a.751.751 0 01-.744.386c-1.007-.014-2.014-.007-3.013-.007zm8.018-5.233a4.088 4.088 0 012.337-3.654c.168-.086.356-.126.545-.117a.634.634 0 01.565.559.69.69 0 01-.428.751 2.502 2.502 0 00-1.378 1.427 6.405 6.405 0 00-.27 1.31c-.075.517-.344.814-.744.786-.4-.028-.655-.372-.627-1.062zM17.042 7.318h-4.137a2.31 2.31 0 01-.489 0 .62.62 0 01-.517-.593.62.62 0 01.434-.69c.17-.05.347-.074.524-.068h8.439c.148-.004.296.01.441.04a.627.627 0 01.524.69.627.627 0 01-.593.614c-.202.01-.404.01-.607 0l-4.019.007zM9.417 7.31c-.69 0-1-.2-1.013-.689-.014-.49.338-.689 1.013-.689.162-.006.324.006.483.034a.648.648 0 01.558.724.648.648 0 01-.641.62c-.131.008-.241 0-.4 0z" fill="#fff" stroke="#fff" stroke-width=".345" stroke-miterlimit="10"/></symbol><symbol id="wmr-4" viewBox="0 0 56 44"><path d="M.643 23.83a2.22 2.22 0 01.98-.861 2.244 2.244 0 011.298-.167c.462.025.924.025 1.386 0 .05-.21.085-.422.144-.616.113-.351.331-.66.626-.884a1.828 1.828 0 011.024-.372h1.7a1.867 1.867 0 011.417.496 1.838 1.838 0 01.58 1.376v2.96h2.61a12.276 12.276 0 00-.331-.531 24.427 24.427 0 01-3.783-8.855 12.835 12.835 0 011.87-9.789 12.986 12.986 0 013.604-3.61 13.097 13.097 0 014.727-1.957c4.888-.986 9.061.506 12.445 4.158l.306.362.144.076c.102-.11.23-.227.34-.354a12.974 12.974 0 014.052-3.155 13.07 13.07 0 0110.075-.668 13.013 13.013 0 014.44 2.592l.152.143a.846.846 0 01.313.899.841.841 0 01-.151.299.799.799 0 01-.943.205.799.799 0 01-.273-.205 11.645 11.645 0 00-3.842-2.336A11.478 11.478 0 0038.75 2.7a11.405 11.405 0 00-5.78 3.574l-.212.236a1.695 1.695 0 01-1.398.727 1.71 1.71 0 01-1.399-.727 11.559 11.559 0 00-5.534-3.668 11.548 11.548 0 00-9.653 1.416 11.408 11.408 0 00-3.46 3.58 11.307 11.307 0 00-1.593 4.702 15.59 15.59 0 001.887 8.685c.748 1.476 1.7 2.85 2.55 4.275a.695.695 0 00.697.346h6.29c.664 0 1.021.287 1.021.793s-.374.776-1.037.776H9.832v3.246h17.572v-3.246h-2.372a.786.786 0 01-.694-.266.773.773 0 01-.156-.72.759.759 0 01.31-.456.77.77 0 01.54-.127h2.414V23.08c0-1.5.68-2.167 2.193-2.167h1.02c1.352 0 1.947.49 2.219 1.88h1.862a1.834 1.834 0 011.394.529 1.803 1.803 0 01.527 1.386v8.804a1.79 1.79 0 01-.536 1.377 1.82 1.82 0 01-1.394.52h-1.836c-.357 1.484-.85 1.88-2.406 1.88h-1.215a1.814 1.814 0 01-1.31-.532 1.787 1.787 0 01-.518-1.306v-3.128h-7.285c.08.113.168.22.263.32a82.13 82.13 0 0010.201 8.256 1.094 1.094 0 001.369 0c5.95-4.14 11.502-8.77 15.93-14.572a24.606 24.606 0 004.76-9.428 11.841 11.841 0 00-1.002-8.593c-.306-.565-.196-1.037.255-1.256.45-.22.85 0 1.139.523a13.65 13.65 0 01.85 10.718 28.102 28.102 0 01-5.1 9.444A66.068 66.068 0 0136.78 39.364c-1.224.936-2.49 1.83-3.749 2.715a2.562 2.562 0 01-3.4 0A81.54 81.54 0 0118.07 32.55a1.04 1.04 0 00-.63-.295H9.765v1.687c0 .573 0 1.189-.05 1.779a1.733 1.733 0 01-.564 1.078c-.312.28-.716.44-1.137.448H6.687c-1.505 0-2.006-.388-2.372-1.88H2.921c-.445.069-.9.002-1.307-.19a2.229 2.229 0 01-.97-.89V23.831zm7.574 5.254v-6.08c0-.387-.11-.581-.544-.548-.405.026-.81.026-1.215 0-.4 0-.519.144-.519.523v2.53a.754.754 0 01-.452.727.77.77 0 01-.296.066.794.794 0 01-.77-.435.78.78 0 01-.08-.299 4.56 4.56 0 010-.843c0-.312-.128-.439-.442-.43H2.522c-.315 0-.434.126-.434.438v8.593c0 .312.12.455.434.447h1.377c.306 0 .45-.118.442-.43-.009-.312 0-.843 0-1.257v-2.833c0-.405.187-.776.603-.801.317.009.619.132.85.346.137.118.128.421.128.64v5.667c0 .397.128.582.544.549.37-.03.743-.03 1.114 0 .501.05.629-.17.629-.633-.009-1.948.008-3.938.008-5.937zm20.81 0v6.08c0 .405.136.574.553.54.416-.034.671 0 1.003 0 .705 0 .705 0 .705-.691V23.207c0-.11.043-.245 0-.312-.042-.068-.238-.346-.382-.363-.4-.05-.85 0-1.216 0-.365 0-.663.135-.654.641 0 1.914-.009 3.913-.009 5.903v.008zm6.078.051v-4.292c0-.354-.102-.523-.476-.506-.374.017-.85 0-1.317 0-.306 0-.451.093-.451.422v8.635c0 .328.153.43.45.421.298-.008.706 0 1.055 0 .74 0 .74 0 .74-.7v-3.98z" fill="#fff" stroke="#fff" stroke-miterlimit="10"/><path d="M20.57 14.117h-6.592a4.93 4.93 0 01-.625 0 .703.703 0 01-.517-.233.736.736 0 01-.192-.543.762.762 0 01.173-.525.73.73 0 01.477-.26c.138-.014.276-.014.414 0h7.133c.76 0 .937.129 1.165.862.548 1.856 1.105 3.712 1.688 5.715.11-.311.177-.492.228-.665l2.304-7.769c0-.103.068-.207.093-.31a.781.781 0 01.264-.484.75.75 0 01.513-.181.774.774 0 01.51.18c.143.121.24.29.275.476.32 1.079.666 2.14.953 3.228a.597.597 0 00.233.409.568.568 0 00.451.1h6.036c.21 0 .48 0 .607.087.127.086.498.518.481.768-.016.25-.329.518-.565.717-.236.198-.338 0-.515 0h-6.82c-.845 0-.946-.095-1.182-.864-.127-.414-.253-.863-.372-1.234 0 0 0-.06-.092-.199-.093.26-.16.45-.22.64-.777 2.589-1.545 5.222-2.338 7.828a1.437 1.437 0 01-.464.734c-.456.328-.98 0-1.174-.63-.565-1.89-1.13-3.79-1.688-5.68a25.078 25.078 0 00-.641-2.166z" fill="#fff" stroke="#fff" stroke-miterlimit="10"/></symbol><symbol id="wmr-5" viewBox="0 0 43 43"><path d="M42.143 26.523a1.821 1.821 0 01-1.998 1.226c-1.68-.042-3.366 0-5.046 0a1.595 1.595 0 01-1.771-1.785v-5.449a.608.608 0 01.588-.631.594.594 0 01.602.652v3.571h6.378v-7.553c0-.532-.071-.61-.596-.61h-5.243c-.475 0-.56.092-.567.56-.007.467 0 .744 0 1.12a.61.61 0 01-.61.651.603.603 0 01-.588-.666v-1.318a1.529 1.529 0 011.524-1.537h5.768a1.637 1.637 0 011.516 1.211l.043 10.558zm-1.226-1.176H34.54v.503c0 .638.05.709.708.709h4.642c1.112-.036 1.112-.036 1.027-1.205v-.007zM21.225 41.751c-1.353-.574-2.246-1.68-3.196-2.72a6.818 6.818 0 01-1.764-3.204 3.139 3.139 0 011.488-3.394 3.124 3.124 0 013.65.333c.044.033.086.069.127.106a9.492 9.492 0 011.82-.793 3.14 3.14 0 013.629 3.982 7.75 7.75 0 01-1.991 3.217 29.71 29.71 0 01-1.998 1.9 5.069 5.069 0 01-.957.545l-.808.028zm-3.855-6.427c.093.693.364 1.35.787 1.906a15.014 15.014 0 002.926 3.104.756.756 0 001.113 0 32.202 32.202 0 001.878-1.8 6.443 6.443 0 001.566-2.345c.162-.454.223-.938.177-1.418a1.835 1.835 0 00-1.587-1.53 1.934 1.934 0 00-1.977.921c-.163.255-.34.553-.666.453a1.219 1.219 0 01-.589-.467 1.99 1.99 0 00-2.225-.858 2.02 2.02 0 00-1.396 2.034h-.007zm7.398-14.427h.88a3.132 3.132 0 013.018 3.09v2.834a1.67 1.67 0 01-1.037 1.59 1.673 1.673 0 01-.657.125H23.09c-.418 0-.708-.227-.708-.574 0-.348.248-.617.708-.624h1.8v-.95a.616.616 0 01.595-.665.617.617 0 01.602.659v.878l.05.064h.843a.462.462 0 00.461-.51v-3.005a1.914 1.914 0 00-1.651-1.707 4.885 4.885 0 00-.56 0h-7.213a1.999 1.999 0 00-2.254 2.239v2.324c0 .538.156.709.709.709h.709v-.929c0-.425.262-.708.623-.708a.616.616 0 01.574.708v.837l.057.092H19.9c.158-.018.318-.018.475 0a.56.56 0 01.468.616.524.524 0 01-.539.539h-4.287a1.58 1.58 0 01-1.417-1.503c0-1.105-.05-2.218 0-3.323a3.125 3.125 0 012.77-2.778c.34 0 .71 0 1.106-.05a4.69 4.69 0 01-1.46-3.925 4.493 4.493 0 011.644-3.061 4.641 4.641 0 016.208.22 4.734 4.734 0 01-.1 6.788zm-3.153-6.902a3.436 3.436 0 00-3.45 3.423 3.444 3.444 0 003.436 3.437 3.444 3.444 0 003.472-3.444 3.437 3.437 0 00-3.436-3.416h-.022zm2.331-7.425h-4.634v.892a1.261 1.261 0 01-1.233 1.268h-1.318a1.247 1.247 0 01-1.204-1.268V5.336c-.44-.064-.964 0-.964-.652 0-.382.212-.517.963-.63v-1.9A1.282 1.282 0 0116.974.738h1.084a1.24 1.24 0 011.254 1.24v.907h4.634v-.857a1.239 1.239 0 011.29-1.29h1.197a1.24 1.24 0 011.297 1.276V4.09c.709.113.928.255.921.652-.007.397-.205.524-.963.624V7.49a1.233 1.233 0 01-1.177 1.233c-.472.03-.945.03-1.417 0a1.247 1.247 0 01-1.197-1.254c.042-.29.05-.58.05-.9zm-7.192.935h1.325V1.956h-1.325v5.549zm9.75 0V1.942H25.18v5.563h1.325zM19.326 5.3h4.592V4.125h-4.592V5.3zm-9.233 16.263a7.56 7.56 0 01-3.195 5.669c-.971.709-1.659.709-2.672-.05a7.177 7.177 0 01-1.693-10.14c.59-.898 1.4-1.63 2.352-2.126a1.417 1.417 0 011.417 0c.497.305.971.646 1.417 1.02a.545.545 0 01.036.823.596.596 0 01-.865 0c-.226-.184-.439-.39-.708-.56-.539-.376-.709-.39-1.219 0a6.235 6.235 0 00-2.586 4.131c-.383 2.494.708 4.408 2.614 5.91.482.383.645.347 1.148 0a6.066 6.066 0 002.254-7.214.346.346 0 010-.078c-.163-.418-.064-.708.269-.878a.602.602 0 01.829.396 7.34 7.34 0 01.602 3.097zM13.65 7.568a2.451 2.451 0 01-.446.546 16.007 16.007 0 00-4.896 5.024.61.61 0 01-.886.248.608.608 0 01-.128-.886 16.553 16.553 0 015.272-5.378.879.879 0 01.66-.057c.155.057.254.326.424.503zM7.876 28.99c.156.084.295.197.41.332a16.064 16.064 0 004.961 5.046.602.602 0 01.227.864.596.596 0 01-.879.142A16.701 16.701 0 017.31 29.96c-.305-.46-.064-.957.567-.97zm22.391 6.582c-.17-.135-.41-.24-.474-.418a.978.978 0 01.07-.623c0-.107.192-.17.305-.248a15.76 15.76 0 004.705-4.826 1.77 1.77 0 01.185-.262.567.567 0 01.758-.114.545.545 0 01.248.709c-.04.1-.09.194-.149.283a16.849 16.849 0 01-5.123 5.251 5.12 5.12 0 01-.525.248zm5.896-22.625c-.135.163-.248.41-.418.467a1.169 1.169 0 01-.66-.113c-.099-.043-.162-.206-.233-.312a15.674 15.674 0 00-4.656-4.776c-.064-.042-.134-.078-.198-.127a.594.594 0 01-.184-.844.567.567 0 01.836-.155c.58.396 1.162.8 1.707 1.247a16.36 16.36 0 013.543 4.088c.097.17.185.345.263.525z" fill="#fff" stroke="#fff" stroke-width=".531" stroke-miterlimit="10"/><path d="M6.841 22.541c-.134.191-.227.411-.39.496a.447.447 0 00-.262.432.546.546 0 01-.574.546.546.546 0 01-.595-.524.489.489 0 00-.29-.461.553.553 0 010-.978.482.482 0 00.29-.531 3.694 3.694 0 010-.56.482.482 0 00-.29-.532.559.559 0 010-.984.482.482 0 00.283-.454.546.546 0 01.595-.532.554.554 0 01.574.553.44.44 0 00.27.425.589.589 0 010 1.042.652.652 0 00-.234.383 3.331 3.331 0 000 .595c0 .255-.043.496.304.61.114.042.185.276.32.474z" fill="#fff" stroke="#fff" stroke-width=".531" stroke-miterlimit="10"/></symbol><symbol id="wmr-6" viewBox="0 0 37 44"><path d="M29.492 31.797a5.411 5.411 0 012.28-1.353 3.8 3.8 0 014.18 1.703 3.724 3.724 0 01-.395 4.484 163.886 163.886 0 01-5.389 5.396 3.48 3.48 0 01-3.124.89 1.36 1.36 0 00-.524 0 3.983 3.983 0 01-2.28-.198.76.76 0 00-.372 0 10.37 10.37 0 01-1.604.25H4.783A3.801 3.801 0 01.77 39.003V15.67a4.85 4.85 0 013.329-4.865c.455-.128.92-.215 1.39-.258.464-.054.586-.152.594-.631.007-.479 0-.851 0-1.3h-.388a1.619 1.619 0 01-1.619-1.565V2.574A1.604 1.604 0 015.726 1h15.649A1.588 1.588 0 0123 2.52c.046 1.52.046 3.027 0 4.522a1.61 1.61 0 01-1.588 1.52h-.403v1.52c0 .373.304.418.608.433a4.787 4.787 0 014.05 2.463c.462.817.689 1.745.654 2.683v8.953a.51.51 0 00.449.6 3.8 3.8 0 012.751 3.747c-.015.95-.03 1.9-.03 2.835zM7.299 8.586v1.467a1.672 1.672 0 01-1.672 1.702 3.619 3.619 0 00-3.64 3.8v23.402a2.584 2.584 0 002.78 2.759h18.029c-.061-.122-.076-.175-.107-.22a3.907 3.907 0 01-.828-2.6v-4.005H4.874c-.76 0-.95-.16-.95-.92V18.634c0-.76.19-.943.943-.943h17.275c.76 0 .95.175.95.973v7.19c.6-.251 1.178-.487 1.748-.76a.457.457 0 00.175-.342c0-3.132.038-6.27 0-9.402a3.58 3.58 0 00-3.587-3.633 1.68 1.68 0 01-1.718-1.756V8.548L7.3 8.586zm14.54 25.081V19.013H5.2v14.654h16.637zM13.492 7.301h7.6c.586 0 .692-.106.692-.699v-3.8c0-.562-.114-.669-.684-.669H5.969c-.586 0-.692.099-.692.7v3.724c0 .615.099.714.722.714l7.494.03zm9.645 26.062h4.727c.13 0 .35-.258.373-.418.03-.397.03-.796 0-1.193 0-1.11 0-2.22-.069-3.322a2.463 2.463 0 00-2.553-2.128 2.463 2.463 0 00-2.463 2.174c-.076 1.626-.015 3.238-.015 4.917v-.03zm9.28 4.56c.76-.722 1.52-1.421 2.28-2.212a2.508 2.508 0 00-.175-3.39 2.478 2.478 0 00-3.344-.242c-.813.714-1.52 1.573-2.234 2.34l3.473 3.504zm-4.56-2.6c-.707.7-1.452 1.377-2.128 2.114a2.523 2.523 0 000 3.397 2.47 2.47 0 003.359.426 33.29 33.29 0 002.432-2.28l-3.663-3.656zm-3.337 6.035c0-.06-.084-.121-.114-.182a3.8 3.8 0 01.563-4.75c.478-.502.98-.98 1.466-1.475.084-.083.16-.182.259-.296h-3.557c0 1.642-.053 3.268 0 4.88a2.06 2.06 0 001.406 1.839l-.023-.016z" fill="#fff" stroke="#fff" stroke-width=".57" stroke-miterlimit="10"/><path d="M8.325 40.842h-.928a.594.594 0 01-.593-.639.562.562 0 01.593-.585h1.9a.555.555 0 01.57.608.57.57 0 01-.57.616c-.326.023-.646 0-.972 0zm8.497-16.888a4.333 4.333 0 01.418 5.206 4.363 4.363 0 01-5.024 1.824 4.37 4.37 0 01-3.04-4.325 4.325 4.325 0 013.542-4.081c.387-.068.57-.19.653-.6.125-.485.298-.956.517-1.407.22-.501.524-.646.89-.486.364.16.432.464.25 1.01.372-.09.76-.204 1.094-.265a3.95 3.95 0 01.799 0c.889.06 1.155.403.85 1.239-.28.646-.597 1.275-.95 1.885zm-3.253 5.996a3.124 3.124 0 003.1-3.1 3.115 3.115 0 00-3.115-3.124 3.117 3.117 0 00-3.124 3.123 3.116 3.116 0 003.108 3.101h.03zm1.52-7.364c.653.524 1.178.25 1.353-.677l-1.353.677zm-7.691-17.8v1.018a.6.6 0 01-.6.639.6.6 0 01-.616-.662V3.706a.593.593 0 01.593-.638.608.608 0 01.638.646c0 .365-.015.722-.015 1.072zM12.9 4.77V3.76a.63.63 0 01.608-.677.608.608 0 01.624.654v2.067a.601.601 0 01-.6.639.6.6 0 01-.624-.654c-.023-.334-.008-.676-.008-1.018zm7.973.023v1.011a.6.6 0 01-.6.639.608.608 0 01-.632-.654V3.714a.59.59 0 01.6-.63c.35 0 .594.235.632.645v1.064zm-12.457-.03V3.706a.593.593 0 01.608-.623.578.578 0 01.615.57v2.212a.585.585 0 01-.653.57.593.593 0 01-.57-.616V4.763zm6.734-.008V3.7a.578.578 0 01.57-.616.593.593 0 01.653.578v2.211a.562.562 0 01-.615.563.57.57 0 01-.6-.616c-.016-.357-.008-.707-.008-1.064zm-3.268.015v1.065a.585.585 0 01-.578.608.6.6 0 01-.646-.586V3.691a.562.562 0 01.623-.6.57.57 0 01.6.623c.016.35.008.707 0 1.057zm6.741.008v1.064a.563.563 0 01-.577.593.555.555 0 01-.631-.547c-.038-.76-.038-1.52 0-2.28a.57.57 0 01.63-.555.57.57 0 01.586.593c.007.395-.008.767-.008 1.132z" fill="#fff" stroke="#fff" stroke-width=".57" stroke-miterlimit="10"/></symbol><symbol id="wmr-7" viewBox="0 0 41 43"><path d="M13.502 18.512L7.318 24.7c-.102.103-.2.213-.313.308a.68.68 0 01-1.016-.014 381.542 381.542 0 01-3.463-3.465c-.325-.33-.304-.701.032-1.045.468-.493.968-.972 1.451-1.456 2.143-2.145 4.303-4.276 6.43-6.438 1.385-1.402 3.037-2.124 5.01-2.068.406.012.813 0 1.33 0-1.31-1.285-1.978-2.771-1.87-4.538a5.453 5.453 0 012.336-4.207 5.595 5.595 0 017.245.62c1.732 1.736 2.591 5.25-.234 8.13h1.47a6.328 6.328 0 014.709 1.946 3422.3 3422.3 0 007.854 7.857c.55.55.547.844 0 1.402a1484.45 1484.45 0 01-3.124 3.125c-.514.511-.82.511-1.33 0-1.97-1.968-3.94-3.937-5.905-5.908-.115-.115-.206-.248-.374-.454-.025.13-.044.26-.056.39v6.65c.005.201.047.401.124.588 1.986 5.085 3.975 10.169 5.966 15.25.042.108.084.216.121.328.203.591-.089 1.019-.72 1.023-.974.012-1.95 0-2.928 0H27.09c-.688 0-.81-.086-1.064-.736l-5.265-13.46a18.07 18.07 0 00-.234-.563c-.404 1.168-.785 2.238-1.168 3.318l-3.694 10.642c-.253.722-.363.8-1.143.8H8.85c-.831 0-1.1-.386-.824-1.18l5.33-15.342c.089-.26.136-.532.138-.807.012-2.103 0-4.227 0-6.342l.007-.542zM9.59 41.322c1.51 0 2.951-.014 4.39 0a.51.51 0 00.576-.425 3995.56 3995.56 0 014.466-12.87c.252-.726.516-1.453.761-2.184.117-.349.3-.61.701-.622.402-.012.627.25.744.615.018.056.044.107.067.16l5.842 14.927a.524.524 0 00.596.397c1.297-.019 2.594 0 3.894 0 .138 0 .275-.012.45-.019-.065-.175-.116-.308-.167-.442a3011.62 3011.62 0 01-5.649-14.437 1.732 1.732 0 01-.145-.584v-8.925a.7.7 0 01.442-.731.701.701 0 01.827.22l.187.184 6.588 6.588c.11.11.234.215.29.273l2.495-2.486c-.056-.06-.142-.157-.233-.248-2.39-2.393-4.79-4.776-7.17-7.181a5.232 5.232 0 00-3.916-1.615c-3.395.02-6.791.02-10.19 0a5.256 5.256 0 00-3.953 1.636c-2.367 2.395-4.76 4.767-7.14 7.15-.1.101-.193.209-.247.265l2.53 2.533c.083-.116.173-.227.27-.332l6.646-6.653c.257-.26.518-.488.916-.336.397.152.467.504.467.895v8.616c-.002.246-.045.49-.126.722-1.194 3.45-2.392 6.9-3.597 10.35-.551 1.489-1.065 2.986-1.612 4.56zM20.512 2.126a4.207 4.207 0 00-4.206 4.185 4.206 4.206 0 004.185 4.206 4.207 4.207 0 004.207-4.185 4.206 4.206 0 00-4.186-4.206z" fill="#fff"/><path d="M19.76 42.019l-1.444-.115.143-1.381 1.301.096v1.4zm17.127-10.865l.638-1.2 1.253.61-.683 1.285-1.208-.695zm2.517-9.05h1.402c-.032.493-.06.95-.093 1.444l-1.379-.122.07-1.322zm-16.718 19.8l-1.454.112v-1.402l1.297-.107.157 1.397zM7.008 8.487l-.984-.982 1.04-.993.935 1.04-.991.935zM1.74 19.327l-.117 1.356-1.388-.087.124-1.44 1.381.171zm37.419 5.453l1.374.233c-.096.481-.185.935-.283 1.42l-1.355-.317c.09-.46.175-.88.264-1.337zM29.082 3.32l1.297.668-.675 1.213-1.213-.61.59-1.271zM4.529 34.26l-.858-1.168 1.147-.788.807 1.094-1.096.862zm30.827-.853c.285-.385.533-.724.811-1.098l1.148.783-.853 1.168-1.106-.853zM4.475 11.693l-.68 1.168-1.227-.647.722-1.271 1.185.75zm32.744 1.199c-.234-.395-.442-.769-.678-1.169l1.169-.743c.233.418.467.825.733 1.26l-1.224.652zM2.696 15.357l-1.31-.467.53-1.344 1.28.551-.5 1.26zm35.117-1.234l1.275-.563.54 1.353-1.31.467c-.174-.432-.335-.817-.505-1.257zM10.155 5.902l-1.107.788-.846-1.108 1.184-.85.77 1.17zM1.958 17.974l-1.36-.268.33-1.421 1.345.374-.315 1.315zm37.413 2.664l-.11-1.276 1.37-.184.138 1.46H39.37zM4.11 31.138l-1.21.701-.683-1.28 1.248-.617.645 1.196zm0-21.403l.918-1.139 1.052.9-.837 1.066-1.133-.827zm32.794.028l-1.13.818-.843-1.066 1.066-.897.907 1.145zM.458 24.987l1.374-.233.273 1.327-1.353.325-.294-1.419zM12.534 4.58l-1.208.614-.68-1.208 1.292-.676.596 1.27zm19.102.168l1.187.85-.846 1.103a169.93 169.93 0 01-1.105-.785l.764-1.168zm8.768 12.981l-1.36.276c-.107-.454-.208-.87-.316-1.316l1.344-.376c.115.486.21.93.332 1.416zM2.465 27.415l.456 1.281-1.293.516-.493-1.374 1.33-.423zM.29 23.522l-.097-1.425h1.402l.087 1.301-1.393.124zM38.072 28.7c.154-.43.297-.822.467-1.268l1.33.409-.489 1.374-1.308-.514zM33.938 8.433l-.904-.862.916-1.045 1.005.946-1.017.96zm1.587 26.963c-.372.36-.701.67-1.052 1.012l-.934-.984 1.035-.893.95.865zm-28.073.074l-.975.889-.967-.998.974-.886.968.996zM20.42 16.103a9.39 9.39 0 011.401-.606 2.356 2.356 0 012.606 1.15 2.234 2.234 0 01-.468 2.755c-.948.935-1.916 1.835-2.883 2.741-.412.388-.734.384-1.145 0-.944-.888-1.885-1.78-2.823-2.678-.951-.909-1.07-2.178-.297-3.14a2.456 2.456 0 013.272-.468c.135.087.268.197.336.246zm.083 4.652c.825-.78 1.617-1.526 2.405-2.278.467-.442.516-.912.17-1.306a1.038 1.038 0 00-1.453-.096c-.168.138-.32.297-.48.446-.492.467-.789.467-1.275 0a6.426 6.426 0 00-.547-.498 1.026 1.026 0 00-1.402.157c-.322.393-.266.848.175 1.271.774.767 1.568 1.512 2.405 2.304h.002z" fill="#fff"/></symbol><symbol id="wmr-8" viewBox="0 0 42 43"><path d="M15.263 22.931c-.689 1.265-1.621 1.751-2.724 1.476a2.253 2.253 0 01-1.427-3.365.584.584 0 000-.73c-.3-.478-.575-.98-.81-1.467-.236-.486-.244-.948.17-1.184.413-.235.81-.073 1.102.47.292.544.568 1.022.884 1.509a.69.69 0 00.486.267 2.326 2.326 0 012.222 1.29.582.582 0 00.38.259h1.622a2.384 2.384 0 012.433-1.565.502.502 0 00.364-.219c.276-.438.527-.9.73-1.257-.197-.494-.362-1-.495-1.516a2.108 2.108 0 01.381-1.516.73.73 0 000-.494 1.572 1.572 0 00-.202-.381c-.284-.584-.568-1.054-1.395-1.022a2.003 2.003 0 01-1.718-1.183.851.851 0 00-.47-.292 3.373 3.373 0 00-.576 0 1.208 1.208 0 00-1.37.64 1.937 1.937 0 01-1.93.892.454.454 0 00-.519.292c-.291.54-.591 1.06-.9 1.556-.283.487-.697.625-1.086.398-.389-.227-.446-.633-.178-1.103.267-.47.64-1.094.932-1.621a.617.617 0 000-.495 2.303 2.303 0 012.615-3.438 2.294 2.294 0 011.382 1.176c.357.608.973.17 1.46.268a.52.52 0 00.68-.26 2.252 2.252 0 013.178-.989 2.31 2.31 0 01.77 3.243.81.81 0 000 .495c.056.134.127.262.211.38a1.532 1.532 0 001.46 1.103 2.148 2.148 0 011.823 2.327 2.27 2.27 0 01-2.27 2.157.616.616 0 00-.664.413 1.976 1.976 0 01-.195.332 1.378 1.378 0 00-.17 1.622 2.164 2.164 0 01-1.11 2.854 2.23 2.23 0 01-2.944-.917.697.697 0 00-.754-.413c-.494.008-.94.008-1.378.008zm4.864-.762a.81.81 0 00-.859-.81.811.811 0 00-.81.867.81.81 0 00.81.81.809.809 0 00.86-.859v-.008zm2.303-6.25a.81.81 0 100 1.62.867.867 0 00.81-.81.811.811 0 00-.81-.802v-.009zm-8.545-4.614a.81.81 0 00-1.621-.048.811.811 0 101.621.056v-.008zm-.81 11.715a.81.81 0 10-.811-.81.813.813 0 00.802.818l.008-.008zm6.242-10.912a.811.811 0 10-.811-.81.81.81 0 00.803.818l.008-.008z" fill="#fff"/><path d="M15.45 22.93a.69.69 0 00-.754.414 2.23 2.23 0 01-2.943.916 2.159 2.159 0 01-1.11-2.853 1.378 1.378 0 00-.179-1.622 2.66 2.66 0 01-.186-.332.617.617 0 00-.665-.413 2.287 2.287 0 01-2.278-2.157 2.156 2.156 0 011.832-2.327 1.54 1.54 0 001.46-1.102 2.08 2.08 0 00.21-.381.81.81 0 000-.495 2.312 2.312 0 011.693-3.533 2.262 2.262 0 012.296 1.28.51.51 0 00.68.259c.487-.098 1.103.34 1.46-.268a2.295 2.295 0 013.887-.37 2.302 2.302 0 01.11 2.632.584.584 0 000 .495c.292.559.624 1.102.932 1.621.308.519.195.876-.178 1.103-.373.227-.81.089-1.095-.398a81.54 81.54 0 01-.891-1.556.463.463 0 00-.52-.292 1.929 1.929 0 01-1.929-.892 1.208 1.208 0 00-1.37-.64 3.49 3.49 0 00-.584 0 .81.81 0 00-.462.292 2.003 2.003 0 01-1.726 1.183c-.811 0-1.103.438-1.387 1.022a1.967 1.967 0 00-.21.38.811.811 0 000 .495c.322.435.462.98.389 1.516a12.62 12.62 0 01-.495 1.516c.203.357.446.811.722 1.257a.534.534 0 00.372.219 2.384 2.384 0 012.433 1.564h1.621a.552.552 0 00.373-.259 2.342 2.342 0 012.23-1.289.704.704 0 00.486-.267c.316-.487.592-.998.884-1.508.291-.511.689-.698 1.094-.47.405.226.486.648.178 1.183s-.55.99-.85 1.467a.584.584 0 000 .73 2.253 2.253 0 01-1.428 3.364c-1.119.276-2.035-.21-2.724-1.475-.478-.008-.932-.008-1.378-.008zm-2.716.098a.81.81 0 00.81-.81.811.811 0 00-.81-.868.811.811 0 00-.867.81.812.812 0 00.908.868h-.04zm-3.94-6.258a.86.86 0 00.81.81.81.81 0 10-.81-.81zm10.223-4.654a.81.81 0 00.81-.884.81.81 0 00-1.62.049.811.811 0 00.81.835zm.81 10.069a.81.81 0 10-.81.81.81.81 0 00.787-.81h.024zm-6.242-10.904a.81.81 0 00-.81-.81.811.811 0 10-.049 1.62.81.81 0 00.86-.81z" fill="#fff"/><path d="M26.556 28.833a16.093 16.093 0 01-22.862-1.865 16.044 16.044 0 01.973-21.556 16.052 16.052 0 0121.598-.981 16.117 16.117 0 011.84 22.83c.56.55 1.119 1.118 1.71 1.62a.55.55 0 00.43 0 3.454 3.454 0 013.73.925c2.31 2.318 4.629 4.62 6.94 6.94a3.34 3.34 0 01.907 3.542 3.243 3.243 0 01-2.635 2.327 3.243 3.243 0 01-3.007-.9 761.414 761.414 0 01-7.232-7.248 3.242 3.242 0 01-.81-3.429.6.6 0 00-.17-.738c-.447-.43-.917-.94-1.412-1.467zm3.203-12.08A13.725 13.725 0 0016.066 3.012a13.7 13.7 0 00-13.782 13.7 13.733 13.733 0 0013.725 13.783 13.782 13.782 0 0013.742-13.742h.008zm1.864 14.269a1.2 1.2 0 00-1.216.713 1.127 1.127 0 00.317 1.314l6.972 6.98a1.137 1.137 0 001.71.073 1.127 1.127 0 00-.08-1.678c-2.33-2.34-4.67-4.675-7.022-7.005a2.592 2.592 0 00-.689-.38l.008-.017z" fill="#fff"/></symbol></svg>